<svg width="173" height="168" viewBox="0 0 173 168" fill="none" xmlns="http://www.w3.org/2000/svg">
<path d="M126.776 94.6225L126.603 95.2548H127.259H163.127H163.389L163.538 95.0385C163.773 94.6976 163.95 94.3192 164.06 93.9195L164.06 93.9187L172.087 64.6594C172.309 63.8521 172.145 62.9859 171.642 62.3176C171.139 61.649 170.354 61.2547 169.519 61.2548L137.96 61.2548L137.959 61.2548C136.76 61.2585 135.714 62.0634 135.39 63.2204L135.389 63.2231L126.776 94.6225Z" fill="#F5F5F5" stroke="#EA554E"/>
<path d="M169.891 63.7157L161.871 92.73C161.499 94.0816 160.272 95.0172 158.873 95.0157H125.212L134.188 62.553C134.447 61.6144 135.299 60.9645 136.27 60.9642H167.799C168.477 60.9621 169.116 61.2783 169.527 61.8187C169.938 62.359 170.073 63.0611 169.891 63.7157Z" fill="#D1D1D1"/>
<path d="M168.119 64.9906L161.565 88.6506L160.191 93.6053H126.804L128.175 88.6506L135.028 63.9171C135.27 63.0469 136.061 62.4454 136.962 62.4473H166.188C166.813 62.4473 167.403 62.7403 167.782 63.2393C168.161 63.7384 168.285 64.3862 168.119 64.9906Z" fill="#323232"/>
<path d="M64.2571 20.9109C64.3625 21.7896 60.2571 23.2727 60.2076 24.214L60.8666 26.0737C55.8254 24.2405 60.2735 27.0316 60.2735 27.0415C58.7777 31.494 59.2851 33.9548 55.0215 35.6493C52.8276 36.5205 50.4655 36.883 48.1121 36.7096C44.8403 36.4817 41.9375 37.5056 39.5651 36.3793C39.0473 36.1316 38.5758 35.7964 38.1714 35.3884C37.3379 34.5544 36.5977 33.6318 35.9638 32.6369C35.7233 32.2405 35.4894 31.8475 35.2752 31.4313C33.9869 28.9374 31.3477 21.6079 31.5618 18.5988C32.1549 10.1099 40.2703 4.42525 49.608 5.05614C49.8485 5.07265 50.0824 5.07596 50.323 5.08917C55.1718 5.42461 59.5949 7.98418 62.3098 12.0256C62.4482 12.2337 62.5866 12.4451 62.7184 12.6598C63.4762 13.8985 63.8847 19.1966 63.8847 19.1966C64.0618 19.7552 64.1864 20.3291 64.2571 20.9109Z" fill="#7C4B39"/>
<path d="M59.1862 12.0752C61.9111 19.6062 54.7315 18.9919 54.3987 22.4502C54.2338 23.7089 54.1414 24.9761 54.1219 26.2454L53.5717 28.0192C53.3899 28.6383 52.782 29.0295 52.1448 28.9374C51.5076 28.8453 51.0346 28.2979 51.0346 27.6526V27.6162L51.0972 24.7954L49.6969 28.5147C47.8552 33.4173 44.2781 37.469 39.6475 39.8971C39.6475 39.8971 30.8896 34.6749 30.8896 22.7574C30.8897 21.764 30.9469 20.7714 31.061 19.7846C31.1582 18.9085 31.3145 18.04 31.5289 17.1851C35.1532 2.37405 53.3114 7.42777 55.0544 8.08509C56.8896 8.78204 59.1862 12.0752 59.1862 12.0752Z" fill="#7C4B39"/>
<path opacity="0.2" d="M45.2257 35.6724C43.6112 37.3791 41.7264 38.8066 39.6475 39.8971C39.6475 39.8971 30.8896 34.6749 30.8896 22.7574C30.8897 21.764 30.9469 20.7714 31.061 19.7846C31.1582 18.9085 31.3145 18.04 31.5289 17.1851C31.9177 19.451 32.9358 22.8862 35.542 27.134C39.5091 33.5981 43.8287 35.2761 45.2257 35.6724Z" fill="#081344"/>
<path fill-rule="evenodd" clip-rule="evenodd" d="M84 168C130.392 168 168 130.392 168 84C168 37.6081 130.392 0 84 0C37.6081 0 0 37.6081 0 84C0 130.392 37.6081 168 84 168Z" fill="#EA554E"/>
<mask id="mask0" mask-type="alpha" maskUnits="userSpaceOnUse" x="0" y="0" width="168" height="168">
<path fill-rule="evenodd" clip-rule="evenodd" d="M84 168C130.392 168 168 130.392 168 84C168 37.6081 130.392 0 84 0C37.6081 0 0 37.6081 0 84C0 130.392 37.6081 168 84 168Z" fill="white"/>
</mask>
<g mask="url(#mask0)">
<path d="M57.71 7.49384L62.1812 10.2849C65.4221 12.2949 66.5829 16.4612 64.85 19.8639C64.6581 20.2085 64.4854 20.5636 64.3327 20.9275C64.5041 20.7326 57.4827 7.5665 57.4827 7.5665" fill="#7C4B39"/>
<rect x="39.8979" y="31.7319" width="10.0329" height="18.6426" rx="3.8676" fill="#FCBBA4"/>
<path d="M64.2571 20.9109C64.3625 21.7896 60.2571 23.2727 60.2076 24.214L60.8666 26.0737C55.8254 24.2405 60.2735 27.0316 60.2735 27.0415C58.7777 31.494 59.2851 33.9548 55.0215 35.6493C52.8276 36.5205 50.4655 36.883 48.1121 36.7096C44.8403 36.4817 41.9375 37.5056 39.5651 36.3793C39.0473 36.1316 38.5758 35.7964 38.1714 35.3884C37.3379 34.5544 36.5977 33.6318 35.9638 32.6369C35.7233 32.2405 35.4894 31.8475 35.2752 31.4313C33.9869 28.9374 31.3477 21.6079 31.5618 18.5988C32.1549 10.1099 40.2703 4.42525 49.608 5.05614C49.8485 5.07265 50.0824 5.07596 50.323 5.08917C55.1718 5.42461 59.5949 7.98418 62.3098 12.0256C62.4482 12.2337 62.5866 12.4451 62.7184 12.6598C63.4762 13.8985 63.8847 19.1966 63.8847 19.1966C64.0618 19.7552 64.1864 20.3291 64.2571 20.9109Z" fill="#7C4B39"/>
<path d="M63.8782 23.6261L63.7628 25.9581L63.5619 29.8227L63.2488 31.1935C63.2192 31.8012 62.9194 35.0019 62.804 35.58C61.7398 41.0499 58.1582 42.2126 52.5899 42.9029C52.4231 42.9309 52.2547 42.9474 52.0857 42.9524C50.8995 43.0655 49.7033 43.0066 48.5338 42.7774C47.438 42.5792 46.3732 42.236 45.3675 41.7567C42.9277 40.5991 40.9053 38.7126 39.5783 36.3562C38.5562 34.558 37.9904 32.5356 37.9309 30.4668C37.9309 30.3215 37.9309 30.1761 37.9309 30.0242C37.9195 29.8482 37.9195 29.6717 37.9309 29.4957V29.4065V28.987L37.9935 27.8871L38.178 24.0918V24.0555L38.2142 23.3519L38.2406 22.8036L38.2703 22.2983V22.1694C38.3253 21.3088 38.4892 20.4586 38.7579 19.6393C38.9254 19.0744 39.1335 18.5224 39.3806 17.9877C39.4105 17.9056 39.4446 17.8251 39.4828 17.7466C39.6755 17.3071 39.8956 16.8802 40.1418 16.4683C41.0778 14.9019 42.333 13.5513 43.8254 12.5046C44.122 12.2899 44.4317 12.0884 44.7414 11.9034C46.9784 10.5863 49.5507 9.95367 52.1418 10.0834C54.379 10.2024 56.0297 10.8729 57.8287 11.9596C58.9144 12.6117 59.8991 13.4196 60.7513 14.3576C61.922 15.6818 62.7991 17.2399 63.3246 18.9291C63.3592 19.0244 63.3889 19.1214 63.4136 19.2198C63.5865 19.781 63.7068 20.3571 63.7727 20.9407C63.8841 21.8312 63.9194 22.7296 63.8782 23.6261Z" fill="#FFC7B0"/>
<path d="M59.1862 12.0752C61.9111 19.6062 54.7315 18.9919 54.3987 22.4502C54.2338 23.7089 54.1414 24.9761 54.1219 26.2454L53.5717 28.0192C53.3899 28.6383 52.782 29.0295 52.1448 28.9374C51.5076 28.8453 51.0346 28.2979 51.0346 27.6526V27.6162L51.0972 24.7954L49.6969 28.5147C47.8552 33.4173 44.2781 37.469 39.6475 39.8971C39.6475 39.8971 30.8896 34.6749 30.8896 22.7574C30.8897 21.764 30.9469 20.7714 31.061 19.7846C31.1582 18.9085 31.3145 18.04 31.5289 17.1851C35.1532 2.37405 53.3114 7.42777 55.0544 8.08509C56.8896 8.78204 59.1862 12.0752 59.1862 12.0752Z" fill="#7C4B39"/>
<path d="M65.4233 31.6096C65.4233 31.6328 65.4233 31.8045 65.4233 31.8045C65.4003 32.6204 64.6951 33.2678 62.9521 33.2149L63.196 26.8565C64.6095 29.02 65.2948 30.2785 65.4233 31.6096Z" fill="#FFC7B0"/>
<path d="M64.6027 23.4891L60.8093 24.2954C60.3674 24.3893 59.9325 24.1073 59.8365 23.6647C59.744 23.2207 60.0259 22.7854 60.468 22.6896L64.2614 21.8833C64.7042 21.791 65.1388 22.074 65.2349 22.5172C65.3273 22.9606 65.0446 23.3951 64.6027 23.4891Z" fill="#7C4B39"/>
<path d="M62.2965 26.84C61.9725 26.84 61.71 26.5767 61.71 26.252V25.3899C61.7189 25.0717 61.9789 24.8184 62.2965 24.8185C62.6191 24.8203 62.8797 25.083 62.8796 25.4064V26.2685C62.8708 26.5855 62.6128 26.8383 62.2965 26.84Z" fill="#081344"/>
<path opacity="0.2" d="M45.2257 35.6724C43.6112 37.3791 41.7264 38.8066 39.6475 39.8971C39.6475 39.8971 30.8896 34.6749 30.8896 22.7574C30.8897 21.764 30.9469 20.7714 31.061 19.7846C31.1582 18.9085 31.3145 18.04 31.5289 17.1851C31.9177 19.451 32.9358 22.8862 35.542 27.134C39.5091 33.5981 43.8287 35.2761 45.2257 35.6724Z" fill="#081344"/>
<path d="M50.715 23.8507C50.9748 23.8515 51.2234 23.957 51.4049 24.1433C51.5865 24.3296 51.6857 24.5812 51.6804 24.8416L51.6574 28.1447L51.6343 31.0349H50.5008C50.4197 31.0418 50.3382 31.0418 50.257 31.0349C48.3418 30.8609 46.8739 29.2534 46.8699 27.3256C46.8789 26.3854 47.2719 25.4901 47.9572 24.8482C48.5785 24.2589 49.3924 23.9161 50.2471 23.8837C50.3458 23.8755 50.445 23.8755 50.5437 23.8837L50.715 23.8507Z" fill="#FCBBA4"/>
<rect x="47.1631" y="126.352" width="30.5107" height="5.63837" transform="rotate(180 47.1631 126.352)" fill="#081344"/>
<rect x="161.265" y="126.828" width="27.9473" height="5.63837" transform="rotate(180 161.265 126.828)" fill="#EBEBEB"/>
<rect x="156.768" y="102.008" width="6.35585" height="79.426" fill="#EBEBEB"/>
<rect x="131.242" y="101.533" width="6.35585" height="79.9016" fill="#EBEBEB"/>
<rect x="8.82373" y="126.828" width="27.9473" height="5.63837" transform="rotate(180 8.82373 126.828)" fill="#716F82"/>
<rect x="4.323" y="102.008" width="6.35585" height="79.426" fill="#716F82"/>
<rect x="96.4087" y="48.6569" width="20.9786" height="45.2358" fill="#909090"/>
<path d="M73.4827 34.0671H136.942C137.673 34.0627 138.375 34.3496 138.894 34.8644C139.413 35.3793 139.707 36.0799 139.71 36.812V79.0353H70.738V36.812C70.7453 35.2965 71.9709 34.0707 73.4827 34.0671Z" fill="#F5F5F5"/>
<path d="M70.0857 77.7471H139.035V79.98C139.035 83.1962 136.434 85.8034 133.226 85.8034H75.8946C72.6864 85.8034 70.0857 83.1962 70.0857 79.98V77.7504V77.7471Z" fill="#DDDDDD"/>
<path d="M137.325 36.8087V79.0386H68.3591V36.8087C68.3664 35.2912 69.5966 34.0653 71.1104 34.0671H134.573C136.087 34.0653 137.317 35.2912 137.325 36.8087Z" fill="#D1D1D1"/>
<path d="M134.814 36.7096V75.1443C134.812 75.2853 134.698 75.3987 134.557 75.3987H71.1236C70.9842 75.3969 70.8716 75.284 70.8699 75.1443V36.7096C70.8699 36.5692 70.9835 36.4553 71.1236 36.4553H134.557C134.625 36.4544 134.69 36.4808 134.738 36.5286C134.787 36.5764 134.814 36.6416 134.814 36.7096Z" fill="#323232"/>
<path d="M137.318 77.7471V79.98C137.318 83.198 134.716 85.8067 131.506 85.8067H74.1747C72.6341 85.8058 71.157 85.1914 70.0682 84.0987C68.9794 83.006 68.3683 81.5245 68.3691 79.98V77.7504L137.318 77.7471Z" fill="#F9F9F9"/>
<rect x="74.5732" y="41.2117" width="21.4267" height="0.743194" fill="#6E89C4"/>
<rect x="105.288" y="41.2117" width="10.145" height="0.743194" fill="#DDDDDD"/>
<rect x="119.934" y="41.2117" width="10.145" height="0.743194" fill="#FFC543"/>
<rect x="116.336" y="41.2117" width="2.39868" height="0.743194" fill="#6E89C4"/>
<rect x="97.0017" y="41.2117" width="7.11038" height="0.743194" fill="#EA5444"/>
<rect x="74.5732" y="60.2474" width="21.4267" height="0.743194" fill="#6E89C4"/>
<rect x="105.288" y="60.2474" width="10.145" height="0.743194" fill="#DDDDDD"/>
<rect x="119.934" y="60.2474" width="10.145" height="0.743194" fill="#FFC543"/>
<rect x="116.336" y="60.2474" width="2.39868" height="0.743194" fill="#6E89C4"/>
<rect x="97.0017" y="60.2474" width="7.11038" height="0.743194" fill="#A29FB0"/>
<rect x="130.082" y="54.6454" width="21.4267" height="0.743194" transform="rotate(180 130.082 54.6454)" fill="#6E89C4"/>
<rect x="99.364" y="54.6454" width="10.145" height="0.743194" transform="rotate(180 99.364 54.6454)" fill="#DDDDDD"/>
<rect x="84.7151" y="54.6454" width="10.145" height="0.743194" transform="rotate(180 84.7151 54.6454)" fill="#FFC543"/>
<rect x="88.3164" y="54.6454" width="2.39868" height="0.743194" transform="rotate(180 88.3164 54.6454)" fill="#6E89C4"/>
<rect x="107.651" y="54.6454" width="7.11038" height="0.743194" transform="rotate(180 107.651 54.6454)" fill="#A29FB0"/>
<rect x="74.5732" y="44.386" width="8.03624" height="0.743194" fill="#EA5444"/>
<rect x="98.593" y="44.386" width="3.44975" height="0.743194" fill="#6E89C4"/>
<rect x="113.239" y="44.386" width="16.8402" height="0.743194" fill="#DDDDDD"/>
<rect x="102.946" y="44.386" width="9.0939" height="0.743194" fill="#6E89C4"/>
<rect x="83.6113" y="44.386" width="13.8056" height="0.743194" fill="#6E89C4"/>
<rect x="74.5732" y="63.4183" width="8.03624" height="0.743194" fill="#6E89C4"/>
<rect x="98.593" y="63.4183" width="3.44975" height="0.743194" fill="#6E89C4"/>
<rect x="113.239" y="63.4183" width="16.8402" height="0.743194" fill="#6E89C4"/>
<rect x="102.946" y="63.4183" width="9.0939" height="0.743194" fill="#6E89C4"/>
<rect x="83.6113" y="63.4183" width="13.8056" height="0.743194" fill="#6E89C4"/>
<rect x="74.5732" y="57.0731" width="8.03624" height="0.743194" fill="#EA5444"/>
<rect x="98.593" y="57.0731" width="3.44975" height="0.743194" fill="#6E89C4"/>
<rect x="113.239" y="57.0731" width="16.8402" height="0.743194" fill="#DDDDDD"/>
<rect x="102.946" y="57.0731" width="9.0939" height="0.743194" fill="#6E89C4"/>
<rect x="83.6113" y="57.0731" width="13.8056" height="0.743194" fill="#6E89C4"/>
<rect x="74.5732" y="47.5569" width="8.03624" height="0.743194" fill="#DDDDDD"/>
<rect x="83.6113" y="47.5569" width="13.8056" height="0.743194" fill="#6E89C4"/>
<rect x="97.4167" y="51.4744" width="8.03624" height="0.743194" transform="rotate(180 97.4167 51.4744)" fill="#DDDDDD"/>
<rect x="88.3789" y="51.4744" width="13.8056" height="0.743194" transform="rotate(180 88.3789 51.4744)" fill="#6E89C4"/>
<rect x="87.219" y="91.9537" width="31.2455" height="3.13132" rx="1.5642" fill="#909090"/>
<path d="M82.4021 94.8439H166.046C167.433 94.8439 168.557 95.9708 168.557 97.3609V101.946H79.8914V97.351C79.8968 95.9648 81.0193 94.8439 82.4021 94.8439Z" fill="white"/>
<path d="M142.712 97.3543V101.949H-28V97.3543C-27.9946 95.9675 -26.8726 94.8457 -25.4893 94.8439H140.201C141.584 94.8457 142.706 95.9675 142.712 97.3543Z" fill="#CECECE"/>
<path d="M61.1599 178.055C62.3494 158.015 62.0265 139.492 60.4713 135.739C58.8733 133.407 46.4252 128.36 33.9836 127.812L39.8057 115.069C56.1253 115.891 67.7892 122.028 71.8683 129.044C73.5915 132.017 75.0874 137.979 74.2802 158.412C73.8584 169.114 73.3378 177.497 73.3378 177.497L61.1599 178.055Z" fill="#2F2F2F"/>
<path d="M79.364 178.055C80.5535 158.015 80.2339 139.492 78.6754 135.739C77.0774 133.407 64.6293 128.36 52.1877 127.812L57.9966 115.072C74.3162 115.894 85.9802 122.032 90.0625 129.047C91.7825 132.02 93.2784 137.982 92.4744 158.415C92.0494 169.117 91.5288 177.5 91.5288 177.5L79.364 178.055Z" fill="#2F2F2F"/>
<path d="M61.8286 118.738C61.825 123.861 57.6828 128.012 52.5732 128.014H37.0213C36.5668 128.014 36.1129 127.978 35.6639 127.908C34.5451 127.748 33.4664 127.378 32.4843 126.818C32.3129 126.725 32.1548 126.62 31.9835 126.514C29.3555 124.805 27.7694 121.879 27.7693 118.738L28.0559 113.784L61.5584 113.493L61.8286 118.738Z" fill="#2F2F2F"/>
<path d="M72.514 92.3137L80.5305 91.0288C81.1169 90.9342 81.5163 90.3816 81.4234 89.7935C81.3289 89.2053 80.7784 88.8039 80.1911 88.895L72.1647 90.1799C71.5775 90.2763 71.1775 90.8291 71.2685 91.4186C71.3145 91.7032 71.4719 91.9577 71.7056 92.1257C71.9394 92.2937 72.2303 92.3614 72.514 92.3137Z" fill="#FCBBA4"/>
<path d="M75.0676 94.4872L81.5026 93.4566C82.0898 93.3603 82.4898 92.8074 82.3988 92.218C82.3028 91.6296 81.7506 91.2296 81.1632 91.3228L74.725 92.3534C74.1381 92.4496 73.739 93.0032 73.8321 93.592C73.9281 94.1804 74.4803 94.5804 75.0676 94.4872Z" fill="#FCBBA4"/>
<path d="M73.5783 97.3047L81.1961 96.0859C81.7833 95.9896 82.1833 95.4367 82.0923 94.8472C81.9963 94.2589 81.4441 93.8588 80.8567 93.9521L73.2389 95.1742C72.6517 95.2706 72.2517 95.8234 72.3427 96.4129C72.4404 96.9999 72.992 97.3981 73.5783 97.3047Z" fill="#FCBBA4"/>
<path d="M75.9736 90.2361C75.8879 90.2361 74.906 90.2361 73.8385 90.2163C72.0031 90.1875 70.1872 90.5962 68.5403 91.4087L65.3772 92.9677C65.3772 92.9677 67.1894 98.3551 67.4398 98.4013C73.5354 99.5045 75.6243 96.73 75.6243 96.73L75.9736 90.2361Z" fill="#FCBBA4"/>
<rect x="68.5469" y="90.2163" width="2.70511" height="8.81594" fill="white"/>
<path d="M50.8138 99.9901C44.4191 99.9827 38.6093 96.2575 35.9209 90.4409L35.7891 90.1535L27.4365 64.591L37.7232 61.2119L45.8616 86.1238C46.8353 87.99 48.769 89.1531 50.8698 89.1362L68.6095 88.9611L68.7149 99.8118L50.9752 99.9901H50.8138Z" fill="#1C1C2D"/>
<path d="M108.698 89.45C108.039 88.2612 107.036 87.2999 105.822 86.6919H105.792C104.139 85.8829 102.317 85.4799 100.478 85.516L96.9554 85.5821C96.9554 85.5821 96.0625 93.2453 96.1087 92.9975C96.1976 92.4988 104.722 92.6276 108.629 92.7102C109.024 92.7246 109.396 92.5237 109.601 92.1851C109.806 91.8464 109.813 91.4231 109.618 91.0784L108.698 89.45Z" fill="#FCBBA4"/>
<rect x="94.8237" y="84.9941" width="3.36079" height="9.03063" fill="white"/>
<path d="M78.369 95.0553C71.9738 95.0498 66.1626 91.3258 63.4728 85.5094L51.4497 59.415L61.2916 54.8766L73.3179 80.971C74.2365 82.963 76.236 84.229 78.425 84.2047L96.1647 84.0296L96.2734 94.8803L78.5337 95.0553H78.369Z" fill="#DEEDFF"/>
<path d="M64.6986 64.5249L64.4976 87.3162L64.2571 116.314C64.2571 116.314 63.6311 117.014 61.7727 117.992C60.1615 118.844 57.6245 119.911 53.7596 120.915C49.2554 122.088 42.9161 122.269 37.4993 122.134C31.519 121.989 26.6689 121.473 26.6689 121.473L26.7942 64.5447C26.799 56.657 32.4443 49.9078 40.1912 48.5281C41.1228 48.3683 42.0664 48.2887 43.0116 48.2902H48.4943C57.4368 48.2975 64.6859 55.5602 64.6986 64.5249Z" fill="#E1EFFF"/>
<path d="M36.4666 72.0181L31.7253 68.438V66.0071L36.3185 69.3225C36.4919 69.4477 36.7137 69.3736 36.8139 69.1571C36.9142 68.9406 36.8548 68.6636 36.6815 68.5385L31.5441 64.8302C31.3024 64.6557 31 64.8736 31 65.2223V68.6934C31 68.8519 31.0664 68.9989 31.175 69.0809L36.2787 72.9347C36.394 73.0217 36.5384 73.0218 36.6537 72.9349L41.7689 69.0811C42.005 68.9033 42.0021 68.4747 41.7637 68.3018L32.0773 61.2772L36.5 57.9802L41.2708 61.5367L41.2307 64.2109L36.7059 60.8362C36.534 60.7079 36.3113 60.778 36.2087 60.9927C36.106 61.2074 36.1621 61.4854 36.334 61.6137L41.3957 65.3888C41.6348 65.5671 41.939 65.3562 41.9442 65.0085L41.9999 61.291C42.0023 61.1286 41.9349 60.977 41.8232 60.8937L36.6859 57.064C36.5714 56.9787 36.4286 56.9787 36.3141 57.064L31.1768 60.8937C30.9394 61.0707 30.9415 61.5008 31.1805 61.6741L40.8698 68.7008L36.4666 72.0181Z" fill="#EA554E"/>
<rect x="39.4004" y="139.27" width="5.47282" height="31.5015" fill="#EAEAEA"/>
<path d="M58.9852 141.992H26.2043C24.5196 141.987 23.1553 140.619 23.1499 138.93C23.1553 137.241 24.5196 135.874 26.2043 135.868H58.9852C60.6698 135.874 62.0341 137.241 62.0395 138.93C62.0341 140.619 60.6698 141.987 58.9852 141.992Z" fill="#343434"/>
<rect x="38.1055" y="165.84" width="7.99012" height="4.93151" fill="#343434"/>
<path d="M-1.44648 79.9965L5.88465 133.047C6.32948 136.274 9.0296 138.708 12.2767 138.811L39.0313 139.118L24.1548 72.3961H5.16637C3.23658 72.392 1.3998 73.2269 0.131303 74.6848C-1.13719 76.1427 -1.71276 78.0804 -1.44648 79.9965Z" fill="#474747"/>
<rect x="27.6672" y="127.558" width="48.7216" height="11.5575" rx="5.77335" fill="#646464"/>
<path d="M54.1879 49.2547H37.4597V44.5676L54.1879 46.5495V49.2547Z" fill="white"/>
<path d="M27.1863 131.819L19.4136 77.4102C19.0677 74.9857 20.8831 72.7363 23.4499 72.4093C26.0133 72.079 28.3922 73.7966 28.7415 76.2211L36.5141 130.626C36.8436 133.051 35.0446 135.303 32.4779 135.63C29.9144 135.957 28.5866 137.784 27.1863 131.819Z" fill="#646464"/>
<path d="M64.4975 87.303L64.257 116.314C64.257 116.314 63.6309 117.014 61.7726 117.992L57.9077 74.2756C57.9077 74.2756 61.4365 83.1213 64.4975 87.303Z" fill="#C7D9EF"/>
<path d="M127.259 94.7547H163.127C163.33 94.462 163.483 94.1371 163.578 93.7935L171.605 64.7495C171.786 64.096 171.652 63.3952 171.242 62.8552C170.833 62.3151 170.195 61.998 169.519 61.998H137.96C136.988 62.001 136.136 62.6493 135.871 63.5868L127.259 94.7547Z" fill="#F5F5F5"/>
<path d="M169.891 63.7157L161.871 92.73C161.499 94.0816 160.272 95.0172 158.873 95.0157H125.212L134.188 62.553C134.447 61.6144 135.299 60.9645 136.27 60.9642H167.799C168.477 60.9621 169.116 61.2783 169.527 61.8187C169.938 62.359 170.073 63.0611 169.891 63.7157Z" fill="#D1D1D1"/>
<path d="M168.119 64.9906L161.565 88.6506L160.191 93.6053H126.804L128.175 88.6506L135.028 63.9171C135.27 63.0469 136.061 62.4454 136.962 62.4473H166.188C166.813 62.4473 167.403 62.7403 167.782 63.2393C168.161 63.7384 168.285 64.3862 168.119 64.9906Z" fill="#323232"/>
<path d="M148.451 65.6645H138.178L138.405 64.9411H148.682L148.451 65.6645Z" fill="#ECEEF0"/>
<path d="M157.773 65.6645H152.906L153.137 64.9411H158.003L157.773 65.6645Z" fill="#EA5444"/>
<path d="M164.797 65.6645H159.934L160.161 64.9411H165.028L164.797 65.6645Z" fill="#A29FB0"/>
<path d="M159.357 65.6645H158.208L158.435 64.9411H159.585L159.357 65.6645Z" fill="#6E89C4"/>
<path d="M152.346 65.6645H148.932L149.163 64.9411H152.573L152.346 65.6645Z" fill="#A29FB0"/>
<path d="M141.298 78.0246H146.161L146.392 77.3012H141.525L141.298 78.0246Z" fill="#DDDDDD"/>
<path d="M134.273 78.0246H139.137L139.367 77.3012H134.501L134.273 78.0246Z" fill="#FFC543"/>
<path d="M139.713 78.0246H140.863L141.094 77.3012H139.941L139.713 78.0246Z" fill="#6E89C4"/>
<path d="M141.054 68.7529H137.199L137.43 68.0295H141.282L141.054 68.7529Z" fill="#EA5444"/>
<path d="M150.376 68.7529H148.722L148.949 68.0295H150.603L150.376 68.7529Z" fill="#6E89C4"/>
<path d="M163.822 68.7529H155.746L155.974 68.0295H164.053L163.822 68.7529Z" fill="#EA5444"/>
<path d="M155.17 68.7529H150.807L151.038 68.0295H155.4L155.17 68.7529Z" fill="#6E89C4"/>
<path d="M148.158 68.7529H141.535L141.763 68.0295H148.385L148.158 68.7529Z" fill="#6E89C4"/>
<path d="M135.196 87.2964H131.344L131.572 86.5697H135.427L135.196 87.2964Z" fill="#313D6E"/>
<path d="M140.079 71.8445H136.224L136.451 71.1212H140.306L140.079 71.8445Z" fill="#DDDDDD"/>
<path d="M146.366 71.8445H142.514L142.741 71.1212H146.596L146.366 71.8445Z" fill="#DDDDDD"/>
<path d="M161.776 71.8445H155.153L155.384 71.1212H162.007L161.776 71.8445Z" fill="#6E89C4"/>
<path d="M135.249 74.9329H141.868L142.099 74.2095H135.476L135.249 74.9329Z" fill="#6E89C4"/>
<path d="M143.572 95.0916H102.573C101.613 95.0898 100.834 94.3106 100.83 93.3476C100.832 92.3833 101.611 91.6021 102.573 91.6003H143.572C144.532 91.6039 145.31 92.3846 145.311 93.3476C145.308 94.3093 144.531 95.088 143.572 95.0916Z" fill="#F9F9F9"/>
<path d="M159.114 94.9859H135.39C134.429 94.9841 133.649 94.2029 133.647 93.2386C133.649 92.2743 134.429 91.4931 135.39 91.4913H159.114C160.074 91.4949 160.852 92.2756 160.853 93.2386C160.852 94.2016 160.074 94.9823 159.114 94.9859Z" fill="#DDDDDD"/>
<rect x="147.196" y="92.6507" width="3.39044" height="1.02065" fill="#081344"/>
<rect x="143.723" y="92.6507" width="2.45799" height="1.02065" fill="#081344"/>
</g>
</svg>
