<svg width="168" height="168" viewBox="0 0 168 168" fill="none" xmlns="http://www.w3.org/2000/svg">
<path fill-rule="evenodd" clip-rule="evenodd" d="M84 168C130.392 168 168 130.392 168 84C168 37.6081 130.392 0 84 0C37.6081 0 0 37.6081 0 84C0 130.392 37.6081 168 84 168Z" fill="#EA554E"/>
<rect x="64.322" y="113.566" width="22.5984" height="11.8687" fill="#B8B8B8"/>
<path d="M101.972 125.148H47.6237C46.8181 125.148 46.1592 125.808 46.1592 126.616V133.977C46.1592 134.785 46.8184 135.446 47.6237 135.446H101.972V125.148Z" fill="#EBEBEB"/>
<path d="M138.779 27.3307H12.4648C11.6592 27.3307 11 27.9916 11 28.7994V112.386C11 113.194 11.6592 113.854 12.4648 113.854H101.972V69.8785C101.972 68.7677 102.874 67.8635 103.982 67.8635H140.244V28.7994C140.244 27.9916 139.585 27.3307 138.779 27.3307Z" fill="#EBEBEB"/>
<path d="M15.814 106.958C15.814 107.531 16.2216 108 16.7201 108H102.983V72.3017C102.983 70.9873 103.913 69.9174 105.055 69.9174H135.814V39H15.814V106.958Z" fill="white"/>
<path d="M134.908 32H16.7201C16.2216 32 15.814 32.3964 15.814 32.8814V39.201H135.814V32.8814C135.814 32.3964 135.406 32 134.908 32Z" fill="white"/>
<rect x="18" y="34" width="116" height="72" fill="#505050"/>
<path opacity="0.067808" d="M18 106L133.966 34" stroke="#979797"/>
<path opacity="0.067808" d="M133.966 106L18 34" stroke="#979797"/>
<rect x="55" y="39" width="43" height="2" rx="1" fill="#FFC543"/>
<rect x="63" y="101" width="27" height="1" rx="0.5" fill="#6E89C4"/>
<rect x="61" y="61" width="31" height="14" rx="2" fill="#B9B9B9"/>
<rect x="69" y="80" width="15" height="4" rx="1" fill="#EA554E"/>
<path d="M155.703 67.5756C156.966 67.5756 158 68.6119 158 69.8785V139.476C158 140.743 156.966 141.779 155.703 141.779H103.982C102.719 141.779 101.685 140.743 101.685 139.476V69.8785C101.685 68.6119 102.719 67.5756 103.982 67.5756H155.703Z" fill="#F1F1F1"/>
<path d="M105.441 135.374C104.562 135.374 103.843 134.681 103.843 133.834V71.9149C103.843 71.0675 104.562 70.3742 105.441 70.3742H154.245C155.124 70.3742 155.843 71.0675 155.843 71.9149V133.834C155.843 134.681 155.124 135.374 154.245 135.374H105.441Z" fill="white"/>
<path d="M127.155 140C126.365 140 125.719 139.435 125.719 138.744V138.256C125.719 137.565 126.365 137 127.155 137H132.531C133.32 137 133.966 137.565 133.966 138.256V138.744C133.966 139.435 133.32 140 132.531 140H127.155Z" fill="#B1B1B1"/>
<rect x="106" y="72.5" width="48" height="61" fill="#505050"/>
<path opacity="0.067808" d="M109 130L150.602 74" stroke="#979797"/>
<path opacity="0.067808" d="M150.602 131L109 75" stroke="#979797"/>
<rect x="114" y="92" width="31" height="14" rx="2" fill="#B9B9B9"/>
<rect x="122" y="109" width="15" height="4" rx="1" fill="#EA554E"/>
<rect x="120" y="130" width="19" height="1" rx="0.5" fill="#6E89C4"/>
<rect x="121" y="75" width="18" height="2" rx="1" fill="#FFC543"/>
</svg>
