<svg width="419" height="290" viewBox="0 0 419 290" fill="none" xmlns="http://www.w3.org/2000/svg">
<g opacity="0.8">
<g opacity="0.65">
<path d="M105.08 1.09003V185.2H403.57" stroke="#CCCCCC" stroke-width="2.18"/>
<rect x="98" width="14.16" height="2.18" fill="#CCCCCC"/>
<rect x="402.48" y="178.12" width="2.18" height="14.16" fill="#CCCCCC"/>
<path fill-rule="evenodd" clip-rule="evenodd" d="M156.69 236.805C185.195 208.301 185.195 162.086 156.69 133.582C128.186 105.078 81.9713 105.078 53.4669 133.582C24.9626 162.086 24.9626 208.301 53.4669 236.805C81.9713 265.31 128.186 265.31 156.69 236.805Z" stroke="#CCCCCC" stroke-width="2.18"/>
<path fill-rule="evenodd" clip-rule="evenodd" d="M147.59 227.705C171.068 204.227 171.068 166.161 147.59 142.682C124.112 119.204 86.0457 119.204 62.5674 142.682C39.0891 166.161 39.0891 204.227 62.5674 227.705C86.0457 251.183 124.112 251.183 147.59 227.705Z" stroke="#CCCCCC" stroke-width="1.79"/>
<path d="M122.42 184.65V193.78" stroke="#CCCCCC" stroke-width="2.18"/>
<path d="M137.55 184.65V199.54" stroke="#CCCCCC" stroke-width="2.18"/>
<path d="M152.68 184.65V193.78" stroke="#CCCCCC" stroke-width="2.18"/>
<path d="M167.81 184.65V193.78" stroke="#CCCCCC" stroke-width="2.18"/>
<path d="M182.94 184.65V199.54" stroke="#CCCCCC" stroke-width="2.18"/>
<path d="M198.06 184.65V193.78" stroke="#CCCCCC" stroke-width="2.18"/>
<path d="M213.19 184.65V193.78" stroke="#CCCCCC" stroke-width="2.18"/>
<path d="M228.32 184.65V199.54" stroke="#CCCCCC" stroke-width="2.18"/>
<path d="M243.45 184.65V193.78" stroke="#CCCCCC" stroke-width="2.18"/>
<path d="M258.58 184.65V193.78" stroke="#CCCCCC" stroke-width="2.18"/>
<path d="M273.71 184.65V199.54" stroke="#CCCCCC" stroke-width="2.18"/>
<path d="M288.84 184.65V193.78" stroke="#CCCCCC" stroke-width="2.18"/>
<path d="M303.96 184.65V193.78" stroke="#CCCCCC" stroke-width="2.18"/>
<path d="M319.09 184.65V199.54" stroke="#CCCCCC" stroke-width="2.18"/>
<path d="M334.22 184.65V193.78" stroke="#CCCCCC" stroke-width="2.18"/>
<path d="M349.35 184.65V193.78" stroke="#CCCCCC" stroke-width="2.18"/>
<path d="M364.48 184.65V199.54" stroke="#CCCCCC" stroke-width="2.18"/>
<path d="M379.61 184.65V193.78" stroke="#CCCCCC" stroke-width="2.18"/>
</g>
<g opacity="0.65">
<path d="M155.28 268.48L411.2 12.57" stroke="#CCCCCC" stroke-width="2.18"/>
<path d="M163.12 254.12L171.39 262.39" stroke="#CCCCCC" stroke-width="2.18"/>
<path d="M176.83 240.41L190.32 253.9" stroke="#CCCCCC" stroke-width="2.18"/>
<path d="M190.54 226.7L198.81 234.97" stroke="#CCCCCC" stroke-width="2.18"/>
<path d="M204.25 212.99L212.52 221.26" stroke="#CCCCCC" stroke-width="2.18"/>
<path d="M217.96 199.28L231.45 212.77" stroke="#CCCCCC" stroke-width="2.18"/>
<path d="M231.67 185.57L239.94 193.84" stroke="#CCCCCC" stroke-width="2.18"/>
<path d="M245.38 171.86L253.64 180.13" stroke="#CCCCCC" stroke-width="2.18"/>
<path d="M259.09 158.15L272.58 171.65" stroke="#CCCCCC" stroke-width="2.18"/>
<path d="M272.8 144.44L281.06 152.71" stroke="#CCCCCC" stroke-width="2.18"/>
<path d="M286.5 130.73L294.77 139" stroke="#CCCCCC" stroke-width="2.18"/>
<path d="M300.21 117.02L313.71 130.52" stroke="#CCCCCC" stroke-width="2.18"/>
<path d="M313.92 103.31L322.19 111.58" stroke="#CCCCCC" stroke-width="2.18"/>
<path d="M327.63 89.6L335.9 97.87" stroke="#CCCCCC" stroke-width="2.18"/>
<path d="M341.34 75.89L354.84 89.39" stroke="#CCCCCC" stroke-width="2.18"/>
<path d="M355.05 62.18L363.32 70.45" stroke="#CCCCCC" stroke-width="2.18"/>
<path d="M368.76 48.47L377.03 56.74" stroke="#CCCCCC" stroke-width="2.18"/>
<path d="M382.47 34.76L395.97 48.26" stroke="#CCCCCC" stroke-width="2.18"/>
<path d="M396.18 21.05L404.45 29.32" stroke="#CCCCCC" stroke-width="2.18"/>
</g>
<g opacity="0.65">
<path d="M343.66 72.43L106.11 71.9" stroke="#CCCCCC" stroke-width="1.07"/>
<path d="M333.34 74.11L333.37 69.79" stroke="#CCCCCC" stroke-width="1.07"/>
<path d="M320.62 74.08L320.67 67.04" stroke="#CCCCCC" stroke-width="1.07"/>
<path d="M307.89 74.05L307.92 69.74" stroke="#CCCCCC" stroke-width="1.07"/>
<path d="M295.16 74.02L295.2 69.71" stroke="#CCCCCC" stroke-width="1.07"/>
<path d="M282.44 73.99L282.49 66.95" stroke="#CCCCCC" stroke-width="1.07"/>
<path d="M269.71 73.97L269.74 69.65" stroke="#CCCCCC" stroke-width="1.07"/>
<path d="M256.99 73.94L257.02 69.62" stroke="#CCCCCC" stroke-width="1.07"/>
<path d="M244.26 73.91L244.31 66.87" stroke="#CCCCCC" stroke-width="1.07"/>
<path d="M231.54 73.88L231.57 69.57" stroke="#CCCCCC" stroke-width="1.07"/>
<path d="M218.81 73.85L218.84 69.54" stroke="#CCCCCC" stroke-width="1.07"/>
<path d="M206.08 73.83L206.13 66.79" stroke="#CCCCCC" stroke-width="1.07"/>
<path d="M193.36 73.8L193.39 69.48" stroke="#CCCCCC" stroke-width="1.07"/>
<path d="M180.63 73.77L180.66 69.45" stroke="#CCCCCC" stroke-width="1.07"/>
<path d="M167.91 73.74L167.96 66.7" stroke="#CCCCCC" stroke-width="1.07"/>
<path d="M155.18 73.71L155.21 69.4" stroke="#CCCCCC" stroke-width="1.07"/>
<path d="M142.45 73.69L142.48 69.37" stroke="#CCCCCC" stroke-width="1.07"/>
<path d="M129.73 73.66L129.78 66.62" stroke="#CCCCCC" stroke-width="1.07"/>
<path d="M117 73.63L117.03 69.31" stroke="#CCCCCC" stroke-width="1.07"/>
</g>
<g opacity="0.65">
<path d="M113.43 34.78V264.05" stroke="#CCCCCC" stroke-width="2.18"/>
<path d="M109.74 39.12L113.43 35.42L117.13 39.12V35.98L113.43 32.29L109.74 35.98V39.12Z" fill="#CCCCCC"/>
<path d="M109.74 259.71L113.43 263.4L117.13 259.71V262.85L113.43 266.54L109.74 262.85V259.71Z" fill="#CCCCCC"/>
</g>
<g opacity="0.65">
<path d="M381.84 176.49H124.4" stroke="#CCCCCC" stroke-width="2.18"/>
<path d="M377.5 172.8L381.19 176.49L377.5 180.19H380.63L384.33 176.49L380.63 172.8H377.5Z" fill="#CCCCCC"/>
<path d="M128.74 172.8L125.05 176.49L128.74 180.19H125.61L121.91 176.49L125.61 172.8H128.74Z" fill="#CCCCCC"/>
</g>
<path opacity="0.65" d="M351.849 164.136C351.932 164.846 352.262 165.337 352.838 165.609C353.133 165.747 353.474 165.817 353.861 165.817C354.599 165.817 355.145 165.581 355.5 165.111C355.855 164.641 356.032 164.12 356.032 163.549C356.032 162.857 355.82 162.323 355.396 161.945C354.977 161.567 354.472 161.378 353.882 161.378C353.453 161.378 353.085 161.461 352.776 161.627C352.472 161.793 352.211 162.023 351.995 162.318L350.916 162.256L351.67 156.925H356.814V158.128H352.603L352.181 160.88C352.412 160.705 352.631 160.573 352.838 160.486C353.207 160.334 353.633 160.258 354.117 160.258C355.025 160.258 355.795 160.55 356.426 161.136C357.058 161.721 357.374 162.463 357.374 163.362C357.374 164.298 357.083 165.123 356.503 165.837C355.926 166.552 355.004 166.909 353.737 166.909C352.93 166.909 352.216 166.683 351.594 166.231C350.976 165.775 350.63 165.077 350.556 164.136H351.849ZM362.02 165.823C362.601 165.823 363.082 165.581 363.465 165.097C363.852 164.609 364.046 163.881 364.046 162.913C364.046 162.323 363.96 161.816 363.79 161.392C363.467 160.576 362.877 160.168 362.02 160.168C361.158 160.168 360.568 160.599 360.25 161.461C360.079 161.922 359.994 162.507 359.994 163.217C359.994 163.788 360.079 164.275 360.25 164.676C360.573 165.441 361.163 165.823 362.02 165.823ZM358.798 159.29H360.008V160.271C360.257 159.935 360.529 159.675 360.824 159.49C361.243 159.214 361.736 159.075 362.303 159.075C363.142 159.075 363.854 159.398 364.44 160.043C365.025 160.684 365.318 161.601 365.318 162.795C365.318 164.408 364.896 165.561 364.053 166.252C363.518 166.69 362.896 166.909 362.186 166.909C361.628 166.909 361.16 166.787 360.782 166.542C360.561 166.404 360.314 166.167 360.043 165.83V169.612H358.798V159.29ZM367.026 157.188H368.284V159.255H369.466V160.271H368.284V165.104C368.284 165.362 368.372 165.535 368.547 165.623C368.644 165.674 368.805 165.699 369.031 165.699C369.091 165.699 369.155 165.699 369.224 165.699C369.294 165.694 369.374 165.687 369.466 165.678V166.66C369.323 166.702 369.174 166.731 369.017 166.75C368.865 166.768 368.699 166.778 368.519 166.778C367.938 166.778 367.544 166.63 367.337 166.335C367.129 166.035 367.026 165.648 367.026 165.174V160.271H366.023V159.255H367.026V157.188Z" fill="#CCCCCC"/>
<path opacity="0.65" d="M122.098 98.936H125.569V100.215H122.098V98.936ZM127.581 96.5092V95.555C128.479 95.4674 129.106 95.3222 129.461 95.1194C129.816 94.912 130.081 94.4257 130.256 93.6606H131.238V103.52H129.911V96.5092H127.581ZM137.938 93.6191C139.219 93.6191 140.146 94.1469 140.717 95.2024C141.16 96.0183 141.381 97.136 141.381 98.5557C141.381 99.9017 141.181 101.015 140.78 101.895C140.199 103.158 139.249 103.79 137.931 103.79C136.742 103.79 135.857 103.273 135.276 102.241C134.792 101.379 134.55 100.222 134.55 98.7701C134.55 97.6454 134.695 96.6797 134.986 95.8731C135.529 94.3704 136.514 93.6191 137.938 93.6191ZM137.924 102.656C138.569 102.656 139.083 102.37 139.466 101.798C139.848 101.227 140.04 100.162 140.04 98.6041C140.04 97.4794 139.901 96.5553 139.625 95.8316C139.348 95.1033 138.811 94.7392 138.014 94.7392C137.281 94.7392 136.744 95.0849 136.403 95.7763C136.066 96.4631 135.898 97.4771 135.898 98.8185C135.898 99.8279 136.006 100.639 136.223 101.252C136.555 102.188 137.122 102.656 137.924 102.656Z" fill="#CCCCCC"/>
<path opacity="0.65" d="M80.9809 224.525V220.037L77.8073 224.525H80.9809ZM81.0016 228.03V225.61H76.6596V224.393L81.1952 218.101H82.2461V224.525H83.705V225.61H82.2461V228.03H81.0016ZM84.6246 228.03C84.6707 227.177 84.8458 226.435 85.15 225.804C85.4589 225.172 86.0581 224.598 86.9477 224.082L88.2752 223.315C88.8698 222.969 89.287 222.674 89.5267 222.43C89.9046 222.047 90.0936 221.609 90.0936 221.116C90.0936 220.54 89.9208 220.083 89.575 219.747C89.2293 219.406 88.7684 219.235 88.1922 219.235C87.3395 219.235 86.7495 219.558 86.4222 220.203C86.2471 220.549 86.1503 221.028 86.1318 221.641H84.8666C84.8804 220.779 85.0394 220.077 85.3436 219.533C85.8829 218.574 86.8348 218.095 88.1992 218.095C89.3331 218.095 90.1604 218.401 90.6813 219.014C91.2068 219.627 91.4695 220.309 91.4695 221.061C91.4695 221.853 91.1906 222.531 90.6329 223.093C90.3102 223.421 89.7318 223.817 88.8975 224.283L87.9502 224.808C87.4985 225.057 87.1436 225.294 86.8855 225.52C86.4245 225.921 86.1342 226.366 86.0143 226.855H91.4211V228.03H84.6246ZM94.7053 217.597C95.3644 217.597 95.8968 217.793 96.3024 218.184C96.7081 218.576 96.9109 219.159 96.9109 219.934C96.9109 220.62 96.7173 221.19 96.3301 221.641C95.9475 222.089 95.3829 222.312 94.6361 222.312C93.7834 222.312 93.1658 222.003 92.7832 221.386C92.5297 220.98 92.4029 220.514 92.4029 219.989C92.4029 219.468 92.532 218.996 92.7901 218.572C93.1911 217.922 93.8295 217.597 94.7053 217.597ZM94.6984 218.399C94.2927 218.399 93.9747 218.539 93.7442 218.82C93.5184 219.097 93.4054 219.498 93.4054 220.024C93.4054 220.434 93.4999 220.784 93.6889 221.074C93.8825 221.365 94.1867 221.51 94.6016 221.51C95.1178 221.51 95.4843 221.291 95.7009 220.853C95.83 220.59 95.8945 220.282 95.8945 219.927C95.8945 219.42 95.777 219.039 95.5419 218.786C95.3114 218.528 95.0302 218.399 94.6984 218.399Z" fill="#CCCCCC"/>
<g opacity="0.65">
<path d="M399.94 196.4V241.53" stroke="#CCCCCC" stroke-width="2.18"/>
<path d="M396.25 200.74L399.94 197.05L403.64 200.74V197.61L399.94 193.91L396.25 197.61V200.74Z" fill="#CCCCCC"/>
<path d="M396.25 237.19L399.94 240.89L403.64 237.19V240.33L399.94 244.03L396.25 240.33V237.19Z" fill="#CCCCCC"/>
</g>
<g opacity="0.65">
<path d="M127.548 20.3796C126.378 20.3796 125.527 20.0593 124.997 19.4186C124.472 18.7733 124.209 17.9897 124.209 17.0678H125.509C125.564 17.7085 125.684 18.174 125.868 18.4644C126.191 18.9853 126.774 19.2457 127.618 19.2457C128.272 19.2457 128.798 19.0706 129.194 18.7203C129.59 18.3699 129.789 17.9182 129.789 17.3651C129.789 16.6829 129.579 16.2058 129.159 15.9339C128.745 15.6619 128.166 15.526 127.424 15.526C127.341 15.526 127.256 15.5283 127.168 15.5329C127.085 15.5329 127 15.5352 126.912 15.5398V14.4405C127.041 14.4543 127.15 14.4635 127.237 14.4681C127.325 14.4727 127.419 14.475 127.521 14.475C127.986 14.475 128.369 14.4013 128.668 14.2538C129.194 13.9956 129.457 13.5347 129.457 12.871C129.457 12.3778 129.282 11.9975 128.931 11.7301C128.581 11.4628 128.173 11.3291 127.707 11.3291C126.878 11.3291 126.304 11.6057 125.986 12.1588C125.811 12.463 125.712 12.8963 125.689 13.4587H124.458C124.458 12.7212 124.605 12.0943 124.9 11.578C125.407 10.6562 126.299 10.1952 127.576 10.1952C128.586 10.1952 129.367 10.4211 129.92 10.8728C130.473 11.3199 130.75 11.9698 130.75 12.8226C130.75 13.431 130.586 13.9242 130.259 14.3022C130.056 14.5373 129.793 14.7216 129.471 14.8553C129.991 14.9982 130.397 15.2748 130.687 15.685C130.982 16.0906 131.13 16.5884 131.13 17.1784C131.13 18.1233 130.819 18.8931 130.196 19.4877C129.574 20.0823 128.692 20.3796 127.548 20.3796ZM135.603 14.3575C136.152 14.3575 136.58 14.2054 136.889 13.9012C137.198 13.5923 137.353 13.2259 137.353 12.8018C137.353 12.4331 137.205 12.0943 136.91 11.7855C136.615 11.4766 136.166 11.3222 135.562 11.3222C134.963 11.3222 134.529 11.4766 134.262 11.7855C133.995 12.0943 133.861 12.4561 133.861 12.871C133.861 13.3365 134.034 13.7006 134.379 13.9634C134.725 14.2261 135.133 14.3575 135.603 14.3575ZM135.679 19.2596C136.256 19.2596 136.733 19.1051 137.111 18.7963C137.493 18.4829 137.684 18.0173 137.684 17.3997C137.684 16.759 137.489 16.2727 137.097 15.9408C136.705 15.6089 136.202 15.443 135.589 15.443C134.995 15.443 134.509 15.6135 134.131 15.9546C133.757 16.2911 133.571 16.759 133.571 17.3582C133.571 17.8744 133.741 18.3215 134.082 18.6995C134.428 19.0729 134.96 19.2596 135.679 19.2596ZM133.909 14.8346C133.564 14.6871 133.294 14.5142 133.1 14.316C132.736 13.9473 132.554 13.4679 132.554 12.8779C132.554 12.1404 132.822 11.5066 133.356 10.9765C133.891 10.4464 134.649 10.1814 135.631 10.1814C136.58 10.1814 137.325 10.4326 137.864 10.935C138.403 11.4328 138.673 12.0159 138.673 12.6843C138.673 13.3019 138.516 13.8021 138.203 14.1846C138.028 14.4013 137.756 14.6133 137.387 14.8207C137.797 15.0097 138.12 15.2264 138.355 15.4706C138.793 15.9316 139.012 16.5308 139.012 17.2683C139.012 18.1395 138.719 18.8793 138.134 19.4877C137.548 20.0915 136.721 20.3935 135.652 20.3935C134.688 20.3935 133.872 20.133 133.204 19.6122C132.54 19.0867 132.208 18.3262 132.208 17.3305C132.208 16.7451 132.351 16.2404 132.637 15.8164C132.923 15.3877 133.347 15.0604 133.909 14.8346ZM149.286 15.2978C149.95 15.2978 150.517 15.5329 150.987 16.003C151.457 16.4732 151.692 17.0401 151.692 17.7039C151.692 18.3676 151.457 18.9346 150.987 19.4048C150.517 19.8749 149.95 20.11 149.286 20.11C148.618 20.11 148.049 19.8749 147.578 19.4048C147.108 18.9346 146.873 18.3676 146.873 17.7039C146.873 17.0401 147.108 16.4732 147.578 16.003C148.049 15.5329 148.618 15.2978 149.286 15.2978ZM148.284 10.2505H149.051L143.513 20.3727H142.746L148.284 10.2505ZM142.497 14.3437C142.893 14.3437 143.229 14.2054 143.506 13.9288C143.787 13.6476 143.928 13.3112 143.928 12.9194C143.928 12.5276 143.787 12.1934 143.506 11.9168C143.229 11.6356 142.893 11.4951 142.497 11.4951C142.105 11.4951 141.768 11.6333 141.487 11.9099C141.211 12.1865 141.072 12.523 141.072 12.9194C141.072 13.3112 141.211 13.6476 141.487 13.9288C141.768 14.2054 142.105 14.3437 142.497 14.3437ZM142.497 10.5064C143.165 10.5064 143.734 10.7437 144.204 11.2185C144.675 11.6887 144.91 12.2556 144.91 12.9194C144.91 13.5831 144.675 14.1501 144.204 14.6202C143.734 15.0904 143.165 15.3255 142.497 15.3255C141.833 15.3255 141.266 15.0904 140.796 14.6202C140.326 14.1501 140.091 13.5831 140.091 12.9194C140.091 12.2556 140.326 11.6887 140.796 11.2185C141.266 10.7437 141.833 10.5064 142.497 10.5064ZM149.286 19.1282C149.678 19.1282 150.012 18.9899 150.289 18.7133C150.57 18.4322 150.711 18.0957 150.711 17.7039C150.711 17.3121 150.57 16.9779 150.289 16.7014C150.012 16.4202 149.678 16.2796 149.286 16.2796C148.89 16.2796 148.551 16.4202 148.27 16.7014C147.993 16.9779 147.855 17.3121 147.855 17.7039C147.855 18.0957 147.993 18.4322 148.27 18.7133C148.551 18.9899 148.89 19.1282 149.286 19.1282Z" fill="#CCCCCC"/>
</g>
<path opacity="0.65" d="M416.542 203.421C416.542 204.308 416.177 204.949 415.446 205.345C414.882 205.651 414.108 205.804 413.126 205.804C412.194 205.804 411.424 205.665 410.814 205.388C409.94 204.986 409.503 204.329 409.503 203.416C409.503 202.593 409.861 201.981 410.575 201.579C411.172 201.244 411.972 201.076 412.977 201.076C413.756 201.076 414.424 201.177 414.982 201.378C416.022 201.754 416.542 202.435 416.542 203.421ZM410.288 203.411C410.288 203.858 410.486 204.214 410.881 204.479C411.277 204.743 412.014 204.876 413.092 204.876C413.871 204.876 414.51 204.78 415.011 204.589C415.515 204.397 415.767 204.026 415.767 203.474C415.767 202.966 415.528 202.595 415.049 202.359C414.574 202.126 413.872 202.009 412.944 202.009C412.245 202.009 411.684 202.084 411.259 202.234C410.612 202.464 410.288 202.856 410.288 203.411ZM408.69 207.039C408.728 207.259 408.883 207.413 409.154 207.503C409.298 207.551 409.436 207.575 409.57 207.575C409.593 207.575 409.613 207.573 409.633 207.57C409.648 207.57 409.668 207.567 409.69 207.56V207.039H410.733V208.063H409.767C409.387 208.063 409.054 207.986 408.766 207.833C408.479 207.68 408.302 207.415 408.235 207.039H408.69ZM409.69 209.259C410.28 209.291 410.794 209.412 411.231 209.623C411.668 209.836 412.065 210.251 412.422 210.867L412.953 211.785C413.193 212.197 413.397 212.486 413.566 212.652C413.831 212.913 414.134 213.044 414.475 213.044C414.874 213.044 415.19 212.924 415.423 212.685C415.659 212.446 415.777 212.127 415.777 211.728C415.777 211.138 415.553 210.73 415.107 210.503C414.867 210.382 414.536 210.315 414.111 210.302V209.426C414.708 209.436 415.194 209.546 415.571 209.757C416.234 210.13 416.566 210.789 416.566 211.733C416.566 212.518 416.354 213.09 415.93 213.451C415.506 213.814 415.033 213.996 414.513 213.996C413.965 213.996 413.496 213.803 413.107 213.417C412.88 213.194 412.606 212.794 412.283 212.216L411.92 211.561C411.748 211.248 411.583 211.002 411.427 210.824C411.149 210.505 410.842 210.304 410.503 210.221V213.963H409.69V209.259ZM411.437 215.618C410.945 215.676 410.606 215.904 410.417 216.303C410.322 216.507 410.274 216.743 410.274 217.011C410.274 217.521 410.436 217.899 410.762 218.145C411.087 218.391 411.448 218.513 411.843 218.513C412.322 218.513 412.692 218.367 412.953 218.073C413.215 217.783 413.346 217.434 413.346 217.025C413.346 216.729 413.288 216.473 413.174 216.26C413.059 216.049 412.899 215.869 412.695 215.719L412.738 214.972L416.427 215.494V219.054H415.595V216.14L413.69 215.848C413.812 216.008 413.902 216.159 413.963 216.303C414.068 216.558 414.121 216.853 414.121 217.188C414.121 217.816 413.918 218.349 413.513 218.786C413.108 219.223 412.595 219.442 411.972 219.442C411.325 219.442 410.754 219.241 410.259 218.839C409.765 218.44 409.518 217.802 409.518 216.925C409.518 216.366 409.674 215.872 409.987 215.441C410.302 215.014 410.786 214.775 411.437 214.724V215.618ZM414.815 220.494V221.346H414.088C414.34 221.55 414.523 221.735 414.638 221.901C414.832 222.185 414.93 222.507 414.93 222.868C414.93 223.276 414.829 223.605 414.628 223.854C414.513 223.994 414.344 224.122 414.121 224.236C414.395 224.428 414.598 224.653 414.729 224.911C414.863 225.17 414.93 225.46 414.93 225.782C414.93 226.471 414.681 226.94 414.183 227.189C413.915 227.323 413.555 227.39 413.102 227.39H409.69V226.495H413.25C413.591 226.495 413.826 226.409 413.954 226.237C414.081 226.068 414.145 225.86 414.145 225.615C414.145 225.276 414.032 224.985 413.805 224.739C413.579 224.496 413.201 224.375 412.671 224.375H409.69V223.5H413.035C413.382 223.5 413.636 223.458 413.796 223.375C414.035 223.244 414.154 223 414.154 222.643C414.154 222.318 414.028 222.021 413.776 221.753C413.524 221.488 413.068 221.356 412.408 221.356H409.69V220.494H414.815ZM410.733 228.864V229.864H409.69V228.864H410.733Z" fill="#CCCCCC"/>
</g>
</svg>
