<svg width="93" height="303" viewBox="0 0 93 303" fill="none" xmlns="http://www.w3.org/2000/svg">
<path d="M36.94 276C37.1379 279.446 36.7041 282.9 35.66 286.19C35.57 286.46 35.85 286.77 35.66 286.99C35.5135 287.129 35.3218 287.211 35.12 287.22C32.637 287.542 30.1203 287.498 27.65 287.09C27.4871 287.076 27.3313 287.017 27.2 286.92C27.09 286.81 26.97 286.64 27.02 286.5C28.36 283.19 28.83 277.05 29.09 275.36L36.94 276Z" fill="#ECECEC"/>
<path d="M19.14 287.14C14.526 289.278 9.80657 291.18 5 292.84C3.23 293.46 1.24 294.23 0.569996 295.98C-2.51 303.98 14.45 302.19 17.81 301.18C20.1006 300.317 22.4376 299.583 24.81 298.98C30.12 297.98 35.81 299.98 40.88 298.19C41.2737 298.102 41.626 297.883 41.88 297.57C42.0626 297.248 42.1428 296.879 42.11 296.51C42.11 296.13 42.11 295.76 42.11 295.4C42.2339 293.489 41.979 291.572 41.36 289.76C41.14 289.17 38.36 283.64 37.62 284.08C34.62 285.89 30.74 285.57 27.62 284.31C26.8526 283.915 26.0031 283.706 25.14 283.7C23.17 283.92 21 286.3 19.14 287.14Z" fill="#1D262D"/>
<path opacity="0.25" d="M0.549976 296C-2.53002 304 14.43 302.21 17.79 301.2C20.0806 300.337 22.4176 299.603 24.79 299C30.1 298 35.79 300 40.86 298.21C41.2537 298.122 41.606 297.903 41.86 297.59C42.0426 297.268 42.1228 296.899 42.09 296.53C42.09 296.15 42.09 295.78 42.09 295.42C42.01 295.87 41.47 296.14 41.03 296.28C38.2514 297.218 35.3322 297.671 32.4 297.62C30.66 297.62 28.93 297.38 27.19 297.37C23.19 297.37 19.33 298.37 15.42 299.07C11.51 299.77 7.41998 300.07 3.65998 298.63C2.30825 298.214 1.18498 297.264 0.549976 296Z" fill="#020202"/>
<path d="M50.29 278.51C50.1563 280.955 49.6539 283.365 48.8 285.66C48.7 285.92 48.6 286.23 48.8 286.45C48.9438 286.593 49.1372 286.676 49.34 286.68C51.6289 287.045 53.9612 287.045 56.25 286.68C56.4149 286.667 56.5719 286.605 56.7 286.5C56.7924 286.381 56.8512 286.239 56.87 286.09L58.34 279.35L50.29 278.51Z" fill="#ECECEC"/>
<path d="M76 151.58C75.37 180.51 72.49 216.31 67.39 244.79C65.21 256.99 62.8 269.48 59.39 281.48C55.69 281.58 51.98 281.48 48.28 281.28C52.28 249.09 51.64 209.61 53.12 177.28C50.66 194.09 48.19 217.82 45.73 234.63C44.61 242.26 42.8 249.43 41.33 256.97C41 259.08 38 280.7 37.3 280.78C34.6655 281.069 32.0025 280.961 29.4 280.46C28.8913 280.424 28.4155 280.195 28.07 279.82C27.8372 279.407 27.7459 278.93 27.81 278.46C28.1567 269.46 28.49 260.46 28.81 251.46C29.12 243.41 28.66 235.72 28.61 227.74C28.54 217.45 28.54 200.24 28.54 189.96V171.84C28.54 163.27 28.54 154.48 31.54 146.44L76 151.58Z" fill="#1D262D"/>
<path opacity="0.1" d="M67.4301 244.79C65.2501 256.99 62.8401 269.48 59.4301 281.48C55.7301 281.58 52.0201 281.48 48.3201 281.28C52.3201 249.09 51.6801 209.61 53.1601 177.28C52.3001 183.5 54.1601 189.68 54.9001 195.91C55.3401 199.4 55.5401 202.91 55.7301 206.44C56.6167 222.92 57.3301 239.407 57.8701 255.9C62.8001 246.39 63.8701 235.41 64.8701 224.73C66.0001 231.3 68.6101 238.2 67.4301 244.79Z" fill="#020202"/>
<path opacity="0.1" d="M28.8401 251.47C28.5001 260.47 28.1667 269.47 27.8401 278.47C27.7759 278.94 27.8672 279.417 28.1001 279.83C28.4456 280.205 28.9213 280.434 29.4301 280.47C32.0326 280.971 34.6955 281.079 37.3301 280.79C38.0501 280.71 40.9901 259.09 41.4101 256.94C42.8801 249.4 44.6901 242.23 45.8101 234.6C48.2701 217.79 50.7401 194.06 53.2001 177.25C50.0001 183.37 49.5301 191 48.6101 197.78C48.1301 201.28 47.3901 204.78 46.6101 208.2C44.5701 217.787 42.5167 227.387 40.4501 237C39.5201 241.32 38.5701 245.7 36.4501 249.55C33.789 243.705 31.9934 237.503 31.1201 231.14C31.4201 237.62 29.0901 244.93 28.8401 251.47Z" fill="#020202"/>
<path opacity="0.1" d="M43.89 155.4C41.01 155.027 38.1466 154.593 35.3 154.1C34.08 153.89 32.9 153.59 31.73 153.3C30.56 153.01 31.29 152.44 30.25 153.3C30.0048 153.494 29.7892 153.724 29.61 153.98C28.8555 158.97 28.521 164.014 28.61 169.06L34.89 170.3C36.35 170.59 37.82 170.88 39.3 171.12C42.1767 171.659 45.1076 171.85 48.03 171.69C48.6585 171.671 49.2784 171.539 49.86 171.3C50.3167 171.047 50.74 170.738 51.12 170.38L56.18 165.91C56.7902 165.199 57.7066 164.826 58.64 164.91L63.87 164.8C64.3307 164.747 64.7972 164.819 65.22 165.01C66.15 165.54 66.11 166.92 66.79 167.74C67.79 168.88 69.57 168.46 70.97 167.95L75.53 166.26C75.68 163.26 75.8 160.26 75.89 157.21C65.1946 157.334 54.5032 156.729 43.89 155.4Z" fill="#020202"/>
<path d="M76.0001 87.3C77.159 88.6453 78.0881 90.1724 78.7501 91.82L85.0501 105.38C86.4501 108.38 87.8701 111.51 87.8301 114.82C87.8524 115.237 87.7699 115.653 87.5901 116.03C87.092 116.694 86.3284 117.107 85.5001 117.16C82.7301 117.72 79.7301 118.03 77.1901 116.79C74.0601 115.27 72.4201 111.79 71.2801 108.55C68.7051 101.162 67.4756 93.372 67.6501 85.55C67.6347 85.2362 67.6858 84.9227 67.8001 84.63C69.0001 82 74.8601 86.16 76.0001 87.3Z" fill="#35DBED"/>
<path d="M60.21 81L70 83.77C70.4862 83.8708 70.9398 84.0907 71.32 84.41C71.7026 84.8589 71.9397 85.4134 72 86C75.3732 105.528 77.106 125.303 77.18 145.12C77.2885 146.735 77.0778 148.356 76.56 149.89C75.02 153.62 70.47 154.89 66.47 155.44C55.5847 156.788 44.5348 155.502 34.25 151.69C32.45 151.01 30.5 150.1 29.77 148.32C29.04 146.54 29.71 144.69 30.18 142.91C31.0733 139.077 31.46 135.144 31.33 131.21C31.2459 117.787 28.9554 104.47 24.55 91.79C23.72 89.41 22.82 86.79 23.7 84.46C24.82 81.46 28.33 80.17 31.48 79.6C37.2705 78.5618 43.2122 78.7184 48.94 80.06L60.21 81Z" fill="#ECECEC"/>
<path d="M55.28 90.77L55.93 82.36L47.47 81.89L50.67 92.01L54.04 98.93L55.28 90.77Z" fill="#ECECEC"/>
<path d="M40.0601 58.9C41.4001 65.74 42.6701 73.05 42.5001 80C42.4401 80.4672 42.5239 80.9416 42.7401 81.36C43.064 81.7424 43.5083 82.0034 44.0001 82.1C47.6144 83.1323 51.3788 83.5382 55.1301 83.3C55.5234 77.3 55.6734 71.27 55.5801 65.21L49.5801 62.55C48.7801 62.18 40.0701 59 40.0601 58.9Z" fill="#F7E7D5"/>
<path opacity="0.2" d="M41.46 65L55.46 67.65C55.46 67.65 52.11 75.24 41.46 65Z" fill="#020202"/>
<path d="M72.1099 64.06C68.9357 65.8482 65.4113 66.9264 61.7799 67.22C57.8832 67.54 53.9667 67.54 50.0699 67.22C46.0699 67 42.8599 66.37 39.5399 63.96C35.4499 60.96 34.0599 55.63 32.5899 50.79C32.4867 50.3414 32.2852 49.9213 31.9999 49.56C31.6571 49.2554 31.2692 49.0058 30.8499 48.82C27.9399 47.19 28.2599 42.59 27.9499 39.67C27.4802 35.2696 27.3698 30.8383 27.6199 26.42C27.8699 22.2 28.4999 17.84 30.8399 14.32C37.6999 4 51.4199 7 60.8299 10.89C62.3731 11.4573 63.8434 12.2058 65.2099 13.12C66.7204 14.279 67.985 15.7271 68.9299 17.38C72.0899 22.56 73.1899 28.7 74.2099 34.68C75.4097 40.995 76.2279 47.3766 76.6599 53.79C76.7899 56.34 76.7299 59.08 75.2599 61.16C74.414 62.3272 73.3429 63.3132 72.1099 64.06Z" fill="#F7E7D5"/>
<path d="M76.6601 53.79C76.7901 56.34 76.7301 59.08 75.2601 61.16C74.4142 62.3272 73.3431 63.3133 72.1101 64.06C68.9359 65.8483 65.4115 66.9264 61.7801 67.22C57.8833 67.54 53.9669 67.54 50.0701 67.22C46.0701 67 42.8601 66.37 39.5401 63.96C38.0826 62.8358 36.8767 61.4187 36.0001 59.8C34.7301 57.6 34.9101 56.3 35.0001 53.8C35.2395 48.9188 34.941 44.026 34.1101 39.21L36.2801 39.5C35.8852 44.1698 36.7848 48.8581 38.8801 53.05C40.5801 56.44 43.4501 59.66 47.2201 60.05C47.7408 60.1436 48.2777 60.0774 48.7601 59.86C49.3424 59.4822 49.7795 58.9182 50.0001 58.26C50.5519 56.8872 50.9543 55.459 51.2001 54C51.4301 52.67 51.6001 51.19 52.6101 50.29C53.4313 49.6873 54.4215 49.3584 55.4401 49.35C57.8869 49.1146 60.3539 49.1953 62.7801 49.59C64.3245 49.7027 65.7781 50.3621 66.8801 51.45C67.8801 52.62 68.0001 54.25 68.3901 55.72C68.7801 57.19 69.7501 58.78 71.2701 58.9C72.0687 58.9051 72.845 58.6369 73.4701 58.14C75.0912 56.9907 76.2139 55.2673 76.6101 53.32" fill="#826120"/>
<path opacity="0.1" d="M72.1101 64.06C68.9359 65.8482 65.4115 66.9264 61.7801 67.22C57.8833 67.54 53.9668 67.54 50.0701 67.22C46.0701 67 42.8601 66.37 39.5401 63.96C38.0825 62.8357 36.8766 61.4186 36.0001 59.8C34.7301 57.6 34.9101 56.3 35.0001 53.8C35.2301 57.31 37.7201 60.29 40.7801 62.03C43.9284 63.6268 47.3751 64.5497 50.9001 64.74C57.9698 65.4295 65.099 65.2009 72.1101 64.06Z" fill="#020202"/>
<path d="M72.32 13C71.6 13.36 70.88 13.67 70.21 13.93C73.3444 14.9618 76.7113 15.0591 79.9 14.21C74.1757 18.6411 67.364 21.4494 60.18 22.34C53.0186 23.224 45.7565 22.8141 38.74 21.13C39.5235 22.3773 39.9234 23.8273 39.89 25.3C39.7243 26.2221 39.3849 27.1044 38.89 27.9C37.79 29.9 35.89 32.23 35.89 34.59C36.0117 37.0204 36.6964 39.3893 37.89 41.51C36.316 41.5897 34.7966 40.9226 33.79 39.71C33.2 38.98 32.79 36.77 31.36 37.6C30.73 37.96 30.68 38.84 30.71 39.6C30.87 43.68 32.5 46.47 33.71 50.27C34.08 51.44 34.07 53.02 32.96 53.56C32.5663 53.7167 32.143 53.785 31.72 53.76H30.31C30.6027 53.629 30.8273 53.3818 30.9299 53.078C31.0324 52.7743 31.0034 52.4415 30.85 52.16C30.5122 51.6136 30.0538 51.1519 29.51 50.81C23.51 46.2 20.67 37.68 20.34 30.42C20.046 25.9666 20.6583 21.4999 22.14 17.29C23.6274 13.0658 26.4317 9.43075 30.14 6.91997C30.6099 6.67229 31.0249 6.33214 31.36 5.91997C31.5996 5.49071 31.8036 5.04255 31.97 4.57997C32.67 3.16997 34.35 2.57997 35.88 2.21997C42.7437 0.576805 49.8955 0.55284 56.77 2.14997C61.03 3.14997 65.21 4.76997 69.58 4.75997C72.8563 4.60901 76.095 3.99629 79.2 2.93997C79.2 2.93997 78.62 6.31997 78.5 6.64997C78.0844 7.96718 77.4038 9.18547 76.5 10.23C75.2567 11.3619 73.847 12.2961 72.32 13Z" fill="#826120"/>
<path opacity="0.2" d="M37.8499 41.53C36.6563 39.4094 35.9716 37.0404 35.8499 34.61C35.8499 32.25 37.7599 29.91 38.8499 27.92C39.3448 27.1245 39.6842 26.2422 39.8499 25.32C39.3327 26.4892 38.596 27.5483 37.6799 28.44C36.642 29.3376 35.6849 30.3248 34.8199 31.39C33.8461 33.0486 33.6699 35.0572 34.3399 36.86C35.1243 38.6723 36.3272 40.2727 37.8499 41.53Z" fill="#020202"/>
<path opacity="0.2" d="M79.9 14.23C74.1757 18.6611 67.364 21.4694 60.18 22.36C53.0185 23.244 45.7565 22.8341 38.74 21.15C40.195 19.9078 41.9818 19.1187 43.88 18.88C45.7339 18.7166 47.5993 18.7334 49.45 18.93C54.6733 19.4248 59.9297 19.4649 65.16 19.05C70.3852 18.6306 75.4365 16.9788 79.9 14.23V14.23Z" fill="#020202"/>
<path d="M33.6601 39.12C32.9104 37.8666 31.6953 36.9607 30.2801 36.6C28.8416 36.2646 27.3412 36.8145 26.4601 38C25.6001 39.3 25.8401 41 26.1501 42.53C26.3464 43.7283 26.682 44.8996 27.1501 46.02C27.6479 47.1381 28.4838 48.0719 29.5401 48.69C30.8877 49.4031 32.5065 49.3767 33.8301 48.62L33.6601 39.12Z" fill="#F7E7D5"/>
<path d="M57.9101 39.27C57.7413 38.1434 57.1383 37.1276 56.2301 36.44C55.3961 35.6896 54.22 35.4521 53.1601 35.82C52.1905 36.4004 51.5168 37.3691 51.3101 38.48C51.0915 39.5993 51.0275 40.7433 51.1201 41.88H51.0001C50.4155 40.7496 50.1558 39.4792 50.2501 38.21C50.3519 36.6754 51.2205 35.2955 52.5601 34.54C53.3643 34.1682 54.2802 34.1182 55.1201 34.4C55.8115 34.6353 56.4382 35.0291 56.9501 35.55C57.9622 36.4919 58.3933 37.9033 58.0801 39.25L57.9101 39.27Z" fill="#7F7061"/>
<path d="M66.55 38.37C66.3721 38.3058 66.2279 38.1723 66.15 38L65.92 37.58C65.7694 37.2907 65.6423 36.9897 65.54 36.68C65.3285 36.0358 65.2502 35.3554 65.31 34.68C65.3848 33.9169 65.6841 33.1931 66.17 32.6C66.6891 31.986 67.3892 31.552 68.17 31.36C69.0398 31.19 69.9403 31.4133 70.63 31.97C71.2085 32.4754 71.6257 33.1395 71.83 33.88C72.1574 35.1536 72.1263 36.493 71.74 37.75H71.63C71.6385 36.54 71.4459 35.3369 71.06 34.19C70.8536 33.6389 70.5093 33.15 70.06 32.77C69.5917 32.4088 68.9876 32.2733 68.41 32.4C67.2266 32.681 66.33 33.6487 66.14 34.85C66.0398 35.4425 66.0398 36.0475 66.14 36.64C66.14 36.94 66.24 37.23 66.31 37.53C66.38 37.83 66.41 38.17 66.64 38.3L66.55 38.37Z" fill="#7F7061"/>
<path opacity="0.2" d="M29.73 43.32C29.97 44.54 30.73 45.43 31.33 45.32C31.93 45.21 32.33 44.1 32.05 42.88C31.77 41.66 31.1 40.78 30.45 40.88C29.8 40.98 29.49 42.11 29.73 43.32Z" fill="#020202"/>
<path d="M64.6 53.5C63.9089 53.9658 63.1402 54.3045 62.33 54.5C61.511 54.7297 60.6581 54.8143 59.81 54.75C58.9408 54.672 58.0968 54.4167 57.33 54C56.5623 53.595 55.9245 52.9815 55.49 52.23L55.55 52.14C56.8324 53.0435 58.3357 53.5827 59.9 53.7C61.4681 53.7864 63.0408 53.6722 64.58 53.36L64.6 53.5Z" fill="#38312C"/>
<path d="M54.04 98.93L51.75 79.86L41.97 72.48L40.73 81.54L54.04 98.93Z" fill="#ECECEC"/>
<path d="M51.7499 79.86L46.1899 92.34L36.8799 78.74L41.8499 70.76L51.7499 79.86Z" fill="white"/>
<path d="M65.94 156.66L65.88 162.66C65.8505 163.166 65.4464 163.57 64.94 163.6L56.05 163.66C55.4978 163.66 55.05 163.212 55.05 162.66L55.29 156.5C55.3368 155.983 55.7711 155.588 56.29 155.59L65 155.72C65.2502 155.717 65.4908 155.815 65.6677 155.992C65.8446 156.169 65.9428 156.41 65.94 156.66Z" fill="#3F4A51"/>
<g opacity="0.2">
<path fill-rule="evenodd" clip-rule="evenodd" d="M64.2643 159.26C64.2499 158.784 64.2499 158.307 64.2499 157.83C64.2638 157.584 64.1748 157.343 64.0042 157.164C63.8336 156.986 63.5966 156.887 63.3499 156.89H61.9899L59.2599 156.8H58.5799C58.3311 156.767 58.0788 156.767 57.8299 156.8C57.5441 156.885 57.3033 157.079 57.1599 157.34C57.0881 157.474 57.0407 157.62 57.0199 157.77V158.13C56.9399 159.06 56.9399 159.91 56.9399 160.91C56.9917 161.228 57.1635 161.515 57.4199 161.71C57.6699 161.879 57.9689 161.96 58.2699 161.94H59.6299L62.3599 161.85H63.0399C63.2794 161.861 63.519 161.834 63.7499 161.77C63.985 161.674 64.1745 161.491 64.2799 161.26C64.3571 161.032 64.381 160.789 64.3499 160.55C64.3024 160.122 64.2774 159.691 64.2643 159.26Z" fill="white"/>
</g>
<path d="M69.5999 43.75L69.8199 44.02C70.0529 44.2852 70.2481 44.5813 70.3999 44.9C70.5355 45.2195 70.5355 45.5804 70.3999 45.9C69.9799 46.83 68.3999 46.83 67.5899 46.96C66.3717 47.1365 65.1392 47.1934 63.9099 47.13C63.8063 47.1308 63.7049 47.0993 63.6199 47.04C63.5557 46.9678 63.517 46.8764 63.5099 46.78C63.2499 45.34 61.8599 39.88 63.6999 39.26C64.8899 38.86 66.1999 40.26 66.9499 40.98C67.6999 41.7 68.7999 42.81 69.5999 43.75Z" fill="#D47569"/>
<path d="M47.9199 32.39C47.9199 32.39 50.9999 26.7 56.4499 29.67L55.5799 25.67C55.5799 25.67 46.5599 25.22 47.9199 32.39Z" fill="#966F20"/>
<path d="M65.2301 27.81C65.2301 27.81 68.6901 24.35 71.5301 28.18C71.5301 28.18 70.6701 22.37 65.1001 24.6L65.2301 27.81Z" fill="#966F20"/>
<path d="M55.2799 90.77L57.6899 77.84L55.5199 74.38L55.1499 83.16L55.2799 90.77Z" fill="white"/>
<path d="M57.6899 77.84L60.0299 89.38L55.8899 85.42L57.6899 77.84Z" fill="#E3E3E2"/>
<path d="M50.6999 82.18C50.6999 82.18 55.4699 81.97 56.6999 80.83C57.7232 84.2575 57.6251 87.9222 56.4199 91.29C55.0802 92.2489 53.3828 92.5605 51.7899 92.14L49.1599 85.53L50.6999 82.18Z" fill="#0062CB"/>
<path d="M51.8401 92.14L55.6701 134.46L60.9401 158.03L64.2401 133.3L56.4701 91.29L51.8401 92.14Z" fill="#0062CB"/>
<path d="M56.0801 76.46C57.3801 77.12 58.6801 77.74 60.0001 78.34C63.9295 80.1356 68.0214 81.5521 72.2201 82.57C72.8883 82.6905 73.5331 82.9166 74.1301 83.24C74.5415 83.5205 74.9117 83.8571 75.2301 84.24C77.4763 86.8972 79.2978 89.8859 80.6301 93.1C83.5342 99.4182 85.896 105.972 87.6901 112.69C87.9401 113.62 88.1001 114.82 87.3201 115.39C86.8976 115.64 86.4102 115.758 85.9201 115.73C84.1701 115.81 80.0201 115.17 78.5501 116.29C77.0801 117.41 77.6301 121.98 77.5501 123.78C77.365 127.271 77.365 130.769 77.5501 134.26C78.0104 142.392 79.3995 150.444 81.6901 158.26C81.8913 158.745 81.9264 159.283 81.7901 159.79C81.6008 160.202 81.2949 160.55 80.9101 160.79C76.9366 163.725 72.4595 165.907 67.7001 167.23C66.0201 163.91 65.4801 160.14 65.0301 156.44C64.4801 151.9 63.5801 147.44 62.7701 142.92C61.758 136.298 61.1801 129.617 61.0401 122.92C60.9969 122.588 60.9969 122.252 61.0401 121.92C61.125 121.593 61.2492 121.277 61.4101 120.98C62.4801 118.68 62.5701 116.24 62.8301 113.75C63.2101 109.24 63.18 104.705 62.7401 100.2C62.1401 92.72 60.5301 84.69 56.4701 78.2L56.0801 76.46Z" fill="#1D262D"/>
<path opacity="0.2" d="M61.5001 120.86C62.5701 118.56 62.6601 116.12 62.9201 113.63C63.3001 109.12 63.27 104.585 62.8301 100.08C62.2301 92.6 60.6201 84.57 56.5601 78.08L56.0801 76.42C57.3801 77.08 58.6801 77.7 60.0001 78.3L68.0001 91.4L64.7001 92.22L68.0001 94.57C68.0001 94.57 68.6601 110.89 62.8901 119.79L61.5001 120.86Z" fill="#020202"/>
<path d="M39.51 74C39.51 74 51.05 110.76 58.63 122.79C58.63 122.79 60.03 147.52 57.81 160.13C57.81 160.13 56.08 167.05 49.65 170.26C49.65 170.26 31.35 169.52 25.17 164.33L30.86 137.87C30.86 137.87 28.64 101.74 23.2 96.3C23.2 96.3 15.53 84.18 26.41 78.74C29.3981 78.2708 32.3324 77.5071 35.17 76.46C36.7534 75.9088 38.2238 75.0754 39.51 74Z" fill="#1D262D"/>
<path opacity="0.2" d="M58.6299 122.75C51.0499 110.72 39.5099 74 39.5099 74C38.2268 75.0896 36.7562 75.9367 35.1699 76.5L38.9999 92.59L42.4599 93.08L39.9999 96.38C39.9999 96.38 44.6099 108.08 56.8099 121.6L58.6299 122.75Z" fill="#020202"/>
<path opacity="0.2" d="M73.3701 101.41C73.1899 98.8952 72.5811 96.4297 71.5701 94.12V103.66L73.3701 101.41Z" fill="#020202"/>
<path d="M83.17 120.8C78.39 121.27 73.73 119.4 69.29 117.57L57.69 112.78L51.79 110.34C50.196 109.535 48.5196 108.904 46.79 108.46C46.3086 108.433 45.8369 108.314 45.4 108.11C45.0072 107.806 44.7203 107.386 44.58 106.91C44.1478 105.765 43.9538 104.543 44.01 103.32C43.9936 102.983 44.1166 102.654 44.35 102.41C44.5817 102.263 44.858 102.203 45.13 102.24C46.51 102.24 47.64 103.02 49.01 103.24C50.15 103.46 51.32 103.54 52.46 103.78C54.6133 104.253 56.7766 104.657 58.95 104.99C63.2256 105.653 67.5362 106.067 71.86 106.23C75.38 106.36 79.39 106.01 82.63 107.68C84.63 108.68 85.55 110.68 86.55 112.59C88.5 116.36 88.09 120.32 83.17 120.8Z" fill="#F7E7D5"/>
<path opacity="0.2" d="M67.58 107.92L72.22 106.28C74.6669 106.228 77.1141 106.365 79.54 106.69L79.82 106.77C78.22 107.86 76.11 107.77 74.25 108.26C73.2747 108.584 72.3363 109.01 71.45 109.53L62.02 114.53L59.16 113.35C58.92 112.9 58.68 112.45 58.46 112C61.317 110.263 64.381 108.893 67.58 107.92Z" fill="#020202"/>
<path d="M51.5601 101.94C51.4801 105.04 51.4101 108.15 51.3401 111.25L62.5401 116.25C68.4001 118.89 74.4701 121.58 80.8901 121.66C82.3724 121.764 83.8558 121.474 85.1901 120.82C87.6101 119.46 88.5401 116.22 87.8401 113.53C87.2301 111.16 85.2201 107.97 82.7401 107.34C79.6701 106.57 76.0901 106.53 72.9301 106.01C71.0001 105.75 51.5401 102.78 51.5601 101.94Z" fill="#1D262D"/>
<path d="M51.5499 102.71L49.6899 102.27L49.7799 107.33L51.4299 107.2L51.5499 102.71Z" fill="white"/>
<path opacity="0.2" d="M62.13 114.92C59.07 116.453 55.98 117.93 52.86 119.35C49.86 120.71 46.19 122.28 42.86 122.15C39.963 121.903 37.2713 120.553 35.34 118.38C33.4428 116.217 31.8667 113.792 30.66 111.18C29.443 108.962 28.4803 106.614 27.79 104.18C29.16 104.97 30.6 105.54 32.04 106.18C38.04 108.89 45.04 110.33 51.49 111.07C55.0994 111.516 58.745 111.594 62.37 111.3C65.48 111.03 69.98 110.8 72.76 109.3C69.2534 111.26 65.71 113.133 62.13 114.92Z" fill="#020202"/>
<path d="M44.52 102.92C44.1931 101.72 43.6583 100.586 42.94 99.57C40.9311 96.4823 39.0918 93.2876 37.43 90C36.57 88.3 35.76 86.58 34.81 84.92C34.4466 84.1662 34.0006 83.4552 33.48 82.8C32.8612 82.1318 32.1386 81.5678 31.34 81.13C29.4838 80.1804 27.2645 80.2792 25.5 81.39C24.2846 82.2231 23.3502 83.4051 22.82 84.78C22.3065 86.1339 21.9932 87.5556 21.89 89C21.7972 91.2126 22.2506 93.4141 23.21 95.41C26.86 104.41 30.63 113.68 39.3 118.88C40.6722 119.802 42.2279 120.416 43.86 120.68C46.22 120.94 48.53 119.96 50.7 119L73.27 109.07C73.1126 106.571 71.7116 104.317 69.54 103.07C69.0574 102.776 68.5131 102.598 67.95 102.55C67.1471 102.594 66.3659 102.827 65.67 103.23C59.7304 106.033 53.2377 107.468 46.67 107.43C45.84 107.43 44.85 104.17 44.67 103.54C44.62 103.32 44.57 103.11 44.52 102.92Z" fill="#1D262D"/>
<path d="M44.6199 99C45.0069 99.198 45.2749 99.5702 45.3399 100C45.3129 100.384 45.0679 100.719 44.7099 100.86C44.3594 100.996 43.986 101.064 43.6099 101.06L39.9799 101.21C39.5499 101.283 39.108 101.194 38.7399 100.96C37.5299 99.96 38.4699 98.53 39.5699 98.24C41.2871 97.8066 43.1063 98.0804 44.6199 99Z" fill="#F7E7D5"/>
<path d="M43.58 96C43.88 96.23 44.2 96.53 44.18 96.91C44.1397 97.2246 43.9277 97.4906 43.63 97.6C43.3407 97.7007 43.0363 97.7514 42.73 97.75L39.32 97.88C38.782 97.9778 38.2289 97.8229 37.82 97.46C37.52 97.0563 37.52 96.5037 37.82 96.1C38.1453 95.7272 38.5787 95.465 39.06 95.35C40.5834 94.8258 42.266 95.0678 43.58 96Z" fill="#F7E7D5"/>
<path d="M45.8301 101.38C46.289 101.72 46.5448 102.27 46.5101 102.84C46.4937 103.059 46.4059 103.266 46.2601 103.43C45.9532 103.685 45.5574 103.808 45.1601 103.77C44.0163 103.807 42.8714 103.783 41.7301 103.7C41.4396 103.698 41.1529 103.634 40.8901 103.51C40.5303 103.214 40.289 102.799 40.2101 102.34C40.1904 102.254 40.1904 102.166 40.2101 102.08C40.2295 101.995 40.2749 101.918 40.3401 101.86C40.8448 101.337 41.5173 101.008 42.2401 100.93C43.2601 100.76 44.9301 100.69 45.8301 101.38Z" fill="#F7E7D5"/>
<path d="M44.15 104.9C43.5982 104.959 43.0848 105.21 42.7 105.61C42.5728 105.768 42.5118 105.968 42.53 106.17C42.6 106.55 43.01 106.74 43.38 106.83C44.5166 107.107 45.714 106.984 46.77 106.48C47.0409 106.384 47.261 106.182 47.38 105.92C47.89 104.38 44.77 104.76 44.15 104.9Z" fill="#F7E7D5"/>
<path d="M79.32 99.51C79.32 99.51 71.32 75.65 72.4 66.88C72.4 66.88 63.5 65.88 64.49 73.8L84.49 130.66C84.49 130.66 87.28 132.06 89.67 130.87C91.0583 130.088 92.0503 128.755 92.4 127.2C92.4 127.2 81.05 107.42 79.32 99.51Z" fill="white"/>
<path d="M92.42 127.2C92.0703 128.755 91.0783 130.088 89.69 130.87C87.3 132.06 84.51 130.66 84.51 130.66C84.51 130.66 85.51 124.01 92.33 126.95L92.42 127.2Z" fill="#E3E3E2"/>
<path d="M75.49 75L79.49 131.24C81.7619 132.811 84.8056 132.659 86.91 130.87C86.91 130.87 80.31 104 81.3 98.65C81.3 98.65 79.94 78.65 81.67 74.91C81.67 74.91 79.32 72.93 75.49 75Z" fill="#F6F6F6"/>
<path d="M69.72 103.26C69.83 104.26 71.64 106.47 72.22 107.26C72.8 108.05 74.28 108.12 75.29 108.58C77.4 109.58 79.85 109.03 82.1 108.5C82.5483 108.441 82.9711 108.258 83.32 107.97C84.08 107.22 83.49 105.79 82.49 105.43C83.3586 105.209 84.0884 104.621 84.49 103.82C84.78 103 84.12 101.87 83.26 102.06C83.7424 101.67 84.1375 101.182 84.42 100.63C84.6932 100.062 84.6028 99.3862 84.19 98.91C83.5777 98.4899 82.8035 98.3825 82.1 98.62C82.3496 98.2184 82.4973 97.7618 82.53 97.29C82.544 96.8092 82.2623 96.3689 81.82 96.18C81.5607 96.1152 81.2894 96.1152 81.03 96.18C79.8734 96.3921 78.7589 96.7906 77.73 97.36C76.9625 97.8698 76.1279 98.2703 75.25 98.55C74.3403 98.8276 73.3568 98.4685 72.84 97.67C72.39 98.62 71.92 99.55 71.41 100.46C70.788 101.262 70.2296 102.111 69.74 103C69.715 103.084 69.7082 103.173 69.72 103.26Z" fill="#F7E7D5"/>
<path d="M68.6899 103L70.4699 102.31C70.4699 102.31 75.7999 105.39 73.9399 108.21L73.8199 108.61L72.9999 109L68.6899 103Z" fill="white"/>
<path d="M66.4599 287.06C71.0699 289.19 75.7999 291.06 80.6099 292.76C82.3799 293.37 84.3699 294.14 85.0499 295.89C88.1199 303.89 71.1599 302.11 67.7999 301.09C65.5077 300.232 63.171 299.497 60.7999 298.89C55.4999 297.89 49.7999 299.89 44.7299 298.1C44.3563 298.003 44.0234 297.789 43.7799 297.49C43.604 297.166 43.5242 296.798 43.5499 296.43C43.5499 296.05 43.5499 295.67 43.5499 295.31C43.425 293.398 43.6834 291.481 44.3099 289.67C44.5299 289.08 47.3099 283.56 48.0399 283.99C51.0399 285.8 54.9199 285.48 58.0999 284.23C58.8634 283.825 59.7155 283.615 60.5799 283.62C62.4199 283.83 64.6399 286.22 66.4599 287.06Z" fill="#1D262D"/>
<path opacity="0.25" d="M85.0501 295.89C88.1201 303.89 71.1601 302.11 67.8001 301.09C65.5079 300.232 63.1712 299.497 60.8001 298.89C55.5001 297.89 49.8001 299.89 44.7301 298.1C44.3565 298.003 44.0236 297.789 43.7801 297.49C43.6042 297.166 43.5244 296.798 43.5501 296.43C43.5501 296.05 43.5501 295.67 43.5501 295.31C43.6301 295.76 44.1801 296.03 44.6101 296.18C47.3904 297.11 50.3088 297.56 53.2401 297.51C54.9801 297.51 56.7201 297.27 58.4501 297.26C62.4501 297.26 66.3101 298.26 70.2301 298.96C74.1501 299.66 78.2301 299.96 81.9801 298.53C83.3164 298.098 84.4228 297.146 85.0501 295.89Z" fill="#020202"/>
</svg>
