<svg width="224" height="78" viewBox="0 0 224 78" fill="none" xmlns="http://www.w3.org/2000/svg">
<mask id="path-1-inside-1" fill="white">
<path fill-rule="evenodd" clip-rule="evenodd" d="M43.1881 37.5865C45.4618 36.4772 47.3824 34.9983 48.95 33.15C51.1833 30.5167 52.3 27.2 52.3 23.2C52.3 19.3333 51.5333 16.2334 50 13.9C48.4667 11.5667 46.4667 9.75003 44 8.45002C41.5333 7.15002 38.75 6.28336 35.65 5.85002C32.55 5.41669 29.4667 5.20002 26.4 5.20002H2H0V7.20002V74V76H2H29C32.1334 76 35.2833 75.6667 38.45 75C41.6167 74.3334 44.4667 73.2334 47 71.7C49.5333 70.1667 51.6 68.15 53.2 65.65C54.8 63.15 55.6 60.0334 55.6 56.3C55.6 54.0333 55.2333 51.9 54.5 49.9C53.7667 47.9 52.7167 46.15 51.35 44.65C49.9833 43.15 48.35 41.9167 46.45 40.95C45.4763 40.4546 44.4457 40.0424 43.3582 39.7134C42.3433 39.4063 41.2788 39.1716 40.1647 39.0094C40.1432 39.0062 40.1216 39.0031 40.1 39V38.8C40.11 38.7969 40.1199 38.7939 40.1299 38.7908C41.2118 38.4548 42.2313 38.0534 43.1881 37.5865ZM2 74H29C31.9904 74 35.0023 73.682 38.038 73.0429C41.0048 72.4183 43.6406 71.3955 45.9644 69.989C48.2352 68.6146 50.0801 66.8147 51.5155 64.5719C52.8623 62.4674 53.6 59.7493 53.6 56.3C53.6 54.2531 53.2697 52.3542 52.6222 50.5885C51.9736 48.8195 51.0551 47.296 49.8716 45.997C48.6757 44.6844 47.2389 43.5953 45.5431 42.7326C43.8584 41.8755 41.9559 41.2855 39.8172 40.9799C38.8319 40.8392 38.1 39.9953 38.1 39V38.8C38.1 37.923 38.6714 37.1482 39.5094 36.8892C42.854 35.8554 45.4647 34.1674 47.4247 31.8564C49.3039 29.6406 50.3 26.8055 50.3 23.2C50.3 19.5786 49.5798 16.9024 48.3286 14.9984C46.9806 12.9471 45.2347 11.3615 43.0675 10.2193C40.829 9.03957 38.2719 8.23597 35.3731 7.83077C32.3629 7.40999 29.3722 7.20002 26.4 7.20002H2V74ZM33.6 31.8C34.5333 31.2 35.2833 30.4 35.85 29.4C36.4167 28.4 36.7 27.2 36.7 25.8C36.7 24.3334 36.3833 23.1167 35.75 22.15C35.1167 21.1834 34.3 20.4334 33.3 19.9C32.3 19.3667 31.1667 18.9834 29.9 18.75C28.6333 18.5167 27.4 18.4 26.2 18.4H17.6H15.6V20.4V31.5V33.5H17.6H26.9C28.1 33.5 29.2833 33.3667 30.45 33.1C31.6167 32.8334 32.6667 32.4 33.6 31.8ZM17.6 31.5H26.9C27.9504 31.5 28.9843 31.3835 30.0044 31.1503C30.963 30.9312 31.7948 30.5829 32.5185 30.1177C33.1692 29.6994 33.6972 29.1424 34.11 28.414C34.4727 27.7738 34.7 26.9294 34.7 25.8C34.7 24.6185 34.4463 23.8096 34.0771 23.2461C33.6239 22.5544 33.0566 22.0369 32.3588 21.6647C31.5631 21.2403 30.6293 20.918 29.5377 20.7169C28.3819 20.504 27.27 20.4 26.2 20.4H17.6V31.5ZM17.6 60.8H29.6C30.6508 60.8 31.7258 60.6834 32.8273 60.4452C33.828 60.2288 34.7096 59.8566 35.4906 59.3359C36.2335 58.8407 36.8447 58.1968 37.3303 57.3789C37.7414 56.6865 38 55.7583 38 54.5C38 53.1708 37.6728 52.3003 37.1932 51.7055C36.575 50.9389 35.7969 50.353 34.8239 49.9433C33.731 49.4831 32.5358 49.1598 31.2298 48.9817C29.8381 48.7919 28.5627 48.7 27.4 48.7H17.6V60.8ZM17.6 62.8H29.6C30.8 62.8 32.0167 62.6667 33.25 62.4C34.4833 62.1334 35.6 61.6667 36.6 61C37.6 60.3334 38.4167 59.4667 39.05 58.4C39.6833 57.3334 40 56.0334 40 54.5C40 52.8333 39.5833 51.4834 38.75 50.45C37.9167 49.4167 36.8667 48.6334 35.6 48.1C34.3333 47.5667 32.9667 47.2 31.5 47C30.0333 46.8 28.6667 46.7 27.4 46.7H17.6H15.6V48.7V60.8V62.8H17.6ZM95.3 72.636V74V76H97.3H107.7H109.7V74V29.4V27.4H107.7H96.7H94.7V29.4V51.6C94.7 53.2 94.6 54.7333 94.4 56.2C94.2 57.6667 93.7833 58.9834 93.15 60.15C92.5167 61.3167 91.6 62.25 90.4 62.95C89.2 63.65 87.6333 64 85.7 64C83.7667 64 82.2833 63.6 81.25 62.8C80.2167 62 79.45 60.9667 78.95 59.7C78.45 58.4333 78.15 57.05 78.05 55.55C77.95 54.05 77.9 52.6 77.9 51.2V29.4V27.4H75.9H64.9H62.9V29.4V54.2C62.9 57.4667 63.1167 60.5 63.55 63.3C63.9833 66.1 64.85 68.5333 66.15 70.6C67.45 72.6667 69.2833 74.2834 71.65 75.45C74.0167 76.6167 77.1 77.2 80.9 77.2C82.7 77.2 84.3667 76.9667 85.9 76.5C87.4333 76.0334 88.8 75.4334 90 74.7C91.2 73.9667 92.2167 73.1334 93.05 72.2C93.1349 72.1049 93.2182 72.0099 93.3 71.9148C94.021 71.0765 94.621 70.2383 95.1 69.4H95.3V69.5143V71.4V72.636ZM64.9 29.4V54.2C64.9 57.3794 65.111 60.3093 65.5265 62.9941C65.9247 65.5673 66.7097 67.7336 67.8429 69.5351C68.9301 71.2635 70.4716 72.6393 72.5343 73.6561C74.5321 74.6409 77.2813 75.2 80.9 75.2C82.5266 75.2 83.9947 74.9893 85.3177 74.5867C86.7114 74.1625 87.9197 73.6274 88.9571 72.9935C90.0103 72.3498 90.8703 71.6383 91.5581 70.868C92.313 70.0225 92.9098 69.2017 93.3635 68.4077C93.7196 67.7846 94.3823 67.4 95.1 67.4H95.3C96.4046 67.4 97.3 68.2955 97.3 69.4V74H107.7V29.4H96.7V51.6C96.7 53.2832 96.5948 54.9072 96.3817 56.4702C96.1527 58.1491 95.669 59.7019 94.9077 61.1042C94.0915 62.6077 92.9084 63.8022 91.4077 64.6776C89.805 65.6125 87.8553 66 85.7 66C83.5273 66 81.5422 65.5556 80.0257 64.3815C78.6958 63.3519 77.7159 62.0207 77.0897 60.4344C76.5064 58.9566 76.1668 57.368 76.0544 55.6831C75.9517 54.142 75.9 52.6475 75.9 51.2V29.4H64.9ZM133.5 29.4H122.5V74H133.5V29.4ZM122.5 27.4H120.5V29.4V74V76H122.5H133.5H135.5V74V29.4V27.4H133.5H122.5ZM123.264 7.36424C121.939 8.68991 121.3 10.2315 121.3 12.1C121.3 13.9686 121.939 15.5101 123.264 16.8358C124.59 18.1615 126.131 18.8 128 18.8C129.869 18.8 131.41 18.1615 132.736 16.8358C134.061 15.5101 134.7 13.9686 134.7 12.1C134.7 10.2315 134.061 8.68991 132.736 7.36424C131.41 6.03857 129.869 5.40002 128 5.40002C126.131 5.40002 124.59 6.03857 123.264 7.36424ZM121.85 5.95002C120.15 7.65003 119.3 9.70001 119.3 12.1C119.3 14.5 120.15 16.55 121.85 18.25C123.55 19.95 125.6 20.8 128 20.8C130.4 20.8 132.45 19.95 134.15 18.25C135.85 16.55 136.7 14.5 136.7 12.1C136.7 9.70001 135.85 7.65003 134.15 5.95002C132.45 4.25002 130.4 3.40002 128 3.40002C125.6 3.40002 123.55 4.25002 121.85 5.95002ZM159.5 2.40002H148.5V74H159.5V2.40002ZM148.5 0.400024H146.5V2.40002V74V76H148.5H159.5H161.5V74V2.40002V0.400024H159.5H148.5ZM209.5 72.5255V74V76H211.5H221.3H223.3V74V2.40002V0.400024H221.3H210.3H208.3V2.40002V29.7444V30.6V32.4515V32.6H208.1C207.549 31.8581 206.949 31.1853 206.3 30.5815C204.908 29.2865 203.292 28.3093 201.45 27.65C198.75 26.6834 195.833 26.2 192.7 26.2C189.233 26.2 186.133 26.9167 183.4 28.35C180.667 29.7834 178.35 31.7 176.45 34.1C174.55 36.5 173.083 39.25 172.05 42.35C171.017 45.45 170.5 48.7 170.5 52.1C170.5 55.7667 171.067 59.1333 172.2 62.2C173.333 65.2667 174.95 67.9167 177.05 70.15C179.15 72.3834 181.667 74.1167 184.6 75.35C187.533 76.5834 190.8 77.2 194.4 77.2C196.067 77.2 197.683 76.9667 199.25 76.5C200.817 76.0334 202.25 75.4334 203.55 74.7C204.85 73.9667 205.983 73.15 206.95 72.25C207.14 72.0727 207.324 71.896 207.5 71.72C208.218 71.0026 208.818 70.2959 209.3 69.6H209.5V69.7385V71.6V72.5255ZM210.3 2.40002V32.6C210.3 33.7046 209.405 34.6 208.3 34.6H208.1C207.467 34.6 206.872 34.3006 206.495 33.7927C204.993 31.7718 203.099 30.3646 200.776 29.533C198.311 28.6506 195.625 28.2 192.7 28.2C189.516 28.2 186.742 28.8559 184.329 30.1213C181.841 31.4258 179.743 33.1627 178.018 35.3414C176.272 37.5472 174.912 40.0881 173.947 42.9825C172.985 45.8704 172.5 48.9062 172.5 52.1C172.5 55.5586 173.034 58.6873 174.076 61.5067C175.123 64.339 176.603 66.7546 178.507 68.78C180.408 70.8017 182.69 72.3772 185.375 73.5064C188.033 74.6238 191.031 75.2 194.4 75.2C195.877 75.2 197.301 74.9936 198.679 74.5833C200.116 74.1553 201.409 73.6113 202.567 72.9581C203.748 72.2923 204.75 71.566 205.587 70.7862C206.474 69.9608 207.155 69.1847 207.656 68.4616C208.029 67.922 208.644 67.6 209.3 67.6H209.5C210.605 67.6 211.5 68.4955 211.5 69.6V74H221.3V2.40002H210.3ZM207.5 51.7C207.5 48.4375 206.578 45.9889 204.883 44.1593C203.246 42.3922 200.881 41.4 197.5 41.4C194.119 41.4 191.754 42.3922 190.117 44.1593C188.422 45.9889 187.5 48.4375 187.5 51.7C187.5 54.9625 188.422 57.4111 190.117 59.2408C191.754 61.0079 194.119 62 197.5 62C200.881 62 203.246 61.0079 204.883 59.2408C206.578 57.4111 207.5 54.9625 207.5 51.7ZM206.35 42.8C208.45 45.0667 209.5 48.0333 209.5 51.7C209.5 55.3667 208.45 58.3333 206.35 60.6C204.25 62.8667 201.3 64 197.5 64C193.7 64 190.75 62.8667 188.65 60.6C186.55 58.3333 185.5 55.3667 185.5 51.7C185.5 48.0333 186.55 45.0667 188.65 42.8C190.75 40.5333 193.7 39.4 197.5 39.4C201.3 39.4 204.25 40.5333 206.35 42.8Z"/>
</mask>
<path d="M48.95 33.15L47.4247 31.8564L48.95 33.15ZM43.1881 37.5865L44.0651 39.384L43.1881 37.5865ZM50 13.9L48.3286 14.9984L50 13.9ZM44 8.45002L43.0675 10.2193L44 8.45002ZM35.65 5.85002L35.9269 3.86928L35.65 5.85002ZM0 5.20002V3.20002C-1.10457 3.20002 -2 4.09546 -2 5.20002H0ZM0 76H-2C-2 77.1046 -1.10457 78 0 78L0 76ZM46.45 40.95L45.5431 42.7326L45.5431 42.7326L46.45 40.95ZM43.3582 39.7134L43.9375 37.7991L43.3582 39.7134ZM40.1647 39.0094L39.8764 40.9885L39.8765 40.9885L40.1647 39.0094ZM40.1 39H38.1C38.1 39.9954 38.8319 40.8393 39.8173 40.9799L40.1 39ZM40.1 38.8L39.5094 36.8892C38.6714 37.1482 38.1 37.923 38.1 38.8H40.1ZM40.1299 38.7908L39.5368 36.8807L39.5366 36.8808L40.1299 38.7908ZM2 74H0C0 75.1046 0.895431 76 2 76V74ZM38.038 73.0429L38.45 75L38.038 73.0429ZM45.9644 69.989L47 71.7H47L45.9644 69.989ZM51.5155 64.5719L49.8309 63.4938L51.5155 64.5719ZM52.6222 50.5885L50.7445 51.277H50.7445L52.6222 50.5885ZM49.8716 45.997L48.3932 47.344L48.3932 47.344L49.8716 45.997ZM45.5431 42.7326L46.45 40.95H46.45L45.5431 42.7326ZM39.8172 40.9799L39.5343 42.9598H39.5343L39.8172 40.9799ZM39.5094 36.8892L38.9188 34.9784L39.5094 36.8892ZM47.4247 31.8564L45.8994 30.5628L47.4247 31.8564ZM48.3286 14.9984L50 13.9L50 13.9L48.3286 14.9984ZM43.0675 10.2193L42.135 11.9887H42.135L43.0675 10.2193ZM35.3731 7.83077L35.0962 9.81151L35.3731 7.83077ZM2 7.20002V5.20002C0.895431 5.20002 0 6.09546 0 7.20002H2ZM33.6 31.8L34.6815 33.4824L34.6815 33.4824L33.6 31.8ZM33.3 19.9L32.3588 21.6647L33.3 19.9ZM29.9 18.75L30.2623 16.7831L29.9 18.75ZM15.6 18.4V16.4C14.4954 16.4 13.6 17.2955 13.6 18.4H15.6ZM15.6 33.5H13.6C13.6 34.6046 14.4954 35.5 15.6 35.5V33.5ZM30.45 33.1L30.8957 35.0497L30.45 33.1ZM17.6 31.5H15.6C15.6 32.6046 16.4954 33.5 17.6 33.5V31.5ZM30.0044 31.1503L30.45 33.1H30.45L30.0044 31.1503ZM32.5185 30.1177L33.6 31.8L33.6 31.8L32.5185 30.1177ZM34.11 28.414L32.3699 27.428V27.428L34.11 28.414ZM34.0771 23.2461L35.75 22.15V22.15L34.0771 23.2461ZM32.3588 21.6647L31.4176 23.4294H31.4176L32.3588 21.6647ZM29.5377 20.7169L29.1754 22.6838H29.1754L29.5377 20.7169ZM17.6 20.4V18.4C16.4954 18.4 15.6 19.2955 15.6 20.4H17.6ZM17.6 60.8H15.6C15.6 61.9046 16.4954 62.8 17.6 62.8V60.8ZM32.8273 60.4452L33.25 62.4L32.8273 60.4452ZM35.4906 59.3359L36.6 61L35.4906 59.3359ZM37.3303 57.3789L39.05 58.4L37.3303 57.3789ZM37.1932 51.7055L38.75 50.45L37.1932 51.7055ZM34.8239 49.9433L35.6 48.1L35.6 48.1L34.8239 49.9433ZM31.2298 48.9817L30.9595 50.9633H30.9595L31.2298 48.9817ZM17.6 48.7V46.7C16.4954 46.7 15.6 47.5955 15.6 48.7H17.6ZM35.6 48.1L36.3761 46.2568L35.6 48.1ZM31.5 47L31.2298 48.9817L31.5 47ZM15.6 46.7V44.7C14.4954 44.7 13.6 45.5955 13.6 46.7H15.6ZM15.6 62.8H13.6C13.6 63.9046 14.4954 64.8 15.6 64.8V62.8ZM95.3 76H93.3C93.3 77.1046 94.1954 78 95.3 78V76ZM109.7 76V78C110.805 78 111.7 77.1046 111.7 76H109.7ZM109.7 27.4H111.7C111.7 26.2955 110.805 25.4 109.7 25.4V27.4ZM94.7 27.4V25.4C93.5954 25.4 92.7 26.2955 92.7 27.4H94.7ZM78.95 59.7L80.8103 58.9657L78.95 59.7ZM77.9 27.4H79.9C79.9 26.2955 79.0046 25.4 77.9 25.4V27.4ZM62.9 27.4V25.4C61.7954 25.4 60.9 26.2955 60.9 27.4H62.9ZM63.55 63.3L61.5735 63.6059L63.55 63.3ZM66.15 70.6L67.8429 69.5351L66.15 70.6ZM93.05 72.2L94.5419 73.5321V73.5321L93.05 72.2ZM93.3 71.9148L91.7837 70.6106L93.3 71.9148ZM95.1 69.4V67.4C94.3823 67.4 93.7196 67.7846 93.3635 68.4077L95.1 69.4ZM95.3 69.4H97.3C97.3 68.2955 96.4046 67.4 95.3 67.4V69.4ZM64.9 29.4V27.4C63.7954 27.4 62.9 28.2955 62.9 29.4H64.9ZM65.5265 62.9941L63.55 63.3L65.5265 62.9941ZM67.8429 69.5351L69.5358 68.4702L67.8429 69.5351ZM72.5343 73.6561L73.4186 71.8623H73.4186L72.5343 73.6561ZM85.3177 74.5867L84.7354 72.6733L85.3177 74.5867ZM88.9571 72.9935L90 74.7L90 74.7L88.9571 72.9935ZM91.5581 70.868L93.05 72.2L91.5581 70.868ZM93.3635 68.4077L91.627 67.4155L93.3635 68.4077ZM97.3 74H95.3C95.3 75.1046 96.1954 76 97.3 76V74ZM107.7 74V76C108.805 76 109.7 75.1046 109.7 74H107.7ZM107.7 29.4H109.7C109.7 28.2955 108.805 27.4 107.7 27.4V29.4ZM96.7 29.4V27.4C95.5954 27.4 94.7 28.2955 94.7 29.4H96.7ZM96.3817 56.4702L94.4 56.2V56.2L96.3817 56.4702ZM94.9077 61.1042L96.6654 62.0584V62.0584L94.9077 61.1042ZM91.4077 64.6776L92.4155 66.4051L91.4077 64.6776ZM80.0257 64.3815L81.25 62.8L80.0257 64.3815ZM77.0897 60.4344L75.2294 61.1687L77.0897 60.4344ZM76.0544 55.6831L78.05 55.55V55.55L76.0544 55.6831ZM75.9 29.4H77.9C77.9 28.2955 77.0046 27.4 75.9 27.4V29.4ZM122.5 29.4V27.4C121.395 27.4 120.5 28.2955 120.5 29.4H122.5ZM133.5 29.4H135.5C135.5 28.2955 134.605 27.4 133.5 27.4V29.4ZM122.5 74H120.5C120.5 75.1046 121.395 76 122.5 76V74ZM133.5 74V76C134.605 76 135.5 75.1046 135.5 74H133.5ZM120.5 27.4V25.4C119.395 25.4 118.5 26.2955 118.5 27.4H120.5ZM120.5 76H118.5C118.5 77.1046 119.395 78 120.5 78V76ZM135.5 76V78C136.605 78 137.5 77.1046 137.5 76H135.5ZM135.5 27.4H137.5C137.5 26.2955 136.605 25.4 135.5 25.4V27.4ZM123.264 7.36424L124.678 8.77845L123.264 7.36424ZM123.264 16.8358L121.85 18.25L123.264 16.8358ZM132.736 16.8358L134.15 18.25L132.736 16.8358ZM132.736 7.36424L134.15 5.95002L132.736 7.36424ZM121.85 5.95002L120.436 4.53581L121.85 5.95002ZM121.85 18.25L120.436 19.6642L121.85 18.25ZM134.15 5.95002L135.564 4.53581L134.15 5.95002ZM148.5 2.40002V0.400024C147.395 0.400024 146.5 1.29545 146.5 2.40002H148.5ZM159.5 2.40002H161.5C161.5 1.29545 160.605 0.400024 159.5 0.400024V2.40002ZM148.5 74H146.5C146.5 75.1046 147.395 76 148.5 76V74ZM159.5 74V76C160.605 76 161.5 75.1046 161.5 74H159.5ZM146.5 0.400024V-1.59998C145.395 -1.59998 144.5 -0.704545 144.5 0.400024L146.5 0.400024ZM146.5 76H144.5C144.5 77.1046 145.395 78 146.5 78V76ZM161.5 76V78C162.605 78 163.5 77.1046 163.5 76H161.5ZM161.5 0.400024H163.5C163.5 -0.704545 162.605 -1.59998 161.5 -1.59998V0.400024ZM209.5 76H207.5C207.5 77.1046 208.395 78 209.5 78V76ZM223.3 76V78C224.405 78 225.3 77.1046 225.3 76H223.3ZM223.3 0.400024H225.3C225.3 -0.704545 224.405 -1.59998 223.3 -1.59998V0.400024ZM208.3 0.400024V-1.59998C207.195 -1.59998 206.3 -0.704545 206.3 0.400024L208.3 0.400024ZM208.3 32.6V34.6C209.405 34.6 210.3 33.7046 210.3 32.6H208.3ZM208.1 32.6L206.495 33.7927C206.872 34.3006 207.467 34.6 208.1 34.6V32.6ZM206.3 30.5815L207.662 29.1173V29.1173L206.3 30.5815ZM201.45 27.65L200.776 29.533H200.776L201.45 27.65ZM172.2 62.2L174.076 61.5067V61.5067L172.2 62.2ZM177.05 70.15L175.593 71.5201L177.05 70.15ZM206.95 72.25L208.313 73.7138V73.7138L206.95 72.25ZM207.5 71.72L208.913 73.135V73.135L207.5 71.72ZM209.3 69.6V67.6C208.644 67.6 208.029 67.922 207.656 68.4616L209.3 69.6ZM209.5 69.6H211.5C211.5 68.4955 210.605 67.6 209.5 67.6V69.6ZM210.3 2.40002V0.400024C209.195 0.400024 208.3 1.29545 208.3 2.40002H210.3ZM206.495 33.7927L208.1 32.6L206.495 33.7927ZM200.776 29.533L201.45 27.65L200.776 29.533ZM184.329 30.1213L183.4 28.35L184.329 30.1213ZM178.018 35.3414L179.586 36.5828L178.018 35.3414ZM173.947 42.9825L172.05 42.35V42.35L173.947 42.9825ZM174.076 61.5067L175.952 60.8134V60.8134L174.076 61.5067ZM178.507 68.78L177.05 70.15V70.15L178.507 68.78ZM185.375 73.5064L184.6 75.35L185.375 73.5064ZM198.679 74.5833L198.108 72.6665L198.679 74.5833ZM202.567 72.9581L201.585 71.2161L202.567 72.9581ZM205.587 70.7862L204.224 69.3224L204.224 69.3224L205.587 70.7862ZM207.656 68.4616L206.011 67.3232V67.3232L207.656 68.4616ZM211.5 74H209.5C209.5 75.1046 210.395 76 211.5 76V74ZM221.3 74V76C222.405 76 223.3 75.1046 223.3 74H221.3ZM221.3 2.40002H223.3C223.3 1.29545 222.405 0.400024 221.3 0.400024V2.40002ZM204.883 44.1593L203.416 45.5185L204.883 44.1593ZM190.117 44.1593L191.584 45.5185L190.117 44.1593ZM190.117 59.2408L188.65 60.6L190.117 59.2408ZM204.883 59.2408L206.35 60.6L204.883 59.2408ZM206.35 42.8L207.817 41.4408L206.35 42.8ZM188.65 42.8L187.183 41.4408L188.65 42.8ZM47.4247 31.8564C46.0439 33.4845 44.3474 34.7956 42.3111 35.789L44.0651 39.384C46.5763 38.1588 48.721 36.5122 50.4753 34.4436L47.4247 31.8564ZM50.3 23.2C50.3 26.8055 49.3039 29.6406 47.4247 31.8564L50.4753 34.4436C53.0628 31.3927 54.3 27.5946 54.3 23.2H50.3ZM48.3286 14.9984C49.5798 16.9024 50.3 19.5786 50.3 23.2H54.3C54.3 19.0881 53.4869 15.5644 51.6714 12.8017L48.3286 14.9984ZM43.0675 10.2193C45.2347 11.3615 46.9806 12.9471 48.3286 14.9984L51.6714 12.8017C49.9527 10.1862 47.6986 8.13855 44.9325 6.68071L43.0675 10.2193ZM35.3731 7.83077C38.2719 8.23597 40.829 9.03957 43.0675 10.2193L44.9325 6.68071C42.2377 5.26046 39.2282 4.33075 35.9269 3.86928L35.3731 7.83077ZM26.4 7.20002C29.3722 7.20002 32.3629 7.40999 35.3731 7.83077L35.9269 3.86928C32.737 3.42339 29.5612 3.20002 26.4 3.20002V7.20002ZM2 7.20002H26.4V3.20002H2V7.20002ZM0 7.20002H2V3.20002H0V7.20002ZM2 7.20002V5.20002H-2V7.20002H2ZM2 74V7.20002H-2V74H2ZM2 76V74H-2V76H2ZM2 74H0V78H2V74ZM29 74H2V78H29V74ZM38.038 73.0429C35.0023 73.682 31.9904 74 29 74V78C32.2763 78 35.5643 77.6514 38.862 76.9571L38.038 73.0429ZM45.9644 69.989C43.6406 71.3955 41.0048 72.4183 38.038 73.0429L38.862 76.9571C42.2285 76.2484 45.2927 75.0712 48.0356 73.411L45.9644 69.989ZM51.5155 64.5719C50.0801 66.8147 48.2352 68.6146 45.9644 69.989L48.0356 73.411C50.8315 71.7188 53.1199 69.4854 54.8845 66.7281L51.5155 64.5719ZM53.6 56.3C53.6 59.7493 52.8623 62.4674 51.5155 64.5719L54.8845 66.7281C56.7377 63.8326 57.6 60.3174 57.6 56.3H53.6ZM52.6222 50.5885C53.2697 52.3542 53.6 54.2531 53.6 56.3H57.6C57.6 53.8136 57.197 51.4459 56.3778 49.2115L52.6222 50.5885ZM49.8716 45.997C51.0551 47.296 51.9736 48.8195 52.6222 50.5885L56.3778 49.2115C55.5597 46.9805 54.3782 45.0041 52.8284 43.303L49.8716 45.997ZM45.5431 42.7326C47.2389 43.5953 48.6757 44.6844 49.8716 45.997L52.8284 43.303C51.291 41.6156 49.4611 40.238 47.3569 39.1675L45.5431 42.7326ZM42.779 41.6276C43.7581 41.9239 44.6786 42.2928 45.5431 42.7326L47.3569 39.1675C46.274 38.6165 45.1334 38.1609 43.9375 37.7991L42.779 41.6276ZM39.8765 40.9885C40.8981 41.1372 41.865 41.3511 42.779 41.6276L43.9375 37.7991C42.8216 37.4614 41.6595 37.2059 40.4529 37.0302L39.8765 40.9885ZM39.8173 40.9799C39.8371 40.9828 39.8568 40.9856 39.8764 40.9885L40.453 37.0302C40.4295 37.0268 40.406 37.0234 40.3827 37.0201L39.8173 40.9799ZM38.1 38.8V39H42.1V38.8H38.1ZM39.5366 36.8808C39.5277 36.8836 39.5186 36.8864 39.5094 36.8892L40.6906 40.7108C40.7013 40.7075 40.7122 40.7042 40.7232 40.7007L39.5366 36.8808ZM42.3111 35.789C41.4515 36.2084 40.5275 36.5731 39.5368 36.8807L40.723 40.7008C41.8962 40.3365 43.011 39.8983 44.0651 39.384L42.3111 35.789ZM29 72H2V76H29V72ZM37.626 71.0858C34.7214 71.6973 31.8475 72 29 72V76C32.1333 76 35.2833 75.6667 38.45 75L37.626 71.0858ZM44.9288 68.278C42.8146 69.5577 40.393 70.5033 37.626 71.0858L38.45 75C41.6167 74.3334 44.4667 73.2334 47 71.7L44.9288 68.278ZM49.8309 63.4938C48.5602 65.4794 46.9371 67.0625 44.9288 68.278L47 71.7C49.5333 70.1667 51.6 68.15 53.2 65.65L49.8309 63.4938ZM51.6 56.3C51.6 59.4649 50.9248 61.7846 49.8309 63.4938L53.2 65.65C54.7999 63.1502 55.6 60.0337 55.6 56.3H51.6ZM50.7445 51.277C51.306 52.8084 51.6 54.4729 51.6 56.3H55.6C55.6 54.0333 55.2333 51.9 54.5 49.9L50.7445 51.277ZM48.3932 47.344C49.3936 48.442 50.1806 49.739 50.7445 51.277L54.5 49.9C53.7667 47.9 52.7167 46.15 51.35 44.65L48.3932 47.344ZM44.6362 44.5151C46.1277 45.274 47.368 46.2188 48.3932 47.344L51.35 44.65C49.9833 43.15 48.35 41.9167 46.45 40.95L44.6362 44.5151ZM39.5343 42.9598C41.4784 43.2375 43.1668 43.7676 44.6362 44.5151L46.45 40.95C44.55 39.9834 42.4334 39.3334 40.1 39L39.5343 42.9598ZM36.1 39C36.1 40.9906 37.5637 42.6783 39.5343 42.9598L40.1 39L40.1 39H36.1ZM36.1 38.8V39H40.1V38.8H36.1ZM38.9188 34.9784C37.2429 35.4964 36.1 37.0459 36.1 38.8H40.1L38.9188 34.9784ZM45.8994 30.5628C44.2127 32.5516 41.9412 34.0442 38.9188 34.9784L40.1 38.8C43.7668 37.6666 46.7168 35.7833 48.95 33.15L45.8994 30.5628ZM48.3 23.2C48.3 26.4104 47.4248 28.7642 45.8994 30.5628L48.95 33.15C51.183 30.5171 52.3 27.2006 52.3 23.2H48.3ZM46.6572 16.0967C47.6264 17.5716 48.3 19.8243 48.3 23.2H52.3C52.3 19.3329 51.5332 16.2331 50 13.9L46.6572 16.0967ZM42.135 11.9887C44.0028 12.973 45.4946 14.3276 46.6572 16.0967L50 13.9C48.4667 11.5667 46.4667 9.75003 44 8.45002L42.135 11.9887ZM35.0962 9.81151C37.7937 10.1886 40.1246 10.9291 42.135 11.9887L44 8.45002C41.5333 7.15003 38.75 6.28336 35.65 5.85002L35.0962 9.81151ZM26.4 9.20002C29.2776 9.20002 32.1759 9.40329 35.0962 9.81151L35.65 5.85002C32.55 5.41669 29.4667 5.20002 26.4 5.20002V9.20002ZM2 9.20002H26.4V5.20002H2V9.20002ZM4 74V7.20002H0V74H4ZM34.6815 33.4824C35.8975 32.7007 36.8695 31.6576 37.59 30.3861L34.11 28.414C33.6972 29.1424 33.1692 29.6994 32.5185 30.1177L34.6815 33.4824ZM37.59 30.3861C38.3606 29.0263 38.7 27.4707 38.7 25.8H34.7C34.7 26.9294 34.4727 27.7738 34.11 28.414L37.59 30.3861ZM38.7 25.8C38.7 24.0482 38.3204 22.4238 37.4229 21.054L34.0771 23.2461C34.4463 23.8096 34.7 24.6185 34.7 25.8H38.7ZM37.4229 21.054C36.6094 19.8123 35.5434 18.8298 34.2412 18.1353L32.3588 21.6647C33.0566 22.0369 33.6239 22.5544 34.0771 23.2461L37.4229 21.054ZM34.2412 18.1353C33.0369 17.4931 31.7041 17.0487 30.2623 16.7831L29.5377 20.7169C30.6293 20.918 31.5631 21.2403 32.3588 21.6647L34.2412 18.1353ZM30.2623 16.7831C28.8848 16.5294 27.53 16.4 26.2 16.4V20.4C27.27 20.4 28.3819 20.504 29.5377 20.7169L30.2623 16.7831ZM26.2 16.4H17.6V20.4H26.2V16.4ZM17.6 16.4H15.6V20.4H17.6V16.4ZM13.6 18.4V20.4H17.6V18.4H13.6ZM13.6 20.4V31.5H17.6V20.4H13.6ZM13.6 31.5V33.5H17.6V31.5H13.6ZM15.6 35.5H17.6V31.5H15.6V35.5ZM17.6 35.5H26.9V31.5H17.6V35.5ZM26.9 35.5C28.2496 35.5 29.5824 35.3499 30.8957 35.0497L30.0044 31.1503C28.9843 31.3835 27.9504 31.5 26.9 31.5V35.5ZM30.8957 35.0497C32.2704 34.7355 33.5385 34.2172 34.6815 33.4824L32.5185 30.1177C31.7948 30.5829 30.963 30.9312 30.0044 31.1503L30.8957 35.0497ZM26.9 29.5H17.6V33.5H26.9V29.5ZM29.5587 29.2006C28.6852 29.4002 27.8009 29.5 26.9 29.5V33.5C28.1 33.5 29.2833 33.3667 30.45 33.1L29.5587 29.2006ZM31.437 28.4353C30.9229 28.7658 30.3092 29.029 29.5587 29.2006L30.45 33.1C31.6167 32.8333 32.6667 32.4 33.6 31.8L31.437 28.4353ZM32.3699 27.428C32.1111 27.8848 31.8051 28.1987 31.437 28.4353L33.6 31.8C34.5332 31.2001 35.2833 30.4001 35.85 29.4L32.3699 27.428ZM32.7 25.8C32.7 26.6581 32.5291 27.1471 32.3699 27.428L35.85 29.4C36.4164 28.4005 36.7 27.2006 36.7 25.8H32.7ZM32.4042 24.3421C32.5097 24.5033 32.7 24.9048 32.7 25.8H36.7C36.7 24.3321 36.3828 23.1159 35.75 22.15L32.4042 24.3421ZM31.4176 23.4294C31.8133 23.6405 32.1312 23.9255 32.4042 24.3421L35.75 22.15C35.1166 21.1833 34.2999 20.4333 33.3 19.9L31.4176 23.4294ZM29.1754 22.6838C30.0919 22.8527 30.8261 23.1139 31.4176 23.4294L33.3 19.9C32.3 19.3667 31.1667 18.9834 29.9 18.75L29.1754 22.6838ZM26.2 22.4C27.14 22.4 28.1304 22.4913 29.1754 22.6838L29.9 18.75C28.6333 18.5167 27.4 18.4 26.2 18.4V22.4ZM17.6 22.4H26.2V18.4H17.6V22.4ZM19.6 31.5V20.4H15.6V31.5H19.6ZM29.6 58.8H17.6V62.8H29.6V58.8ZM32.4047 58.4904C31.4349 58.7001 30.5016 58.8 29.6 58.8V62.8C30.8 62.8 32.0167 62.6667 33.25 62.4L32.4047 58.4904ZM34.3812 57.6718C33.8191 58.0466 33.1726 58.3243 32.4047 58.4904L33.25 62.4C34.4834 62.1333 35.6 61.6667 36.6 61L34.3812 57.6718ZM35.6106 56.3579C35.2727 56.9269 34.8671 57.3479 34.3812 57.6718L36.6 61C37.6 60.3334 38.4166 59.4667 39.05 58.4L35.6106 56.3579ZM36 54.5C36 55.4826 35.7998 56.0392 35.6106 56.3579L39.05 58.4C39.6831 57.3338 40 56.0341 40 54.5H36ZM35.6363 52.961C35.7634 53.1186 36 53.5105 36 54.5H40C40 52.8311 39.5822 51.482 38.75 50.45L35.6363 52.961ZM34.0478 51.7866C34.727 52.0726 35.2332 52.4611 35.6363 52.961L38.75 50.45C37.9167 49.4168 36.8668 48.6334 35.6 48.1L34.0478 51.7866ZM30.9595 50.9633C32.1049 51.1195 33.1286 51.3995 34.0478 51.7866L35.6 48.1C34.3333 47.5667 32.9667 47.2 31.5 47L30.9595 50.9633ZM27.4 50.7C28.4588 50.7 29.643 50.7838 30.9595 50.9633L31.5 47C30.0333 46.8 28.6667 46.7 27.4 46.7V50.7ZM17.6 50.7H27.4V46.7H17.6V50.7ZM19.6 60.8V48.7H15.6V60.8H19.6ZM17.6 64.8H29.6V60.8H17.6V64.8ZM29.6 64.8C30.9492 64.8 32.3076 64.65 33.6727 64.3549L32.8273 60.4452C31.7258 60.6834 30.6508 60.8 29.6 60.8V64.8ZM33.6727 64.3549C35.1387 64.0379 36.4904 63.4768 37.7094 62.6641L35.4906 59.3359C34.7096 59.8566 33.828 60.2288 32.8273 60.4452L33.6727 64.3549ZM37.7094 62.6641C38.9665 61.8261 39.9887 60.7365 40.7697 59.4211L37.3303 57.3789C36.8447 58.1968 36.2335 58.8407 35.4906 59.3359L37.7094 62.6641ZM40.7697 59.4211C41.6253 57.9802 42 56.3084 42 54.5H38C38 55.7583 37.7414 56.6865 37.3303 57.3789L40.7697 59.4211ZM42 54.5C42 52.4959 41.4939 50.6664 40.3068 49.1945L37.1932 51.7055C37.6728 52.3003 38 53.1708 38 54.5H42ZM40.3068 49.1945C39.2584 47.8944 37.9364 46.9137 36.3761 46.2568L34.8239 49.9433C35.7969 50.353 36.575 50.9389 37.1932 51.7055L40.3068 49.1945ZM36.3761 46.2568C34.9357 45.6503 33.3976 45.2403 31.7702 45.0184L31.2298 48.9817C32.5358 49.1598 33.731 49.4831 34.8239 49.9433L36.3761 46.2568ZM31.7702 45.0184C30.2285 44.8081 28.7706 44.7 27.4 44.7V48.7C28.5627 48.7 29.8381 48.7919 31.2298 48.9817L31.7702 45.0184ZM27.4 44.7H17.6V48.7H27.4V44.7ZM17.6 44.7H15.6V48.7H17.6V44.7ZM13.6 46.7V48.7H17.6V46.7H13.6ZM13.6 48.7V60.8H17.6V48.7H13.6ZM13.6 60.8V62.8H17.6V60.8H13.6ZM15.6 64.8H17.6V60.8H15.6V64.8ZM97.3 74V72.636H93.3V74H97.3ZM97.3 76V74H93.3V76H97.3ZM97.3 74H95.3V78H97.3V74ZM107.7 74H97.3V78H107.7V74ZM109.7 74H107.7V78H109.7V74ZM107.7 74V76H111.7V74H107.7ZM107.7 29.4V74H111.7V29.4H107.7ZM107.7 27.4V29.4H111.7V27.4H107.7ZM107.7 29.4H109.7V25.4H107.7V29.4ZM96.7 29.4H107.7V25.4H96.7V29.4ZM94.7 29.4H96.7V25.4H94.7V29.4ZM96.7 29.4V27.4H92.7V29.4H96.7ZM96.7 51.6V29.4H92.7V51.6H96.7ZM96.3817 56.4702C96.5948 54.9072 96.7 53.2832 96.7 51.6H92.7C92.7 53.1168 92.6052 54.5595 92.4183 55.9298L96.3817 56.4702ZM94.9077 61.1042C95.669 59.7019 96.1527 58.1491 96.3817 56.4702L92.4183 55.9298C92.2473 57.1843 91.8977 58.2648 91.3923 59.1958L94.9077 61.1042ZM91.4077 64.6776C92.9084 63.8022 94.0915 62.6077 94.9077 61.1042L91.3923 59.1958C90.9418 60.0257 90.2916 60.6978 89.3923 61.2225L91.4077 64.6776ZM85.7 66C87.8553 66 89.805 65.6125 91.4077 64.6776L89.3923 61.2225C88.595 61.6875 87.4114 62 85.7 62V66ZM80.0257 64.3815C81.5422 65.5556 83.5273 66 85.7 66V62C84.006 62 83.0244 61.6445 82.4743 61.2186L80.0257 64.3815ZM77.0897 60.4344C77.7159 62.0207 78.6958 63.3519 80.0257 64.3815L82.4743 61.2186C81.7375 60.6481 81.1841 59.9127 80.8103 58.9657L77.0897 60.4344ZM76.0544 55.6831C76.1668 57.368 76.5064 58.9566 77.0897 60.4344L80.8103 58.9657C80.3936 57.9101 80.1332 56.732 80.0456 55.417L76.0544 55.6831ZM75.9 51.2C75.9 52.6475 75.9517 54.142 76.0544 55.6831L80.0456 55.417C79.9483 53.9581 79.9 52.5525 79.9 51.2H75.9ZM75.9 29.4V51.2H79.9V29.4H75.9ZM75.9 27.4V29.4H79.9V27.4H75.9ZM75.9 29.4H77.9V25.4H75.9V29.4ZM64.9 29.4H75.9V25.4H64.9V29.4ZM62.9 29.4H64.9V25.4H62.9V29.4ZM64.9 29.4V27.4H60.9V29.4H64.9ZM64.9 54.2V29.4H60.9V54.2H64.9ZM65.5265 62.9941C65.111 60.3093 64.9 57.3794 64.9 54.2H60.9C60.9 57.554 61.1224 60.6908 61.5735 63.6059L65.5265 62.9941ZM67.8429 69.5351C66.7097 67.7336 65.9247 65.5673 65.5265 62.9941L61.5735 63.6059C62.042 66.6328 62.9903 69.3331 64.4571 71.6649L67.8429 69.5351ZM72.5343 73.6561C70.4716 72.6393 68.9301 71.2635 67.8429 69.5351L64.4571 71.6649C65.9699 74.0699 68.0951 75.9274 70.7657 77.2439L72.5343 73.6561ZM80.9 75.2C77.2813 75.2 74.5321 74.6409 72.5343 73.6561L70.7657 77.2439C73.5013 78.5924 76.9187 79.2 80.9 79.2V75.2ZM85.3177 74.5867C83.9947 74.9893 82.5266 75.2 80.9 75.2V79.2C82.8734 79.2 84.7386 78.9441 86.4823 78.4134L85.3177 74.5867ZM88.9571 72.9935C87.9197 73.6274 86.7114 74.1625 85.3177 74.5867L86.4823 78.4134C88.1553 77.9042 89.6803 77.2393 91.0429 76.4066L88.9571 72.9935ZM91.5581 70.868C90.8703 71.6383 90.0103 72.3498 88.9571 72.9935L91.0429 76.4066C92.3897 75.5835 93.563 74.6284 94.5419 73.5321L91.5581 70.868ZM91.7837 70.6106C91.7101 70.6962 91.6349 70.782 91.5581 70.868L94.5419 73.5321C94.6349 73.4279 94.7263 73.3236 94.8163 73.219L91.7837 70.6106ZM93.3635 68.4077C92.9561 69.1207 92.4333 69.8554 91.7837 70.6106L94.8163 73.219C95.6087 72.2976 96.2859 71.3559 96.8365 70.3923L93.3635 68.4077ZM95.3 67.4H95.1V71.4H95.3V67.4ZM97.3 69.5143V69.4H93.3V69.5143H97.3ZM97.3 71.4V69.5143H93.3V71.4H97.3ZM97.3 72.636V71.4H93.3V72.636H97.3ZM66.9 54.2V29.4H62.9V54.2H66.9ZM67.5029 62.6883C67.1052 60.1185 66.9 57.2921 66.9 54.2H62.9C62.9 57.4667 63.1167 60.5 63.55 63.3L67.5029 62.6883ZM69.5358 68.4702C68.5693 66.9337 67.8661 65.0346 67.5029 62.6883L63.55 63.3C63.9833 66.1001 64.85 68.5334 66.15 70.6L69.5358 68.4702ZM73.4186 71.8623C71.66 70.9953 70.4103 69.8604 69.5358 68.4702L66.15 70.6C67.4499 72.6666 69.2832 74.2833 71.65 75.45L73.4186 71.8623ZM80.9 73.2C77.4626 73.2 75.0474 72.6652 73.4186 71.8623L71.65 75.45C74.0167 76.6167 77.0999 77.2 80.9 77.2V73.2ZM84.7354 72.6733C83.6227 73.0119 82.3532 73.2 80.9 73.2V77.2C82.7 77.2 84.3667 76.9667 85.9 76.5L84.7354 72.6733ZM87.9142 71.2869C87.0394 71.8215 85.9895 72.2916 84.7354 72.6733L85.9 76.5C87.4334 76.0333 88.8 75.4334 90 74.7L87.9142 71.2869ZM90.0663 69.536C89.524 70.1433 88.8206 70.733 87.9142 71.2869L90 74.7C91.2 73.9667 92.2167 73.1333 93.05 72.2L90.0663 69.536ZM91.627 67.4155C91.253 68.0701 90.7427 68.7783 90.0663 69.536L93.05 72.2C93.8833 71.2667 94.5667 70.3334 95.1 69.4L91.627 67.4155ZM95.1 65.4C93.6646 65.4 92.3392 66.1692 91.627 67.4155L95.1 69.4H95.1V65.4ZM95.3 65.4H95.1V69.4H95.3V65.4ZM99.3 69.4C99.3 67.1909 97.5091 65.4 95.3 65.4V69.4H99.3ZM99.3 74V69.4H95.3V74H99.3ZM107.7 72H97.3V76H107.7V72ZM105.7 29.4V74H109.7V29.4H105.7ZM96.7 31.4H107.7V27.4H96.7V31.4ZM98.7 51.6V29.4H94.7V51.6H98.7ZM98.3633 56.7405C98.5896 55.081 98.7 53.3664 98.7 51.6H94.7C94.7 53.2 94.6 54.7333 94.4 56.2L98.3633 56.7405ZM96.6654 62.0584C97.5546 60.4204 98.1055 58.6315 98.3633 56.7405L94.4 56.2C94.2 57.6667 93.7833 58.9834 93.15 60.15L96.6654 62.0584ZM92.4155 66.4051C94.2167 65.3544 95.6663 63.8988 96.6654 62.0584L93.15 60.15C92.5167 61.3166 91.6001 62.25 90.4 62.95L92.4155 66.4051ZM85.7 68C88.0769 68 90.4098 67.5751 92.4155 66.4051L90.4 62.95C89.2002 63.6499 87.6337 64 85.7 64V68ZM78.8013 65.9629C80.8017 67.5116 83.2889 68 85.7 68V64C83.7656 64 82.2828 63.5996 81.25 62.8L78.8013 65.9629ZM75.2294 61.1687C75.9817 63.0747 77.1749 64.7038 78.8013 65.9629L81.25 62.8C80.2167 62.0001 79.45 60.9668 78.95 59.7L75.2294 61.1687ZM74.0589 55.8161C74.1835 57.686 74.5627 59.4798 75.2294 61.1687L78.95 59.7C78.45 58.4334 78.15 57.0501 78.05 55.55L74.0589 55.8161ZM73.9 51.2C73.9 52.695 73.9534 54.2339 74.0589 55.8161L78.05 55.55C77.95 54.05 77.9 52.6 77.9 51.2H73.9ZM73.9 29.4V51.2H77.9V29.4H73.9ZM64.9 31.4H75.9V27.4H64.9V31.4ZM122.5 31.4H133.5V27.4H122.5V31.4ZM124.5 74V29.4H120.5V74H124.5ZM133.5 72H122.5V76H133.5V72ZM131.5 29.4V74H135.5V29.4H131.5ZM120.5 29.4H122.5V25.4H120.5V29.4ZM122.5 29.4V27.4H118.5V29.4H122.5ZM122.5 74V29.4H118.5V74H122.5ZM122.5 76V74H118.5V76H122.5ZM122.5 74H120.5V78H122.5V74ZM133.5 74H122.5V78H133.5V74ZM135.5 74H133.5V78H135.5V74ZM133.5 74V76H137.5V74H133.5ZM133.5 29.4V74H137.5V29.4H133.5ZM133.5 27.4V29.4H137.5V27.4H133.5ZM133.5 29.4H135.5V25.4H133.5V29.4ZM122.5 29.4H133.5V25.4H122.5V29.4ZM123.3 12.1C123.3 10.7629 123.727 9.72977 124.678 8.77845L121.85 5.95002C120.15 7.65005 119.3 9.70003 119.3 12.1H123.3ZM124.678 15.4216C123.727 14.4703 123.3 13.4371 123.3 12.1H119.3C119.3 14.5 120.15 16.55 121.85 18.25L124.678 15.4216ZM128 16.8C126.663 16.8 125.63 16.3729 124.678 15.4216L121.85 18.25C123.55 19.95 125.6 20.8 128 20.8V16.8ZM131.322 15.4216C130.37 16.3729 129.337 16.8 128 16.8V20.8C130.4 20.8 132.45 19.95 134.15 18.25L131.322 15.4216ZM132.7 12.1C132.7 13.4371 132.273 14.4703 131.322 15.4216L134.15 18.25C135.85 16.55 136.7 14.5 136.7 12.1H132.7ZM131.322 8.77845C132.273 9.72977 132.7 10.7629 132.7 12.1H136.7C136.7 9.70003 135.85 7.65005 134.15 5.95002L131.322 8.77845ZM128 7.40002C129.337 7.40002 130.37 7.82714 131.322 8.77845L134.15 5.95002C132.45 4.25 130.4 3.40002 128 3.40002V7.40002ZM124.678 8.77845C125.63 7.82714 126.663 7.40002 128 7.40002V3.40002C125.6 3.40002 123.55 4.25 121.85 5.95002L124.678 8.77845ZM121.3 12.1C121.3 10.2315 121.939 8.68991 123.264 7.36424L120.436 4.53581C118.361 6.61016 117.3 9.16854 117.3 12.1H121.3ZM123.264 16.8358C121.939 15.5101 121.3 13.9686 121.3 12.1H117.3C117.3 15.0315 118.361 17.5899 120.436 19.6642L123.264 16.8358ZM128 18.8C126.131 18.8 124.59 18.1615 123.264 16.8358L120.436 19.6642C122.51 21.7386 125.069 22.8 128 22.8V18.8ZM132.736 16.8358C131.41 18.1615 129.869 18.8 128 18.8V22.8C130.931 22.8 133.49 21.7386 135.564 19.6642L132.736 16.8358ZM134.7 12.1C134.7 13.9686 134.061 15.5101 132.736 16.8358L135.564 19.6642C137.639 17.5899 138.7 15.0315 138.7 12.1H134.7ZM132.736 7.36424C134.061 8.68991 134.7 10.2315 134.7 12.1H138.7C138.7 9.16854 137.639 6.61016 135.564 4.53581L132.736 7.36424ZM128 5.40002C129.869 5.40002 131.41 6.03857 132.736 7.36424L135.564 4.53581C133.49 2.46146 130.931 1.40002 128 1.40002V5.40002ZM123.264 7.36424C124.59 6.03857 126.131 5.40002 128 5.40002V1.40002C125.069 1.40002 122.51 2.46146 120.436 4.53581L123.264 7.36424ZM148.5 4.40002H159.5V0.400024H148.5V4.40002ZM150.5 74V2.40002H146.5V74H150.5ZM159.5 72H148.5V76H159.5V72ZM157.5 2.40002V74H161.5V2.40002H157.5ZM146.5 2.40002H148.5V-1.59998H146.5V2.40002ZM148.5 2.40002V0.400024H144.5V2.40002H148.5ZM148.5 74V2.40002H144.5V74H148.5ZM148.5 76V74H144.5V76H148.5ZM148.5 74H146.5V78H148.5V74ZM159.5 74H148.5V78H159.5V74ZM161.5 74H159.5V78H161.5V74ZM159.5 74V76H163.5V74H159.5ZM159.5 2.40002V74H163.5V2.40002H159.5ZM159.5 0.400024V2.40002H163.5V0.400024H159.5ZM159.5 2.40002H161.5V-1.59998H159.5V2.40002ZM148.5 2.40002H159.5V-1.59998H148.5V2.40002ZM211.5 74V72.5255H207.5V74H211.5ZM211.5 76V74H207.5V76H211.5ZM211.5 74H209.5V78H211.5V74ZM221.3 74H211.5V78H221.3V74ZM223.3 74H221.3V78H223.3V74ZM221.3 74V76H225.3V74H221.3ZM221.3 2.40002V74H225.3V2.40002H221.3ZM221.3 0.400024V2.40002H225.3V0.400024H221.3ZM221.3 2.40002H223.3V-1.59998H221.3V2.40002ZM210.3 2.40002H221.3V-1.59998H210.3V2.40002ZM208.3 2.40002H210.3V-1.59998H208.3V2.40002ZM210.3 2.40002V0.400024H206.3V2.40002H210.3ZM210.3 29.7444V2.40002H206.3V29.7444H210.3ZM210.3 30.6V29.7444H206.3V30.6H210.3ZM210.3 32.4515V30.6H206.3V32.4515H210.3ZM210.3 32.6V32.4515H206.3V32.6H210.3ZM208.1 34.6H208.3V30.6H208.1V34.6ZM204.938 32.0457C205.494 32.5631 206.013 33.1443 206.495 33.7927L209.705 31.4074C209.085 30.5719 208.404 29.8075 207.662 29.1173L204.938 32.0457ZM200.776 29.533C202.369 30.1035 203.75 30.9409 204.938 32.0457L207.662 29.1173C206.066 27.6321 204.214 26.5151 202.124 25.7671L200.776 29.533ZM192.7 28.2C195.625 28.2 198.311 28.6506 200.776 29.533L202.124 25.7671C199.189 24.7161 196.042 24.2 192.7 24.2V28.2ZM184.329 30.1213C186.742 28.8559 189.516 28.2 192.7 28.2V24.2C188.95 24.2 185.525 24.9775 182.471 26.5788L184.329 30.1213ZM178.018 35.3414C179.743 33.1627 181.841 31.4258 184.329 30.1213L182.471 26.5788C179.492 28.141 176.957 30.2374 174.882 32.8586L178.018 35.3414ZM173.947 42.9825C174.912 40.0881 176.272 37.5472 178.018 35.3414L174.882 32.8586C172.828 35.4529 171.255 38.412 170.153 41.7176L173.947 42.9825ZM172.5 52.1C172.5 48.9062 172.985 45.8704 173.947 42.9825L170.153 41.7176C169.049 45.0297 168.5 48.4938 168.5 52.1H172.5ZM174.076 61.5067C173.034 58.6873 172.5 55.5586 172.5 52.1H168.5C168.5 55.9748 169.099 59.5794 170.324 62.8933L174.076 61.5067ZM178.507 68.78C176.603 66.7546 175.123 64.339 174.076 61.5067L170.324 62.8933C171.544 66.1944 173.297 69.0788 175.593 71.5201L178.507 68.78ZM185.375 73.5064C182.69 72.3772 180.408 70.8017 178.507 68.78L175.593 71.5201C177.892 73.965 180.644 75.8561 183.825 77.1937L185.375 73.5064ZM194.4 75.2C191.031 75.2 188.033 74.6238 185.375 73.5064L183.825 77.1937C187.034 78.5429 190.569 79.2 194.4 79.2V75.2ZM198.679 74.5833C197.301 74.9936 195.877 75.2 194.4 75.2V79.2C196.256 79.2 198.065 78.9397 199.821 78.4168L198.679 74.5833ZM202.567 72.9581C201.409 73.6113 200.116 74.1553 198.679 74.5833L199.821 78.4168C201.518 77.9114 203.091 77.2554 204.533 76.442L202.567 72.9581ZM205.587 70.7862C204.75 71.566 203.748 72.2923 202.567 72.9581L204.533 76.442C205.952 75.6411 207.217 74.734 208.313 73.7138L205.587 70.7862ZM206.087 70.305C205.928 70.4638 205.761 70.6242 205.587 70.7862L208.313 73.7138C208.52 73.5212 208.72 73.3283 208.913 73.135L206.087 70.305ZM207.656 68.4616C207.254 69.0413 206.736 69.6564 206.087 70.305L208.913 73.135C209.701 72.3488 210.382 71.5505 210.944 70.7384L207.656 68.4616ZM209.5 67.6H209.3V71.6H209.5V67.6ZM211.5 69.7385V69.6H207.5V69.7385H211.5ZM211.5 71.6V69.7385H207.5V71.6H211.5ZM211.5 72.5255V71.6H207.5V72.5255H211.5ZM212.3 32.6V2.40002H208.3V32.6H212.3ZM208.3 36.6C210.509 36.6 212.3 34.8092 212.3 32.6H208.3V36.6ZM208.1 36.6H208.3V32.6H208.1V36.6ZM204.889 34.9853C205.644 36.0012 206.835 36.6 208.1 36.6V32.6V32.6L204.889 34.9853ZM200.102 31.4159C202.048 32.1126 203.62 33.2769 204.889 34.9853L208.1 32.6C206.367 30.2667 204.15 28.6167 201.45 27.65L200.102 31.4159ZM192.7 30.2C195.416 30.2 197.873 30.6179 200.102 31.4159L201.45 27.65C198.75 26.6834 195.833 26.2 192.7 26.2V30.2ZM185.258 31.8925C187.35 30.795 189.8 30.2 192.7 30.2V26.2C189.233 26.2 186.133 26.9167 183.4 28.35L185.258 31.8925ZM179.586 36.5828C181.136 34.6253 183.016 33.0682 185.258 31.8925L183.4 28.35C180.667 29.7834 178.35 31.7 176.45 34.1L179.586 36.5828ZM175.845 43.6149C176.741 40.9261 177.994 38.5943 179.586 36.5828L176.45 34.1C174.55 36.5 173.083 39.25 172.05 42.35L175.845 43.6149ZM174.5 52.1C174.5 49.1124 174.953 46.2907 175.845 43.6149L172.05 42.35C171.017 45.45 170.5 48.7 170.5 52.1H174.5ZM175.952 60.8134C175.001 58.2412 174.5 55.3506 174.5 52.1H170.5C170.5 55.7667 171.067 59.1334 172.2 62.2L175.952 60.8134ZM179.964 67.4099C178.255 65.5925 176.912 63.4112 175.952 60.8134L172.2 62.2C173.333 65.2667 174.95 67.9167 177.05 70.15L179.964 67.4099ZM186.15 71.6627C183.713 70.6378 181.666 69.2201 179.964 67.4099L177.05 70.15C179.15 72.3834 181.667 74.1167 184.6 75.35L186.15 71.6627ZM194.4 73.2C191.263 73.2 188.533 72.6643 186.15 71.6627L184.6 75.35C187.533 76.5833 190.8 77.2 194.4 77.2V73.2ZM198.108 72.6665C196.919 73.0206 195.688 73.2 194.4 73.2V77.2C196.067 77.2 197.683 76.9667 199.25 76.5L198.108 72.6665ZM201.585 71.2161C200.569 71.7893 199.415 72.2772 198.108 72.6665L199.25 76.5C200.817 76.0334 202.25 75.4334 203.55 74.7L201.585 71.2161ZM204.224 69.3224C203.516 69.982 202.645 70.6179 201.585 71.2161L203.55 74.7C204.85 73.9667 205.983 73.15 206.95 72.25L204.224 69.3224ZM206.011 67.3232C205.61 67.9027 205.031 68.5716 204.224 69.3224L206.95 72.25C207.917 71.35 208.7 70.4667 209.3 69.6L206.011 67.3232ZM209.3 65.6C207.987 65.6 206.758 66.244 206.011 67.3232L209.3 69.6L209.3 69.6V65.6ZM209.5 65.6H209.3V69.6H209.5V65.6ZM213.5 69.6C213.5 67.3909 211.709 65.6 209.5 65.6V69.6H213.5ZM213.5 74V69.6H209.5V74H213.5ZM221.3 72H211.5V76H221.3V72ZM219.3 2.40002V74H223.3V2.40002H219.3ZM210.3 4.40002H221.3V0.400024H210.3V4.40002ZM203.416 45.5185C204.707 46.9118 205.5 48.8427 205.5 51.7H209.5C209.5 48.0324 208.449 45.0661 206.35 42.8L203.416 45.5185ZM197.5 43.4C200.459 43.4 202.24 44.2499 203.416 45.5185L206.35 42.8C204.251 40.5344 201.302 39.4 197.5 39.4V43.4ZM191.584 45.5185C192.76 44.2499 194.541 43.4 197.5 43.4V39.4C193.698 39.4 190.749 40.5344 188.65 42.8L191.584 45.5185ZM189.5 51.7C189.5 48.8427 190.293 46.9118 191.584 45.5185L188.65 42.8C186.551 45.0661 185.5 48.0324 185.5 51.7H189.5ZM191.584 57.8815C190.293 56.4883 189.5 54.5574 189.5 51.7H185.5C185.5 55.3677 186.551 58.334 188.65 60.6L191.584 57.8815ZM197.5 60C194.541 60 192.76 59.1502 191.584 57.8815L188.65 60.6C190.749 62.8656 193.698 64 197.5 64V60ZM203.416 57.8815C202.24 59.1502 200.459 60 197.5 60V64C201.302 64 204.251 62.8656 206.35 60.6L203.416 57.8815ZM205.5 51.7C205.5 54.5574 204.707 56.4883 203.416 57.8815L206.35 60.6C208.449 58.334 209.5 55.3677 209.5 51.7H205.5ZM211.5 51.7C211.5 47.6292 210.322 44.1445 207.817 41.4408L204.883 44.1593C206.578 45.9889 207.5 48.4375 207.5 51.7H211.5ZM207.817 61.9593C210.322 59.2556 211.5 55.7709 211.5 51.7H207.5C207.5 54.9625 206.578 57.4111 204.883 59.2408L207.817 61.9593ZM197.5 66C201.719 66 205.254 64.7255 207.817 61.9593L204.883 59.2408C203.246 61.0079 200.881 62 197.5 62V66ZM187.183 61.9593C189.746 64.7255 193.281 66 197.5 66V62C194.119 62 191.754 61.0079 190.117 59.2408L187.183 61.9593ZM183.5 51.7C183.5 55.7709 184.678 59.2556 187.183 61.9593L190.117 59.2408C188.422 57.4111 187.5 54.9625 187.5 51.7H183.5ZM187.183 41.4408C184.678 44.1445 183.5 47.6292 183.5 51.7H187.5C187.5 48.4375 188.422 45.9889 190.117 44.1593L187.183 41.4408ZM197.5 37.4C193.281 37.4 189.746 38.6745 187.183 41.4408L190.117 44.1593C191.754 42.3922 194.119 41.4 197.5 41.4V37.4ZM207.817 41.4408C205.254 38.6745 201.719 37.4 197.5 37.4V41.4C200.881 41.4 203.246 42.3922 204.883 44.1593L207.817 41.4408Z" fill="white" mask="url(#path-1-inside-1)"/>
</svg>
