<svg width="125" height="56" viewBox="0 0 125 56" fill="none" xmlns="http://www.w3.org/2000/svg">
<path d="M9.99141 12.1185L9.61988 11.41V11.41L9.99141 12.1185ZM6.07023 15.3051L5.44988 14.8L6.07023 15.3051ZM3.568 19.9155L2.80988 19.66L3.568 19.9155ZM3.65028 31.0827L4.40067 30.8054L3.65028 31.0827ZM6.3927 35.582L5.80988 36.13H5.80988L6.3927 35.582ZM10.65 38.5125L10.96 37.7751L10.65 38.5125ZM20.2879 38.7413L20.5699 39.49L20.2879 38.7413ZM23.7977 36.0429L23.1555 35.5659L23.7977 36.0429ZM23.1841 45.027L22.6099 44.47H22.6099L23.1841 45.027ZM11.1267 46.1918L10.8036 46.9237L10.8036 46.9237L11.1267 46.1918ZM7.22172 43.8666L7.70681 43.2304C7.53129 43.0966 7.30827 43.0412 7.09053 43.0774C6.87279 43.1136 6.67968 43.2381 6.5569 43.4216L7.22172 43.8666ZM3.14344 49.9594L2.47862 49.5144C2.23989 49.8711 2.32514 50.3526 2.67181 50.6056L3.14344 49.9594ZM9.19932 52.7504L9.01988 53.53L9.19932 52.7504ZM28.8162 49.5524L28.2426 48.9948L28.8162 49.5524ZM32.7599 11.64H33.5599C33.5599 11.1982 33.2017 10.84 32.7599 10.84V11.64ZM26.0799 11.64V10.84C25.6381 10.84 25.2799 11.1982 25.2799 11.64H26.0799ZM24.5021 15.1354L25.1599 14.68L25.1599 14.68L24.5021 15.1354ZM23.1847 13.6846L23.7199 13.09V13.09L23.1847 13.6846ZM21.1887 12.3287L20.8175 13.0373H20.8175L21.1887 12.3287ZM18.5056 11.3135L18.3013 12.0869L18.5056 11.3135ZM9.24835 10.7015L8.87683 9.99301H8.87682L9.24835 10.7015ZM18.9142 9.76653L19.1185 8.99306L18.9142 9.76653ZM21.9311 10.9113L22.3023 10.2027H22.3023L21.9311 10.9113ZM24.2551 12.4954L24.7902 11.9007L24.2551 12.4954ZM24.4799 12.7022L23.9315 13.2848C24.1639 13.5035 24.5041 13.5632 24.7972 13.4366C25.0902 13.3101 25.2799 13.0214 25.2799 12.7022H24.4799ZM29.9635 50.6676L30.5372 51.2252L29.9635 50.6676ZM8.84045 54.3096L8.66101 55.0892H8.66101L8.84045 54.3096ZM1.56302 50.767L2.05988 50.14L2.05988 50.14L1.56302 50.767ZM1.39507 49.695L2.05988 50.14H2.05988L1.39507 49.695ZM6.37507 42.255L7.03988 42.7L7.03988 42.7L6.37507 42.255ZM7.5503 42.084L7.03988 42.7L7.03988 42.7L7.5503 42.084ZM11.773 44.7282L12.0962 43.9963L11.773 44.7282ZM22.0357 43.913L22.6099 44.47L22.0357 43.913ZM23.7599 38.4625H24.5599C24.5599 38.146 24.3734 37.8593 24.084 37.7311C23.7947 37.6029 23.457 37.6572 23.2226 37.8698L23.7599 38.4625ZM20.8518 40.2387L21.1338 40.9873L20.8518 40.2387ZM10.0298 39.9875L9.71974 40.7249H9.71974L10.0298 39.9875ZM5.22707 36.678L5.80988 36.13H5.80988L5.22707 36.678ZM2.14949 31.6373L1.39909 31.9146H1.39909L2.14949 31.6373ZM2.05176 19.4045L1.29365 19.1491L2.05176 19.4045ZM4.82953 14.2949L4.20919 13.7897L4.82953 14.2949ZM21.2309 17.9117L20.8999 18.64L20.8999 18.64L21.2309 17.9117ZM23.7756 19.6643L23.2099 20.23L23.7756 19.6643ZM25.4778 22.2011L24.7399 22.51L24.7399 22.51L25.4778 22.2011ZM25.4778 28.2789L24.7399 27.97L24.7399 27.97L25.4778 28.2789ZM21.2309 32.5683L21.562 33.2966L21.2309 32.5683ZM12.3842 30.8157L12.9499 30.25L12.3842 30.8157ZM10.6819 28.2789L9.94398 28.5878L10.6819 28.2789ZM10.6819 22.2011L11.4199 22.51L10.6819 22.2011ZM12.3842 19.6643L12.9499 20.23L12.3842 19.6643ZM14.5045 18.9774C14.6908 19.378 15.1667 19.5517 15.5673 19.3654C15.9679 19.179 16.1416 18.7032 15.9553 18.3026L14.5045 18.9774ZM15.5673 19.3654L14.8419 19.7028C14.9314 19.8951 15.0936 20.0441 15.2929 20.1169C15.4922 20.1896 15.7123 20.1802 15.9047 20.0908L15.5673 19.3654ZM15.958 18.3085C15.7716 17.9078 15.2958 17.7341 14.8952 17.9205C14.4946 18.1068 14.3209 18.5826 14.5072 18.9832L15.958 18.3085ZM15.5673 19.3654L15.9046 20.0908C16.097 20.0013 16.246 19.839 16.3188 19.6397C16.3915 19.4404 16.3821 19.2204 16.2926 19.028L15.5673 19.3654ZM13.5156 20.7957L12.9499 20.23L13.5156 20.7957ZM12.1578 22.8189L11.4199 22.51L12.1578 22.8189ZM12.1578 27.6611L11.4199 27.97L12.1578 27.6611ZM13.5156 29.6843L12.9499 30.25V30.25L13.5156 29.6843ZM15.5673 31.1146L15.9047 30.3892L15.5673 31.1146ZM20.5688 31.1117L20.2378 30.3834L20.5688 31.1117ZM22.6442 29.6843L23.2099 30.25V30.25L22.6442 29.6843ZM24.0019 27.6611L23.264 27.3522L23.264 27.3522L24.0019 27.6611ZM24.0019 22.8189L23.264 23.1278L23.264 23.1278L24.0019 22.8189ZM22.6442 20.7957L23.2099 20.23L22.6442 20.7957ZM20.5688 19.3683L20.2378 20.0966H20.2378L20.5688 19.3683ZM50.0033 11.9518L50.2767 12.7037L50.0033 11.9518ZM45.1108 14.8794L44.5699 14.29L45.1108 14.8794ZM41.8503 19.4464L42.5807 19.7727L41.8503 19.4464ZM41.8503 31.3937L41.1199 31.72L41.8503 31.3937ZM45.1108 35.9606L44.5699 36.55L45.1108 35.9606ZM50.0033 38.8882L50.2767 38.1363H50.2767L50.0033 38.8882ZM62.5688 38.4917L62.2378 37.7634L62.5688 38.4917ZM67.2011 35.1023L67.8001 35.6325C67.9492 35.4641 68.0205 35.2407 67.9965 35.017C67.9726 34.7934 67.8556 34.5902 67.6742 34.4571L67.2011 35.1023ZM62.2114 31.4432L62.6845 30.7981C62.3447 30.5488 61.8698 30.606 61.5988 30.9287L62.2114 31.4432ZM59.8245 33.5617L60.2591 34.2333L59.8245 33.5617ZM50.6818 32.9596L51.1999 32.35L50.6818 32.9596ZM48.0768 28.4039L47.2938 28.5678V28.5678L48.0768 28.4039ZM48.2389 27.7356L47.618 27.2311V27.2312L48.2389 27.7356ZM68.9399 27.44V28.24C69.3817 28.24 69.7399 27.8818 69.7399 27.44H68.9399ZM68.0226 19.3778L68.7799 19.12V19.12L68.0226 19.3778ZM65.4495 14.8187L64.8491 15.3474L65.4495 14.8187ZM61.4179 11.9367L61.7299 11.2L61.4179 11.9367ZM49.4565 10.4482L49.7299 11.2V11.2L49.4565 10.4482ZM62.0419 10.4633L61.7299 11.2V11.2L62.0419 10.4633ZM66.6503 13.7613L67.2507 13.2326L66.6503 13.7613ZM69.5372 18.8622L68.7799 19.12L69.5372 18.8622ZM49.9065 29.04V28.24C49.648 28.24 49.4054 28.365 49.2552 28.5754C49.1051 28.7859 49.0659 29.056 49.1501 29.3005L49.9065 29.04ZM51.718 31.7404L51.1999 32.35L51.718 31.7404ZM58.9553 32.2183L59.3899 32.89L58.9553 32.2183ZM61.414 29.868L60.7681 29.396L61.414 29.868ZM62.533 29.6949L62.0599 30.34L62.0599 30.34L62.533 29.6949ZM68.833 34.3149L68.3599 34.96L68.833 34.3149ZM69.1524 34.8507L68.3599 34.96V34.96L69.1524 34.8507ZM68.9899 35.453L69.6199 35.9461V35.9461L68.9899 35.453ZM63.2309 39.9483L62.8999 39.22L63.2309 39.9483ZM49.4565 40.3918L49.1831 41.1437L49.4565 40.3918ZM44.0289 37.1394L44.5699 36.55L44.0289 37.1394ZM40.3895 32.0464L41.1199 31.72L40.3895 32.0464ZM40.3895 18.7936L41.1199 19.12L40.3895 18.7936ZM44.0289 13.7006L44.5699 14.29L44.0289 13.7006ZM52.2694 16.3427L51.959 15.6054L52.2694 16.3427ZM59.8161 17.6651L59.2399 18.22L59.8161 17.6651ZM61.5396 22.141L60.7399 22.12V22.12L61.5396 22.141ZM48.2787 22.6698L48.8599 22.12L48.2787 22.6698ZM48.0611 22.0756L48.8599 22.12L48.0611 22.0756ZM48.6416 19.719L47.9133 19.3879L48.6416 19.719ZM50.0864 17.723L50.6299 18.31L50.0864 17.723ZM52.8903 17.8173L53.2008 18.5546L52.8903 17.8173ZM51.1734 18.897L51.7169 19.484L51.1734 18.897ZM50.0982 20.381L49.3699 20.05L50.0982 20.381ZM49.7783 21.32L48.999 21.1395C48.9439 21.3771 49.0003 21.6268 49.1521 21.8178C49.3038 22.0087 49.5344 22.12 49.7783 22.12V21.32ZM59.9036 21.32V22.12C60.1331 22.12 60.3516 22.0214 60.5035 21.8493C60.6553 21.6772 60.726 21.4482 60.6974 21.2204L59.9036 21.32ZM58.6636 18.7749L59.2399 18.22L58.6636 18.7749ZM87.9399 10.04H87.1399C87.1399 10.4818 87.498 10.84 87.9399 10.84V10.04ZM87.9399 18.84V18.04C87.498 18.04 87.1399 18.3982 87.1399 18.84H87.9399ZM88.0541 29.8537L88.8483 29.7575L88.0541 29.8537ZM88.4909 31.2569L89.1819 30.8538V30.8538L88.4909 31.2569ZM89.4171 32.04L89.0899 32.77L89.4171 32.04ZM93.1881 32.2165L93.2899 33.01L93.1881 32.2165ZM94.5247 31.7254L95.0599 32.32L95.0599 32.32L94.5247 31.7254ZM95.3853 31.5892L95.7108 30.8584L95.7108 30.8584L95.3853 31.5892ZM95.3308 40.5727L95.0599 39.82V39.82L95.3308 40.5727ZM92.0282 41.3351L92.1166 42.1302L92.0282 41.3351ZM84.3658 41.0161L84.1718 41.7922H84.1718L84.3658 41.0161ZM80.7285 39.3564L81.1999 38.71V38.71L80.7285 39.3564ZM78.2293 36.3274L78.9499 35.98L78.2293 36.3274ZM77.3399 18.84H78.1399C78.1399 18.3982 77.7817 18.04 77.3399 18.04V18.84ZM77.3399 10.04V10.84C77.7817 10.84 78.1399 10.4818 78.1399 10.04H77.3399ZM78.9399 3V2.2C78.498 2.2 78.1399 2.55817 78.1399 3H78.9399ZM73.1799 11.64V10.84C72.738 10.84 72.3799 11.1982 72.3799 11.64H73.1799ZM73.1799 17.24H72.3799C72.3799 17.6818 72.738 18.04 73.1799 18.04V17.24ZM79.6705 35.6326L78.9499 35.98L79.6705 35.6326ZM81.6712 38.0636L81.1999 38.71V38.71L81.6712 38.0636ZM84.7539 39.4639L84.9479 38.6878L84.7539 39.4639ZM91.8515 39.7449L91.7632 38.9498L91.8515 39.7449ZM94.2599 39.2446L94.4972 40.0086C94.8319 39.9046 95.0599 39.595 95.0599 39.2446H94.2599ZM94.2599 33.6261H95.0599C95.0599 33.374 94.9411 33.1367 94.7393 32.9857C94.5374 32.8346 94.2762 32.7875 94.0344 32.8586L94.2599 33.6261ZM93.3916 33.8035L93.2899 33.01H93.2899L93.3916 33.8035ZM88.7626 33.5L89.0899 32.77L88.7626 33.5ZM87.1088 32.0631L86.4178 32.4662L87.1088 32.0631ZM86.4657 30.0463L85.6715 30.1425L86.4657 30.0463ZM94.2599 17.24V18.04C94.7017 18.04 95.0599 17.6818 95.0599 17.24H94.2599ZM94.2599 11.64H95.0599C95.0599 11.1982 94.7017 10.84 94.2599 10.84V11.64ZM86.3399 3H87.1399C87.1399 2.55817 86.7817 2.2 86.3399 2.2V3ZM106.539 11.4649L106.34 10.69L106.539 11.4649ZM102.869 13.1148L102.41 12.46L102.869 13.1148ZM100.347 15.9133L99.6499 15.52L100.347 15.9133ZM100.374 23.9235L101.037 23.4769V23.4769L100.374 23.9235ZM102.902 26.2121L103.275 25.5041L102.902 26.2121ZM106.37 27.4905L106.19 28.27L106.37 27.4905ZM110.028 28.33L110.206 27.5501L110.028 28.33ZM113.035 29.3583L112.67 30.07V30.07L113.035 29.3583ZM114.173 30.3469L113.502 30.7825V30.7825L114.173 30.3469ZM114.101 33.278L114.737 33.7636L114.101 33.278ZM112.789 34.1834L113.058 34.9368L112.789 34.1834ZM105.756 33.777L106.13 33.07L105.756 33.777ZM103.331 31.905L103.912 31.3549C103.758 31.1928 103.544 31.1023 103.321 31.105C103.098 31.1078 102.886 31.2037 102.737 31.3695L103.331 31.905ZM98.9929 36.7198L98.3986 36.1843C98.2562 36.3423 98.1826 36.5505 98.1941 36.7629C98.2055 36.9752 98.3011 37.1743 98.4596 37.3161L98.9929 36.7198ZM103.375 39.0794L103.16 39.85L103.375 39.0794ZM113.932 39.4837L114.08 40.27L113.932 39.4837ZM117.999 38.0174L118.4 38.71L117.999 38.0174ZM120.886 35.3237L120.222 34.8775L120.886 35.3237ZM121.006 27.1565L120.342 27.6031L121.006 27.1565ZM118.458 24.7976L118.067 25.4952L118.458 24.7976ZM115.01 23.4695L114.83 24.249L115.01 23.4695ZM111.352 22.63L111.53 21.85V21.85L111.352 22.63ZM108.376 21.6769L108.71 20.95L108.376 21.6769ZM107.221 20.7554L107.877 20.2975L107.221 20.7554ZM107.178 17.8333L107.87 18.235L107.178 17.8333ZM116.154 18.2609L115.588 18.8266C115.9 19.1378 116.404 19.1392 116.717 18.8297L116.154 18.2609ZM120.501 13.9617L121.063 14.5305C121.219 14.3761 121.305 14.1644 121.3 13.9449C121.296 13.7254 121.201 13.5175 121.039 13.3698L120.501 13.9617ZM116.44 11.7292L116.66 10.96L116.44 11.7292ZM106.141 9.91514L106.34 10.69L106.141 9.91514ZM116.88 10.1908L116.66 10.96L116.88 10.1908ZM122.221 13.4107L121.64 13.96L121.64 13.96L122.221 13.4107ZM122.202 14.5288L121.64 13.96V13.96L122.202 14.5288ZM116.682 19.9888L116.12 19.42L116.682 19.9888ZM116.075 20.2187L116.029 21.0174L116.029 21.0174L116.075 20.2187ZM115.497 19.9216L116.12 19.42L115.497 19.9216ZM109.038 18.2155L108.68 17.5L108.68 17.5L109.038 18.2155ZM108.562 18.6367L109.254 19.0384L108.562 18.6367ZM108.533 19.8396L109.189 19.3816L108.533 19.8396ZM109.044 20.2231L108.71 20.95H108.71L109.044 20.2231ZM111.708 21.07L111.53 21.85L111.708 21.07ZM115.37 21.9105L115.55 21.131V21.131L115.37 21.9105ZM119.242 23.4024L118.85 24.1L119.242 23.4024ZM122.334 26.2635L122.997 25.8169V25.8169L122.334 26.2635ZM122.214 36.2163L122.878 36.6625V36.6625L122.214 36.2163ZM118.8 39.4026L118.4 38.71L118.8 39.4026ZM114.227 41.0563L114.08 40.27L114.227 41.0563ZM102.945 40.6206L103.16 39.85L102.945 40.6206ZM97.3065 37.3179L96.7331 37.8758L97.3065 37.3179ZM97.2855 36.2245L96.6912 35.689L97.2855 36.2245ZM102.746 30.1645L102.151 29.629L102.746 30.1645ZM103.962 30.1973L104.585 29.6947L103.962 30.1973ZM106.504 32.363L106.13 33.07V33.07L106.504 32.363ZM112.251 32.6766L112.52 33.43V33.43L112.251 32.6766ZM112.829 32.307L113.465 32.7925V32.7925L112.829 32.307ZM112.831 31.2181L113.502 30.7825V30.7825L112.831 31.2181ZM112.304 30.7817L112.67 30.07V30.07L112.304 30.7817ZM109.672 29.89L109.494 30.6699L109.494 30.6699L109.672 29.89ZM106.01 29.0495L106.19 28.27L106.01 29.0495ZM102.157 27.6279L101.785 28.3359L102.157 27.6279ZM99.0461 24.8165L98.3823 25.2631L99.0461 24.8165ZM98.9532 15.1267L99.6499 15.52L98.9532 15.1267ZM101.95 11.8052L102.41 12.46L101.95 11.8052ZM10.3629 12.827C11.7467 12.1013 13.3464 11.72 15.1999 11.72V10.12C13.1198 10.12 11.2599 10.55 9.61988 11.41L10.3629 12.827ZM6.69058 15.8103C7.69037 14.5825 8.90957 13.5891 10.3629 12.827L9.61988 11.41C7.97987 12.27 6.58989 13.4 5.44988 14.8L6.69058 15.8103ZM4.32612 20.1709C4.88957 18.4987 5.68043 17.0508 6.69058 15.8103L5.44988 14.8C4.30988 16.2 3.42989 17.82 2.80988 19.66L4.32612 20.1709ZM3.47988 25.3C3.47988 23.5557 3.76095 21.8482 4.32612 20.1709L2.80988 19.66C2.18988 21.5 1.87988 23.38 1.87988 25.3H3.47988ZM4.40067 30.8054C3.79376 29.1631 3.47988 27.3336 3.47988 25.3H1.87988C1.87988 27.5 2.21988 29.52 2.89988 31.36L4.40067 30.8054ZM6.97551 35.034C5.87195 33.8603 5.01136 32.4578 4.40067 30.8054L2.89988 31.36C3.57989 33.2 4.54988 34.79 5.80988 36.13L6.97551 35.034ZM10.96 37.7751C9.39832 37.1184 8.07634 36.2047 6.97551 35.034L5.80988 36.13C7.06989 37.47 8.57987 38.51 10.3399 39.25L10.96 37.7751ZM16.2199 38.76C14.245 38.76 12.4995 38.4224 10.96 37.7751L10.3399 39.25C12.0999 39.99 14.0599 40.36 16.2199 40.36V38.76ZM20.006 37.9927C18.6094 38.5186 17.3515 38.76 16.2199 38.76V40.36C17.5799 40.36 19.0299 40.07 20.5699 39.49L20.006 37.9927ZM23.1555 35.5659C22.2871 36.7349 21.2412 37.5275 20.006 37.9927L20.5699 39.49C22.1099 38.91 23.3999 37.92 24.4399 36.52L23.1555 35.5659ZM24.4399 34.92C23.9337 34.92 23.4573 35.1595 23.1555 35.5659L24.4399 36.52V34.92ZM24.5599 34.92H24.4399V36.52H24.5599V34.92ZM26.1599 36.52C26.1599 35.6363 25.4435 34.92 24.5599 34.92V36.52V36.52H26.1599ZM26.1599 39.34V36.52H24.5599V39.34H26.1599ZM23.7583 45.5841C25.3821 43.9103 26.1599 41.7841 26.1599 39.34H24.5599C24.5599 41.4202 23.9098 43.1301 22.6099 44.47L23.7583 45.5841ZM16.5199 48.08C19.5055 48.08 22.0381 47.3572 23.7583 45.5841L22.6099 44.47C21.3101 45.8098 19.2803 46.48 16.5199 46.48V48.08ZM10.8036 46.9237C12.5655 47.7016 14.4782 48.08 16.5199 48.08V46.48C14.6799 46.48 12.9899 46.14 11.4499 45.46L10.8036 46.9237ZM6.73663 44.5027C8.02832 45.4877 9.38395 46.2968 10.8036 46.9237L11.4499 45.46C10.1523 44.887 8.90466 44.1438 7.70681 43.2304L6.73663 44.5027ZM3.80825 50.4044L7.88653 44.3116L6.5569 43.4216L2.47862 49.5144L3.80825 50.4044ZM9.37875 51.9708C7.31781 51.4964 5.3993 50.6154 3.61506 49.3132L2.67181 50.6056C4.62495 52.0311 6.74117 53.0055 9.01988 53.53L9.37875 51.9708ZM16.6999 52.8C14.22 52.8 11.7804 52.5235 9.37875 51.9708L9.01988 53.53C11.5399 54.11 14.0999 54.4 16.6999 54.4V52.8ZM28.2426 48.9948C25.8723 51.4333 22.1331 52.8 16.6999 52.8V54.4C22.3801 54.4 26.61 52.9699 29.3899 50.11L28.2426 48.9948ZM31.9599 37.54C31.9599 42.8057 30.6361 46.5324 28.2426 48.9948L29.3899 50.11C32.1698 47.2501 33.5599 43.0602 33.5599 37.54H31.9599ZM31.9599 11.64V37.54H33.5599V11.64H31.9599ZM26.0799 12.44H32.7599V10.84H26.0799V12.44ZM26.8799 14.68V11.64H25.2799V14.68H26.8799ZM25.2799 16.28C26.1635 16.28 26.8799 15.5637 26.8799 14.68H25.2799V16.28ZM25.1599 16.28H25.2799V14.68H25.1599V16.28ZM23.8444 15.5907C24.1432 16.0224 24.6348 16.28 25.1599 16.28V14.68L25.1599 14.68L23.8444 15.5907ZM22.6495 14.2793C23.1813 14.7579 23.5713 15.1963 23.8444 15.5907L25.1599 14.68C24.7999 14.16 24.3199 13.63 23.7199 13.09L22.6495 14.2793ZM20.8175 13.0373C21.5591 13.4258 22.1644 13.8426 22.6495 14.2793L23.7199 13.09C23.1199 12.55 22.3999 12.06 21.5599 11.62L20.8175 13.0373ZM18.3013 12.0869C19.263 12.341 20.0985 12.6607 20.8175 13.0373L21.5599 11.62C20.7199 11.18 19.7699 10.82 18.7099 10.54L18.3013 12.0869ZM15.1999 11.72C16.3644 11.72 17.3947 11.8475 18.3013 12.0869L18.7099 10.54C17.6499 10.26 16.4799 10.12 15.1999 10.12V11.72ZM15.1999 8.52C12.8934 8.52 10.7731 8.99863 8.87683 9.99301L9.61988 11.41C11.2599 10.55 13.1199 10.12 15.1999 10.12V8.52ZM19.1185 8.99306C17.9051 8.67253 16.5954 8.52 15.1999 8.52V10.12C16.4799 10.12 17.6499 10.26 18.7099 10.54L19.1185 8.99306ZM22.3023 10.2027C21.3413 9.69928 20.2767 9.29901 19.1185 8.99306L18.7099 10.54C19.7699 10.82 20.7199 11.18 21.5599 11.62L22.3023 10.2027ZM24.7902 11.9007C24.0754 11.2574 23.2407 10.6942 22.3023 10.2027L21.5599 11.62C22.3999 12.06 23.1199 12.55 23.7199 13.09L24.7902 11.9007ZM25.0282 12.1197C24.9504 12.0465 24.8711 11.9735 24.7902 11.9007L23.7199 13.09C23.7921 13.155 23.8627 13.2199 23.9315 13.2848L25.0282 12.1197ZM23.6799 10.84V12.7022H25.2799V10.84H23.6799ZM25.2799 9.24C24.3962 9.24 23.6799 9.95635 23.6799 10.84H25.2799V9.24ZM33.5599 9.24H25.2799V10.84H33.5599V9.24ZM35.1599 10.84C35.1599 9.95635 34.4435 9.24 33.5599 9.24V10.84H33.5599H35.1599ZM35.1599 37.54V10.84H33.5599V37.54H35.1599ZM30.5372 51.2252C33.7039 47.9674 35.1599 43.3141 35.1599 37.54H33.5599C33.5599 43.0602 32.1698 47.2501 29.3899 50.11L30.5372 51.2252ZM16.6999 56C22.6263 56 27.3472 54.507 30.5372 51.2252L29.3899 50.11C26.61 52.9699 22.3801 54.4 16.6999 54.4V56ZM8.66101 55.0892C11.2994 55.6965 13.9798 56 16.6999 56V54.4C14.0999 54.4 11.5399 54.11 9.01988 53.53L8.66101 55.0892ZM1.06615 51.394C3.36367 53.2147 5.89862 54.4534 8.66101 55.0892L9.01988 53.53C6.49987 52.95 4.1799 51.82 2.05988 50.14L1.06615 51.394ZM0.730255 49.25C0.266395 49.943 0.412575 50.8761 1.06616 51.394L2.05988 50.14L2.05988 50.14L0.730255 49.25ZM5.71025 41.81L0.730254 49.25L2.05988 50.14L7.03988 42.7L5.71025 41.81ZM6.80947 41.1167C6.36148 41.1819 5.96207 41.4338 5.71025 41.81L7.03988 42.7H7.03988L6.80947 41.1167ZM8.06071 41.468C7.71212 41.1791 7.25747 41.0515 6.80947 41.1167L7.03988 42.7H7.03988L8.06071 41.468ZM12.0962 43.9963C10.7014 43.3805 9.35618 42.5414 8.06071 41.468L7.03988 42.7C8.43989 43.86 9.90988 44.78 11.4499 45.46L12.0962 43.9963ZM16.5199 44.88C14.8816 44.88 13.4143 44.5784 12.0962 43.9963L11.4499 45.46C12.9899 46.14 14.6799 46.48 16.5199 46.48V44.88ZM21.4615 43.3559C20.5812 44.2633 19.0533 44.88 16.5199 44.88V46.48C19.2804 46.48 21.3101 45.8098 22.6099 44.47L21.4615 43.3559ZM22.9599 39.34C22.9599 41.0556 22.4379 42.3495 21.4615 43.3559L22.6099 44.47C23.9098 43.1301 24.5599 41.4202 24.5599 39.34H22.9599ZM22.9599 38.4625V39.34H24.5599V38.4625H22.9599ZM21.1338 40.9873C22.3135 40.543 23.3699 39.8958 24.2972 39.0552L23.2226 37.8698C22.4438 38.5757 21.5605 39.1169 20.5699 39.49L21.1338 40.9873ZM16.2199 41.96C17.8082 41.96 19.4503 41.6214 21.1338 40.9873L20.5699 39.49C19.0299 40.07 17.5799 40.36 16.2199 40.36V41.96ZM9.71974 40.7249C11.7002 41.5576 13.8748 41.96 16.2199 41.96V40.36C14.0599 40.36 12.0999 39.99 10.3399 39.25L9.71974 40.7249ZM4.64425 37.226C6.06344 38.7353 7.76143 39.9016 9.71974 40.7249L10.3399 39.25C8.57987 38.51 7.06989 37.47 5.80988 36.13L4.64425 37.226ZM1.39909 31.9146C2.1484 33.9422 3.22779 35.7196 4.64425 37.226L5.80988 36.13C4.54988 34.79 3.57989 33.2 2.89988 31.36L1.39909 31.9146ZM0.279883 25.3C0.279883 27.6665 0.645992 29.8768 1.39909 31.9146L2.89988 31.36C2.21988 29.52 1.87988 27.5 1.87988 25.3H0.279883ZM1.29365 19.1491C0.618807 21.1518 0.279883 23.2043 0.279883 25.3H1.87988C1.87988 23.38 2.18988 21.5 2.80988 19.66L1.29365 19.1491ZM4.20919 13.7897C2.93931 15.3492 1.9702 17.1412 1.29365 19.1491L2.80988 19.66C3.42989 17.82 4.30988 16.2 5.44988 14.8L4.20919 13.7897ZM8.87682 9.99301C7.05018 10.9509 5.48941 12.2175 4.20919 13.7897L5.44988 14.8C6.58989 13.4 7.97987 12.27 9.61988 11.41L8.87682 9.99301ZM18.0799 16.44C16.8295 16.44 15.6462 16.6818 14.5551 17.1892L15.2299 18.64C16.0899 18.24 17.0399 18.04 18.0799 18.04V16.44ZM21.562 17.1834C20.4668 16.6856 19.3002 16.44 18.0799 16.44V18.04C19.0799 18.04 20.0199 18.24 20.8999 18.64L21.562 17.1834ZM24.3413 19.0986C23.5408 18.2981 22.6103 17.6599 21.562 17.1834L20.8999 18.64C21.7799 19.04 22.5499 19.57 23.2099 20.23L24.3413 19.0986ZM26.2158 21.8922C25.7753 20.84 25.1482 19.9056 24.3413 19.0986L23.2099 20.23C23.8699 20.89 24.3799 21.65 24.7399 22.51L26.2158 21.8922ZM26.8799 25.24C26.8799 24.0743 26.6602 22.9537 26.2158 21.8922L24.7399 22.51C25.0999 23.37 25.2799 24.28 25.2799 25.24H26.8799ZM26.2158 28.5878C26.6602 27.5263 26.8799 26.4057 26.8799 25.24H25.2799C25.2799 26.2 25.0999 27.11 24.7399 27.97L26.2158 28.5878ZM24.3413 31.3814C25.1482 30.5744 25.7753 29.64 26.2158 28.5878L24.7399 27.97C24.3799 28.83 23.8699 29.59 23.2099 30.25L24.3413 31.3814ZM21.562 33.2966C22.6103 32.8201 23.5408 32.1819 24.3413 31.3814L23.2099 30.25C22.5499 30.91 21.7799 31.44 20.8999 31.84L21.562 33.2966ZM18.0799 34.04C19.3002 34.04 20.4668 33.7944 21.562 33.2966L20.8999 31.84C20.0199 32.24 19.0799 32.44 18.0799 32.44V34.04ZM14.5551 33.2908C15.6462 33.7982 16.8295 34.04 18.0799 34.04V32.44C17.0399 32.44 16.0899 32.24 15.2299 31.84L14.5551 33.2908ZM11.8185 31.3814C12.613 32.1759 13.5282 32.8131 14.5551 33.2908L15.2299 31.84C14.3699 31.44 13.6099 30.91 12.9499 30.25L11.8185 31.3814ZM9.94398 28.5878C10.3844 29.64 11.0115 30.5744 11.8185 31.3814L12.9499 30.25C12.2899 29.59 11.7799 28.83 11.4199 27.97L9.94398 28.5878ZM9.27988 25.24C9.27988 26.4057 9.49961 27.5263 9.94398 28.5878L11.4199 27.97C11.0599 27.11 10.8799 26.2 10.8799 25.24H9.27988ZM9.94398 21.8922C9.49961 22.9537 9.27988 24.0743 9.27988 25.24H10.8799C10.8799 24.28 11.0599 23.37 11.4199 22.51L9.94398 21.8922ZM11.8185 19.0986C11.0115 19.9056 10.3844 20.84 9.94398 21.8922L11.4199 22.51C11.7799 21.65 12.2899 20.89 12.9499 20.23L11.8185 19.0986ZM14.5551 17.1892C13.5282 17.6669 12.613 18.3041 11.8185 19.0986L12.9499 20.23C13.6099 19.57 14.3699 19.04 15.2299 18.64L14.5551 17.1892ZM15.9553 18.3026L15.6179 17.5772L14.1671 18.252L14.5045 18.9774L15.9553 18.3026ZM14.1671 18.252L14.5045 18.9774L15.9553 18.3026L15.6179 17.5772L14.1671 18.252ZM15.9047 20.0908C16.5336 19.7982 17.2503 19.64 18.0799 19.64V18.04C17.0398 18.04 16.0899 18.24 15.2299 18.64L15.9047 20.0908ZM14.5072 18.9832L14.8419 19.7028L16.2926 19.028L15.958 18.3085L14.5072 18.9832ZM16.2926 19.028L15.958 18.3085L14.5072 18.9832L14.8419 19.7028L16.2926 19.028ZM14.0813 21.3614C14.6067 20.8359 15.2116 20.4131 15.9046 20.0908L15.2299 18.64C14.3699 19.04 13.6099 19.57 12.9499 20.23L14.0813 21.3614ZM12.8958 23.1278C13.1753 22.46 13.5682 21.8744 14.0813 21.3614L12.9499 20.23C12.2899 20.89 11.7799 21.65 11.4199 22.51L12.8958 23.1278ZM12.4799 25.24C12.4799 24.4857 12.6201 23.7863 12.8958 23.1278L11.4199 22.51C11.0599 23.37 10.8799 24.28 10.8799 25.24H12.4799ZM12.8958 27.3522C12.6201 26.6937 12.4799 25.9943 12.4799 25.24H10.8799C10.8799 26.2 11.0599 27.11 11.4199 27.97L12.8958 27.3522ZM14.0813 29.1186C13.5682 28.6056 13.1753 28.02 12.8958 27.3522L11.4199 27.97C11.7799 28.83 12.2899 29.59 12.9499 30.25L14.0813 29.1186ZM15.9047 30.3892C15.2116 30.0669 14.6067 29.6441 14.0813 29.1186L12.9499 30.25C13.6099 30.91 14.3699 31.44 15.2299 31.84L15.9047 30.3892ZM18.0799 30.84C17.2503 30.84 16.5336 30.6818 15.9047 30.3892L15.2299 31.84C16.0899 32.24 17.0398 32.44 18.0799 32.44V30.84ZM20.2378 30.3834C19.573 30.6856 18.8596 30.84 18.0799 30.84V32.44C19.0799 32.44 20.0199 32.24 20.8999 31.84L20.2378 30.3834ZM22.0785 29.1186C21.559 29.6381 20.9495 30.0599 20.2378 30.3834L20.8999 31.84C21.7799 31.44 22.5499 30.91 23.2099 30.25L22.0785 29.1186ZM23.264 27.3522C22.9844 28.02 22.5915 28.6056 22.0785 29.1186L23.2099 30.25C23.8699 29.59 24.3799 28.83 24.7399 27.97L23.264 27.3522ZM23.6799 25.24C23.6799 25.9943 23.5396 26.6937 23.264 27.3522L24.7399 27.97C25.0999 27.11 25.2799 26.2 25.2799 25.24H23.6799ZM23.264 23.1278C23.5396 23.7863 23.6799 24.4857 23.6799 25.24H25.2799C25.2799 24.28 25.0999 23.37 24.7399 22.51L23.264 23.1278ZM22.0785 21.3614C22.5915 21.8744 22.9844 22.46 23.264 23.1278L24.7399 22.51C24.3799 21.65 23.8699 20.89 23.2099 20.23L22.0785 21.3614ZM20.2378 20.0966C20.9495 20.4201 21.559 20.8419 22.0785 21.3614L23.2099 20.23C22.5499 19.57 21.7799 19.04 20.8999 18.64L20.2378 20.0966ZM18.0799 19.64C18.8596 19.64 19.573 19.7944 20.2378 20.0966L20.8999 18.64C20.0199 18.24 19.0799 18.04 18.0799 18.04V19.64ZM50.2767 12.7037C52.0706 12.0513 53.9945 11.72 56.0599 11.72V10.12C53.8199 10.12 51.7099 10.48 49.7299 11.2L50.2767 12.7037ZM45.6518 15.4688C46.9469 14.2801 48.482 13.3563 50.2767 12.7037L49.7299 11.2C47.7499 11.92 46.0299 12.95 44.5699 14.29L45.6518 15.4688ZM42.5807 19.7727C43.3352 18.0841 44.3589 16.6553 45.6518 15.4688L44.5699 14.29C43.1099 15.63 41.9599 17.24 41.1199 19.12L42.5807 19.7727ZM41.4599 25.42C41.4599 23.2964 41.8434 21.4228 42.5807 19.7727L41.1199 19.12C40.2799 21 39.8599 23.1 39.8599 25.42H41.4599ZM42.5807 31.0673C41.8434 29.4172 41.4599 27.5436 41.4599 25.42H39.8599C39.8599 27.74 40.2799 29.84 41.1199 31.72L42.5807 31.0673ZM45.6518 35.3712C44.3589 34.1847 43.3352 32.7559 42.5807 31.0673L41.1199 31.72C41.9599 33.6 43.1099 35.21 44.5699 36.55L45.6518 35.3712ZM50.2767 38.1363C48.482 37.4837 46.9469 36.5599 45.6518 35.3712L44.5699 36.55C46.0299 37.89 47.7499 38.92 49.7299 39.64L50.2767 38.1363ZM56.0599 39.12C53.9945 39.12 52.0706 38.7887 50.2767 38.1363L49.7299 39.64C51.7099 40.36 53.8199 40.72 56.0599 40.72V39.12ZM62.2378 37.7634C60.2406 38.6712 58.1859 39.12 56.0599 39.12V40.72C58.4199 40.72 60.6999 40.22 62.8999 39.22L62.2378 37.7634ZM66.602 34.5721C65.4136 35.9148 63.965 36.9783 62.2378 37.7634L62.8999 39.22C64.8224 38.3461 66.4562 37.1509 67.8001 35.6325L66.602 34.5721ZM61.7383 32.0883L66.728 35.7474L67.6742 34.4571L62.6845 30.7981L61.7383 32.0883ZM60.2591 34.2333C61.2189 33.6122 62.0739 32.8509 62.8241 31.9576L61.5988 30.9287C60.947 31.7048 60.2109 32.3587 59.3899 32.89L60.2591 34.2333ZM55.6399 35.48C57.3604 35.48 58.9285 35.0943 60.2591 34.2333L59.3899 32.89C58.3699 33.55 57.12 33.88 55.6399 33.88V35.48ZM50.1636 33.5691C51.6873 34.8643 53.548 35.48 55.6399 35.48V33.88C53.8797 33.88 52.3998 33.3699 51.1999 32.35L50.1636 33.5691ZM47.2938 28.5678C47.7177 30.5929 48.6616 32.2924 50.1636 33.5691L51.1999 32.35C49.9999 31.33 49.2199 29.9601 48.8599 28.24L47.2938 28.5678ZM47.618 27.2312C47.3142 27.6051 47.1951 28.0961 47.2938 28.5678L48.8599 28.24V28.24L47.618 27.2312ZM48.8599 26.64C48.378 26.64 47.9218 26.8572 47.618 27.2311L48.8599 28.24V26.64ZM68.9399 26.64H48.8599V28.24H68.9399V26.64ZM68.1399 25.42V27.44H69.7399V25.42H68.1399ZM67.2652 19.6356C67.8401 21.3243 68.1399 23.2465 68.1399 25.42H69.7399C69.7399 23.1 69.4199 21 68.7799 19.12L67.2652 19.6356ZM64.8491 15.3474C65.875 16.5124 66.6855 17.9327 67.2652 19.6356L68.7799 19.12C68.1399 17.24 67.2299 15.63 66.0499 14.29L64.8491 15.3474ZM61.1059 12.6733C62.5926 13.303 63.8332 14.1937 64.8491 15.3474L66.0499 14.29C64.8699 12.95 63.4299 11.92 61.7299 11.2L61.1059 12.6733ZM56.0599 11.72C57.9526 11.72 59.6268 12.0469 61.1059 12.6733L61.7299 11.2C60.0299 10.48 58.1399 10.12 56.0599 10.12V11.72ZM56.0599 8.52C53.6453 8.52 51.3492 8.90867 49.1831 9.69633L49.7299 11.2C51.7099 10.48 53.8199 10.12 56.0599 10.12V8.52ZM62.3539 9.72669C60.4329 8.91312 58.3272 8.52 56.0599 8.52V10.12C58.1399 10.12 60.0299 10.48 61.7299 11.2L62.3539 9.72669ZM67.2507 13.2326C65.9066 11.7062 64.2672 10.537 62.3539 9.72669L61.7299 11.2C63.4299 11.92 64.8699 12.95 66.0499 14.29L67.2507 13.2326ZM70.2945 18.6044C69.5942 16.5473 68.5848 14.7476 67.2507 13.2326L66.0499 14.29C67.2299 15.63 68.1399 17.24 68.7799 19.12L70.2945 18.6044ZM71.3399 25.42C71.3399 22.9534 70.9996 20.6757 70.2945 18.6044L68.7799 19.12C69.4199 21 69.7399 23.1 69.7399 25.42H71.3399ZM71.3399 28.24V25.42H69.7399V28.24H71.3399ZM69.7399 29.84C70.6235 29.84 71.3399 29.1237 71.3399 28.24H69.7399V28.24V29.84ZM49.9065 29.84H69.7399V28.24H49.9065V29.84ZM52.2361 31.1309C51.528 30.529 51.0004 29.7595 50.6629 28.7795L49.1501 29.3005C49.5762 30.5379 50.2623 31.5531 51.1999 32.35L52.2361 31.1309ZM55.6399 32.28C54.212 32.28 53.1126 31.8759 52.2361 31.1309L51.1999 32.35C52.3998 33.3699 53.8797 33.88 55.6399 33.88V32.28ZM58.5207 31.5467C57.8111 32.0058 56.8791 32.28 55.6399 32.28V33.88C57.12 33.88 58.37 33.5499 59.3899 32.89L58.5207 31.5467ZM60.7681 29.396C60.1163 30.2878 59.3669 30.9991 58.5207 31.5467L59.3899 32.89C60.4099 32.23 61.2999 31.38 62.0599 30.34L60.7681 29.396ZM61.8153 28.7588C61.3955 28.8238 61.0187 29.053 60.7681 29.396L62.0599 30.34H62.0599L61.8153 28.7588ZM63.0061 29.0498C62.6635 28.7985 62.2351 28.6939 61.8153 28.7588L62.0599 30.34V30.34L63.0061 29.0498ZM69.3061 33.6698L63.0061 29.0498L62.0599 30.34L68.3599 34.96L69.3061 33.6698ZM69.9449 34.7415C69.8857 34.3125 69.6553 33.9258 69.3061 33.6698L68.3599 34.96V34.96L69.9449 34.7415ZM69.6199 35.9461C69.8868 35.6051 70.004 35.1705 69.9449 34.7415L68.3599 34.96L69.6199 35.9461ZM63.562 40.6766C65.9879 39.5739 68.0158 37.9958 69.6199 35.9461L68.3599 34.96C66.9199 36.8 65.0999 38.22 62.8999 39.22L63.562 40.6766ZM56.0599 42.32C58.6539 42.32 61.1592 41.7688 63.562 40.6766L62.8999 39.22C60.6999 40.22 58.4199 40.72 56.0599 40.72V42.32ZM49.1831 41.1437C51.3492 41.9313 53.6453 42.32 56.0599 42.32V40.72C53.8199 40.72 51.7099 40.36 49.7299 39.64L49.1831 41.1437ZM43.488 37.7288C45.1129 39.2201 47.0177 40.3563 49.1831 41.1437L49.7299 39.64C47.7499 38.92 46.0299 37.89 44.5699 36.55L43.488 37.7288ZM39.6591 32.3727C40.5846 34.4441 41.8608 36.2353 43.488 37.7288L44.5699 36.55C43.1099 35.21 41.9599 33.6 41.1199 31.72L39.6591 32.3727ZM38.2599 25.42C38.2599 27.9364 38.7163 30.2628 39.6591 32.3727L41.1199 31.72C40.2799 29.84 39.8599 27.74 39.8599 25.42H38.2599ZM39.6591 18.4673C38.7163 20.5772 38.2599 22.9036 38.2599 25.42H39.8599C39.8599 23.1 40.2799 21 41.1199 19.12L39.6591 18.4673ZM43.488 13.1112C41.8608 14.6047 40.5846 16.3959 39.6591 18.4673L41.1199 19.12C41.9599 17.24 43.1099 15.63 44.5699 14.29L43.488 13.1112ZM49.1831 9.69633C47.0177 10.4837 45.1129 11.6199 43.488 13.1112L44.5699 14.29C46.0299 12.95 47.7499 11.92 49.7299 11.2L49.1831 9.69633ZM55.2199 15C54.0509 15 52.9526 15.187 51.959 15.6054L52.5799 17.08C53.3399 16.76 54.2198 16.6 55.2199 16.6V15ZM60.3924 17.1102C59.0207 15.6857 57.2493 15 55.2199 15V16.6C56.8601 16.6 58.2 17.1401 59.2399 18.22L60.3924 17.1102ZM62.3393 22.1621C62.3904 20.2206 61.7343 18.5037 60.3924 17.1102L59.2399 18.22C60.2799 19.3 60.7799 20.6 60.7399 22.12L62.3393 22.1621ZM60.7399 23.72C61.6071 23.72 62.3165 23.0291 62.3393 22.1621L60.7399 22.12V22.12V23.72ZM48.8599 23.72H60.7399V22.12H48.8599V23.72ZM47.6976 23.2195C47.9998 23.539 48.4201 23.72 48.8599 23.72V22.12L47.6976 23.2195ZM47.2623 22.0312C47.2379 22.4703 47.3953 22.9001 47.6976 23.2195L48.8599 22.12L47.2623 22.0312ZM47.9133 19.3879C47.5316 20.2276 47.3134 21.112 47.2623 22.0312L48.8599 22.12C48.8999 21.4 49.0699 20.71 49.3699 20.05L47.9133 19.3879ZM49.5428 17.136C48.8493 17.7782 48.3026 18.5314 47.9133 19.3879L49.3699 20.05C49.6699 19.39 50.0899 18.81 50.6299 18.31L49.5428 17.136ZM51.959 15.6054C51.0478 15.989 50.235 16.4951 49.5428 17.136L50.6299 18.31C51.1699 17.81 51.8199 17.4 52.5799 17.08L51.959 15.6054ZM53.2008 18.5546C53.7272 18.333 54.3889 18.2 55.2199 18.2V16.6C54.2198 16.6 53.3399 16.76 52.5799 17.08L53.2008 18.5546ZM51.7169 19.484C52.1048 19.1249 52.5919 18.811 53.2008 18.5546L52.5799 17.08C51.8199 17.4 51.1699 17.81 50.6299 18.31L51.7169 19.484ZM50.8265 20.7121C51.0372 20.2486 51.3305 19.8419 51.7169 19.484L50.6299 18.31C50.0899 18.81 49.6699 19.39 49.3699 20.05L50.8265 20.7121ZM50.5577 21.5005C50.6196 21.2334 50.7087 20.9711 50.8265 20.7121L49.3699 20.05C49.2092 20.4034 49.0854 20.7665 48.999 21.1395L50.5577 21.5005ZM59.9036 20.52H49.7783V22.12H59.9036V20.52ZM58.0874 19.3298C58.6807 19.946 59.0106 20.6287 59.1098 21.4196L60.6974 21.2204C60.5529 20.0689 60.0597 19.0714 59.2399 18.22L58.0874 19.3298ZM55.2199 18.2C56.47 18.2 57.3788 18.594 58.0874 19.3298L59.2399 18.22C58.2 17.1402 56.8601 16.6 55.2199 16.6V18.2ZM78.1399 0.600003C77.2562 0.600003 76.5399 1.31635 76.5399 2.2H78.1399V0.600003ZM87.1399 0.600003H78.1399V2.2H87.1399V0.600003ZM88.7399 2.2C88.7399 1.31635 88.0235 0.600003 87.1399 0.600003V2.2H88.7399ZM88.7399 10.04V2.2H87.1399V10.04H88.7399ZM95.0599 9.24H87.9399V10.84H95.0599V9.24ZM96.6599 10.84C96.6599 9.95635 95.9435 9.24 95.0599 9.24V10.84H96.6599ZM96.6599 18.04V10.84H95.0599V18.04H96.6599ZM95.0599 19.64C95.9435 19.64 96.6599 18.9237 96.6599 18.04H95.0599V19.64ZM87.9399 19.64H95.0599V18.04H87.9399V19.64ZM88.7399 27.76V18.84H87.1399V27.76H88.7399ZM88.8483 29.7575C88.7774 29.1726 88.7399 28.5081 88.7399 27.76H87.1399C87.1399 28.56 87.1799 29.29 87.2599 29.95L88.8483 29.7575ZM89.1819 30.8538C89.0311 30.5953 88.9071 30.2427 88.8483 29.7575L87.2599 29.95C87.3399 30.6101 87.5199 31.18 87.7999 31.66L89.1819 30.8538ZM89.7444 31.31C89.424 31.1664 89.2703 31.0053 89.1819 30.8538L87.7999 31.66C88.0797 32.1397 88.5095 32.5098 89.0899 32.77L89.7444 31.31ZM91.3999 31.56C90.561 31.56 90.0408 31.4429 89.7444 31.31L89.0899 32.77C89.6699 33.03 90.4399 33.16 91.3999 33.16V31.56ZM93.0864 31.423C92.3371 31.5191 91.7828 31.56 91.3999 31.56V33.16C91.8799 33.16 92.5099 33.11 93.2899 33.01L93.0864 31.423ZM93.9895 31.1307C93.9191 31.1941 93.685 31.3463 93.0864 31.423L93.2899 33.01C94.0703 32.9099 94.6601 32.6798 95.0599 32.32L93.9895 31.1307ZM95.7108 30.8584C95.1336 30.6013 94.4592 30.708 93.9895 31.1307L95.0599 32.32V32.32L95.7108 30.8584ZM96.6599 32.32C96.6599 31.6881 96.288 31.1155 95.7108 30.8584L95.0599 32.32V32.32H96.6599ZM96.6599 39.82V32.32H95.0599V39.82H96.6599ZM95.6018 41.3254C96.2366 41.0969 96.6599 40.4947 96.6599 39.82H95.0599V39.82L95.6018 41.3254ZM92.1166 42.1302C93.3184 41.9967 94.4812 41.7289 95.6018 41.3254L95.0599 39.82C94.0599 40.18 93.0199 40.42 91.9399 40.54L92.1166 42.1302ZM88.7599 42.32C89.8615 42.32 90.9805 42.2564 92.1166 42.1302L91.9399 40.54C90.8599 40.66 89.7999 40.72 88.7599 40.72V42.32ZM84.1718 41.7922C85.5962 42.1483 87.1284 42.32 88.7599 42.32V40.72C87.2399 40.72 85.8399 40.56 84.5599 40.24L84.1718 41.7922ZM80.2572 40.0028C81.4011 40.8369 82.7141 41.4278 84.1718 41.7922L84.5599 40.24C83.2799 39.92 82.1599 39.41 81.1999 38.71L80.2572 40.0028ZM77.5086 36.6749C78.1576 38.0208 79.0743 39.1403 80.2572 40.0028L81.1999 38.71C80.2399 38.01 79.4899 37.1 78.9499 35.98L77.5086 36.6749ZM76.5399 31.9C76.5399 33.674 76.8386 35.2852 77.5086 36.6749L78.9499 35.98C78.4099 34.86 78.1399 33.5 78.1399 31.9H76.5399ZM76.5399 18.84V31.9H78.1399V18.84H76.5399ZM72.3799 19.64H77.3399V18.04H72.3799V19.64ZM70.7799 18.04C70.7799 18.9237 71.4962 19.64 72.3799 19.64V18.04H70.7799ZM70.7799 10.84V18.04H72.3799V10.84H70.7799ZM72.3799 9.24C71.4962 9.24 70.7799 9.95635 70.7799 10.84H72.3799V9.24ZM77.3399 9.24H72.3799V10.84H77.3399V9.24ZM76.5399 2.2V10.04H78.1399V2.2H76.5399ZM79.7399 10.84V3H78.1399V10.84H79.7399ZM78.1399 12.44C79.0235 12.44 79.7399 11.7237 79.7399 10.84H78.1399V12.44ZM73.1799 12.44H78.1399V10.84H73.1799V12.44ZM73.9799 17.24V11.64H72.3799V17.24H73.9799ZM78.1399 16.44H73.1799V18.04H78.1399V16.44ZM79.7399 18.04C79.7399 17.1563 79.0235 16.44 78.1399 16.44V18.04H79.7399ZM79.7399 31.9V18.04H78.1399V31.9H79.7399ZM80.3911 35.2851C79.9811 34.4348 79.7399 33.326 79.7399 31.9H78.1399C78.1399 33.5 78.4099 34.86 78.9499 35.98L80.3911 35.2851ZM82.1425 37.4172C81.4054 36.8797 80.8222 36.1792 80.3911 35.2851L78.9499 35.98C79.4899 37.1 80.2399 38.01 81.1999 38.71L82.1425 37.4172ZM84.9479 38.6878C83.8457 38.4122 82.9187 37.9831 82.1425 37.4172L81.1999 38.71C82.1599 39.41 83.2799 39.92 84.5599 40.24L84.9479 38.6878ZM88.7599 39.12C87.3513 39.12 86.0835 38.9717 84.9479 38.6878L84.5599 40.24C85.8399 40.56 87.2399 40.72 88.7599 40.72V39.12ZM91.7632 38.9498C90.7392 39.0636 89.7383 39.12 88.7599 39.12V40.72C89.7999 40.72 90.8599 40.66 91.9399 40.54L91.7632 38.9498ZM94.0225 38.4806C93.2956 38.7065 92.5431 38.8631 91.7632 38.9498L91.9399 40.54C92.8186 40.4424 93.671 40.2653 94.4972 40.0086L94.0225 38.4806ZM93.4599 33.6261V39.2446H95.0599V33.6261H93.4599ZM93.4933 34.597C93.8315 34.5537 94.1645 34.4879 94.4854 34.3937L94.0344 32.8586C93.8069 32.9254 93.5582 32.9756 93.2899 33.01L93.4933 34.597ZM91.3999 34.76C91.9769 34.76 92.6825 34.701 93.4933 34.597L93.2899 33.01C92.5099 33.11 91.8799 33.16 91.3999 33.16V34.76ZM88.4354 34.23C89.2989 34.6171 90.3186 34.76 91.3999 34.76V33.16C90.4399 33.16 89.6699 33.03 89.0899 32.77L88.4354 34.23ZM86.4178 32.4662C86.8897 33.2752 87.5962 33.8538 88.4354 34.23L89.0899 32.77C88.5097 32.5099 88.0798 32.1398 87.7999 31.66L86.4178 32.4662ZM85.6715 30.1425C85.7727 30.9772 86.0086 31.7646 86.4178 32.4662L87.7999 31.66C87.5199 31.18 87.3399 30.61 87.2599 29.95L85.6715 30.1425ZM85.5399 27.76C85.5399 28.6119 85.5824 29.4074 85.6715 30.1425L87.2599 29.95C87.1799 29.29 87.1399 28.56 87.1399 27.76H85.5399ZM85.5399 18.04V27.76H87.1399V18.04H85.5399ZM87.1399 16.44C86.2562 16.44 85.5399 17.1563 85.5399 18.04H87.1399V16.44ZM94.2599 16.44H87.1399V18.04H94.2599V16.44ZM93.4599 11.64V17.24H95.0599V11.64H93.4599ZM87.1399 12.44H94.2599V10.84H87.1399V12.44ZM85.5399 10.84C85.5399 11.7237 86.2562 12.44 87.1399 12.44V10.84H85.5399ZM85.5399 3V10.84H87.1399V3H85.5399ZM78.9399 3.8H86.3399V2.2H78.9399V3.8ZM106.738 12.2397C108.088 11.8929 109.455 11.72 110.84 11.72V10.12C109.32 10.12 107.82 10.31 106.34 10.69L106.738 12.2397ZM103.329 13.7697C104.296 13.0907 105.426 12.5764 106.738 12.2397L106.34 10.69C104.86 11.07 103.55 11.66 102.41 12.46L103.329 13.7697ZM101.043 16.3066C101.629 15.2693 102.388 14.4297 103.329 13.7697L102.41 12.46C101.27 13.26 100.35 14.28 99.6499 15.52L101.043 16.3066ZM100.2 19.96C100.2 18.4585 100.504 17.2613 101.043 16.3066L99.6499 15.52C98.9499 16.76 98.5999 18.2399 98.5999 19.96H100.2ZM101.037 23.4769C100.532 22.725 100.2 21.6011 100.2 19.96H98.5999C98.5999 21.8002 98.9699 23.2701 99.7099 24.37L101.037 23.4769ZM103.275 25.5041C102.376 25.0312 101.634 24.3638 101.037 23.4769L99.7099 24.37C100.45 25.47 101.39 26.32 102.53 26.92L103.275 25.5041ZM106.55 26.711C105.379 26.4408 104.289 26.0378 103.275 25.5041L102.53 26.92C103.67 27.52 104.89 27.97 106.19 28.27L106.55 26.711ZM110.206 27.5501C109.067 27.2904 107.849 27.0107 106.55 26.711L106.19 28.27C107.49 28.57 108.71 28.85 109.85 29.11L110.206 27.5501ZM113.401 28.6467C112.505 28.1866 111.428 27.8288 110.206 27.5501L109.85 29.11C110.99 29.37 111.93 29.69 112.67 30.07L113.401 28.6467ZM114.844 29.9113C114.477 29.3448 113.964 28.9357 113.401 28.6467L112.67 30.07C113.04 30.2601 113.317 30.4976 113.502 30.7825L114.844 29.9113ZM115.38 31.78C115.38 31.1288 115.217 30.4859 114.844 29.9113L113.502 30.7825C113.687 31.0674 113.78 31.3998 113.78 31.78H115.38ZM114.737 33.7636C115.192 33.1672 115.38 32.4735 115.38 31.78H113.78C113.78 32.1804 113.675 32.5178 113.465 32.7925L114.737 33.7636ZM113.058 34.9368C113.686 34.7126 114.292 34.3463 114.737 33.7636L113.465 32.7925C113.255 33.0673 112.94 33.2799 112.52 33.43L113.058 34.9368ZM109.7 35.48C110.893 35.48 112.019 35.3078 113.058 34.9368L112.52 33.43C111.68 33.73 110.74 33.88 109.7 33.88V35.48ZM105.381 34.4841C106.67 35.1662 108.125 35.48 109.7 35.48V33.88C108.34 33.88 107.15 33.61 106.13 33.07L105.381 34.4841ZM102.75 32.4551C103.541 33.2906 104.417 33.9737 105.381 34.4841L106.13 33.07C105.336 32.6495 104.596 32.0777 103.912 31.3549L102.75 32.4551ZM99.5873 37.2553L103.925 32.4405L102.737 31.3695L98.3986 36.1843L99.5873 37.2553ZM103.59 38.3088C102.005 37.8671 100.66 37.1371 99.5263 36.1235L98.4596 37.3161C99.7862 38.5026 101.353 39.3463 103.16 39.85L103.59 38.3088ZM109.34 39.12C107.453 39.12 105.538 38.8521 103.59 38.3088L103.16 39.85C105.24 40.43 107.3 40.72 109.34 40.72V39.12ZM113.785 38.6974C112.278 38.98 110.797 39.12 109.34 39.12V40.72C110.9 40.72 112.48 40.57 114.08 40.27L113.785 38.6974ZM117.599 37.3248C116.491 37.9655 115.225 38.4274 113.785 38.6974L114.08 40.27C115.68 39.97 117.12 39.45 118.4 38.71L117.599 37.3248ZM120.222 34.8775C119.539 35.894 118.669 36.706 117.599 37.3248L118.4 38.71C119.68 37.97 120.73 36.99 121.55 35.77L120.222 34.8775ZM121.18 31.12C121.18 32.7702 120.821 33.986 120.222 34.8775L121.55 35.77C122.37 34.5501 122.78 33.0001 122.78 31.12H121.18ZM120.342 27.6031C120.848 28.355 121.18 29.4789 121.18 31.12H122.78C122.78 29.2799 122.41 27.8099 121.67 26.71L120.342 27.6031ZM118.067 25.4952C118.985 26.0109 119.74 26.7077 120.342 27.6031L121.67 26.71C120.93 25.61 119.99 24.74 118.85 24.1L118.067 25.4952ZM114.83 24.249C115.985 24.5155 117.062 24.9312 118.067 25.4952L118.85 24.1C117.71 23.46 116.49 22.99 115.19 22.69L114.83 24.249ZM111.174 23.4099C112.313 23.6696 113.531 23.9493 114.83 24.249L115.19 22.69C113.89 22.39 112.67 22.11 111.53 21.85L111.174 23.4099ZM108.042 22.4039C108.915 22.805 109.969 23.1351 111.174 23.4099L111.53 21.85C110.39 21.59 109.45 21.29 108.71 20.95L108.042 22.4039ZM106.565 21.2134C106.951 21.7653 107.48 22.1456 108.042 22.4039L108.71 20.95C108.34 20.7799 108.062 20.5624 107.877 20.2975L106.565 21.2134ZM106 19.36C106 20.0084 106.172 20.6494 106.565 21.2134L107.877 20.2975C107.692 20.0327 107.6 19.7202 107.6 19.36H106ZM106.486 17.4316C106.135 18.0356 106 18.7018 106 19.36H107.6C107.6 18.9198 107.69 18.5449 107.87 18.235L106.486 17.4316ZM107.964 16.0689C107.361 16.3707 106.842 16.8192 106.486 17.4316L107.87 18.235C108.05 17.9251 108.32 17.6801 108.68 17.5L107.964 16.0689ZM110.9 15.36C109.877 15.36 108.893 15.6046 107.964 16.0689L108.68 17.5C109.4 17.14 110.14 16.96 110.9 16.96V15.36ZM116.72 17.6953C115.162 16.1374 113.187 15.36 110.9 15.36V16.96C112.792 16.96 114.351 17.5893 115.588 18.8266L116.72 17.6953ZM119.938 13.393L115.591 17.6922L116.717 18.8297L121.063 14.5305L119.938 13.393ZM116.22 12.4984C117.672 12.9132 118.912 13.5984 119.962 14.5537L121.039 13.3698C119.797 12.2414 118.337 11.4392 116.66 10.96L116.22 12.4984ZM110.84 11.72C112.602 11.72 114.394 11.9768 116.22 12.4984L116.66 10.96C114.7 10.4 112.76 10.12 110.84 10.12V11.72ZM110.84 8.52C109.185 8.52 107.551 8.72707 105.942 9.14027L106.34 10.69C107.82 10.31 109.32 10.12 110.84 10.12V8.52ZM117.099 9.42156C115.005 8.82324 112.917 8.52 110.84 8.52V10.12C112.76 10.12 114.7 10.4 116.66 10.96L117.099 9.42156ZM122.803 12.8614C121.24 11.2062 119.327 10.0581 117.099 9.42156L116.66 10.96C118.62 11.52 120.28 12.52 121.64 13.96L122.803 12.8614ZM122.765 15.0975C123.383 14.4862 123.4 13.4934 122.803 12.8614L121.64 13.96V13.96L122.765 15.0975ZM117.245 20.5575L122.765 15.0975L121.64 13.96L116.12 19.42L117.245 20.5575ZM116.029 21.0174C116.481 21.043 116.923 20.8759 117.245 20.5575L116.12 19.42H116.12L116.029 21.0174ZM114.873 20.4232C115.157 20.7759 115.577 20.9918 116.029 21.0174L116.12 19.42L114.873 20.4232ZM110.9 18.56C112.59 18.56 113.866 19.1717 114.873 20.4232L116.12 19.42C114.8 17.7801 113.06 16.96 110.9 16.96V18.56ZM109.395 18.9311C109.907 18.6754 110.403 18.56 110.9 18.56V16.96C110.14 16.96 109.4 17.14 108.68 17.5L109.395 18.9311ZM109.254 19.0384C109.259 19.0289 109.267 19.0179 109.283 19.0034C109.3 18.9881 109.333 18.9622 109.395 18.9311L108.68 17.5C108.319 17.6802 108.05 17.9254 107.87 18.235L109.254 19.0384ZM109.2 19.36C109.2 19.1388 109.244 19.0548 109.254 19.0384L107.87 18.235C107.69 18.5447 107.6 18.9196 107.6 19.36H109.2ZM109.189 19.3816C109.192 19.3853 109.195 19.3904 109.198 19.3965C109.201 19.4026 109.203 19.4074 109.203 19.4098C109.205 19.4153 109.2 19.4021 109.2 19.36H107.6C107.6 19.7207 107.693 20.033 107.877 20.2975L109.189 19.3816ZM109.378 19.4961C109.201 19.4147 109.174 19.3602 109.189 19.3816L107.877 20.2975C108.062 20.5622 108.339 20.7798 108.71 20.95L109.378 19.4961ZM111.886 20.2901C110.811 20.0449 109.985 19.775 109.378 19.4961L108.71 20.95C109.45 21.29 110.39 21.59 111.53 21.85L111.886 20.2901ZM115.55 21.131C114.248 20.8307 113.027 20.5504 111.886 20.2901L111.53 21.85C112.67 22.11 113.89 22.39 115.19 22.69L115.55 21.131ZM119.633 22.7048C118.358 21.9888 116.995 21.4645 115.55 21.131L115.19 22.69C116.49 22.99 117.71 23.46 118.85 24.1L119.633 22.7048ZM122.997 25.8169C122.12 24.5123 120.994 23.4691 119.633 22.7048L118.85 24.1C119.99 24.74 120.93 25.61 121.67 26.71L122.997 25.8169ZM124.38 31.12C124.38 29.0813 123.972 27.2651 122.997 25.8169L121.67 26.71C122.41 27.8099 122.78 29.2799 122.78 31.12H124.38ZM122.878 36.6625C123.919 35.1138 124.38 33.2296 124.38 31.12H122.78C122.78 33.0001 122.37 34.5501 121.55 35.77L122.878 36.6625ZM119.201 40.0952C120.69 39.234 121.921 38.086 122.878 36.6625L121.55 35.77C120.73 36.99 119.68 37.97 118.4 38.71L119.201 40.0952ZM114.375 41.8426C116.135 41.5126 117.749 40.9345 119.201 40.0952L118.4 38.71C117.12 39.45 115.68 39.97 114.08 40.27L114.375 41.8426ZM109.34 42.32C111.003 42.32 112.682 42.16 114.375 41.8426L114.08 40.27C112.48 40.57 110.9 40.72 109.34 40.72V42.32ZM102.73 41.3912C104.942 42.0079 107.146 42.32 109.34 42.32V40.72C107.3 40.72 105.24 40.43 103.16 39.85L102.73 41.3912ZM96.7331 37.8758C98.3795 39.5679 100.391 40.7389 102.73 41.3912L103.16 39.85C101.08 39.27 99.3199 38.24 97.8799 36.76L96.7331 37.8758ZM96.6912 35.689C96.127 36.3152 96.1453 37.2717 96.7331 37.8758L97.8799 36.76L96.6912 35.689ZM102.151 29.629L96.6912 35.689L97.8799 36.76L103.34 30.7L102.151 29.629ZM103.383 29.1006C102.915 29.088 102.465 29.2811 102.151 29.629L103.34 30.7L103.383 29.1006ZM104.585 29.6947C104.29 29.3303 103.851 29.1132 103.383 29.1006L103.34 30.7L104.585 29.6947ZM106.878 31.6559C106.078 31.232 105.31 30.5927 104.585 29.6947L103.34 30.7C104.18 31.74 105.11 32.53 106.13 33.07L106.878 31.6559ZM109.7 32.28C108.554 32.28 107.63 32.0538 106.878 31.6559L106.13 33.07C107.15 33.61 108.34 33.88 109.7 33.88V32.28ZM111.982 31.9232C111.34 32.1522 110.586 32.28 109.7 32.28V33.88C110.74 33.88 111.68 33.73 112.52 33.43L111.982 31.9232ZM112.193 31.8214C112.218 31.7893 112.193 31.8477 111.982 31.9232L112.52 33.43C112.941 33.2798 113.255 33.067 113.465 32.7925L112.193 31.8214ZM112.18 31.78C112.18 31.8397 112.172 31.8608 112.174 31.8571C112.174 31.8554 112.176 31.85 112.18 31.8423C112.184 31.8345 112.189 31.8274 112.193 31.8214L113.465 32.7925C113.674 32.5183 113.78 32.1811 113.78 31.78H112.18ZM112.16 31.6537C112.163 31.6571 112.166 31.6622 112.169 31.6748C112.173 31.6887 112.18 31.721 112.18 31.78H113.78C113.78 31.3995 113.687 31.0671 113.502 30.7825L112.16 31.6537ZM111.939 31.4933C112.116 31.584 112.158 31.6498 112.16 31.6537L113.502 30.7825C113.318 30.4978 113.04 30.2602 112.67 30.07L111.939 31.4933ZM109.494 30.6699C110.552 30.9112 111.355 31.1934 111.939 31.4933L112.67 30.07C111.93 29.69 110.99 29.37 109.85 29.11L109.494 30.6699ZM105.83 29.829C107.131 30.1293 108.353 30.4096 109.494 30.6699L109.85 29.11C108.71 28.85 107.49 28.57 106.19 28.27L105.83 29.829ZM101.785 28.3359C103.051 29.0022 104.401 29.4992 105.83 29.829L106.19 28.27C104.89 27.97 103.67 27.52 102.53 26.92L101.785 28.3359ZM98.3823 25.2631C99.2657 26.5762 100.403 27.6088 101.785 28.3359L102.53 26.92C101.39 26.32 100.45 25.47 99.7099 24.37L98.3823 25.2631ZM96.9999 19.96C96.9999 21.9987 97.4081 23.8149 98.3823 25.2631L99.7099 24.37C98.9699 23.2701 98.5999 21.8001 98.5999 19.96H96.9999ZM98.2566 14.7335C97.3955 16.2588 96.9999 18.0216 96.9999 19.96H98.5999C98.5999 18.2399 98.9499 16.76 99.6499 15.52L98.2566 14.7335ZM101.491 11.1503C100.151 12.0903 99.071 13.2907 98.2566 14.7335L99.6499 15.52C100.35 14.28 101.27 13.26 102.41 12.46L101.491 11.1503ZM105.942 9.14027C104.293 9.56357 102.803 10.2293 101.491 11.1503L102.41 12.46C103.55 11.66 104.86 11.07 106.34 10.69L105.942 9.14027Z" fill="white"/>
</svg>
