<svg width="158" height="39" viewBox="0 0 158 39" fill="none" xmlns="http://www.w3.org/2000/svg">
<path fill-rule="evenodd" clip-rule="evenodd" d="M33.772 37.2212C33.0368 38.1268 31.7567 38.3726 30.7383 37.8037L2.43311 21.9908C1.67397 21.5667 1.20361 20.7651 1.20361 19.8956V2.64024C1.20361 1.31475 2.27813 0.240234 3.60361 0.240234H58.7563C60.7768 0.240234 61.893 2.58438 60.6195 4.15296L33.772 37.2212ZM25.0333 25.5393L17.1885 20.7956V17.5746L24.7883 21.9676C25.0752 22.1334 25.4422 22.0353 25.608 21.7484C25.7738 21.4615 25.6757 21.0945 25.3888 20.9287L16.8888 16.0153C16.4888 15.7841 15.9885 16.0727 15.9885 16.5348V21.134C15.9885 21.344 16.0984 21.5387 16.2781 21.6474L24.7225 26.7537C24.9132 26.869 25.1521 26.8691 25.3429 26.754L33.8064 21.6477C34.1969 21.4121 34.1921 20.8442 33.7977 20.6151L17.771 11.3075L25.0885 6.93902L32.9821 11.6514L32.9159 15.1946L25.4293 10.7231C25.1448 10.5532 24.7765 10.6461 24.6065 10.9306C24.4366 11.2151 24.5295 11.5834 24.814 11.7534L33.1887 16.7554C33.5844 16.9917 34.0877 16.7122 34.0963 16.2515L34.1884 11.3258C34.1925 11.1106 34.0809 10.9098 33.8961 10.7994L25.3961 5.72505C25.2067 5.61196 24.9704 5.61196 24.781 5.72505L16.281 10.7994C15.8883 11.0338 15.8918 11.6038 16.2872 11.8335L32.3186 21.1438L25.0333 25.5393Z" fill="white"/>
<path d="M71.5572 21.3121H68.5507C68.5375 22.1825 68.6957 22.9341 69.0254 23.5671C69.3551 24.2 69.7968 24.7209 70.3507 25.1297C70.9177 25.5385 71.5638 25.8352 72.2891 26.0198C73.0276 26.2176 73.7858 26.3165 74.5638 26.3165C75.5264 26.3165 76.3704 26.2044 77.0956 25.9802C77.8341 25.756 78.4473 25.4462 78.9352 25.0506C79.4363 24.6418 79.8121 24.1605 80.0626 23.6066C80.3132 23.0528 80.4385 22.4528 80.4385 21.8066C80.4385 21.0154 80.267 20.3693 79.9242 19.8682C79.5945 19.3539 79.1989 18.9451 78.7374 18.6418C78.2759 18.3385 77.8077 18.121 77.333 17.9891C76.8715 17.844 76.5088 17.7451 76.2451 17.6924C75.3616 17.4682 74.6429 17.2836 74.0891 17.1386C73.5484 16.9935 73.1199 16.8485 72.8034 16.7034C72.5001 16.5583 72.2957 16.4001 72.1902 16.2287C72.0847 16.0573 72.032 15.8331 72.032 15.5562C72.032 15.2529 72.0979 15.0023 72.2298 14.8045C72.3616 14.6067 72.5265 14.4419 72.7243 14.31C72.9353 14.1782 73.166 14.0858 73.4166 14.0331C73.6671 13.9804 73.9177 13.954 74.1682 13.954C74.5506 13.954 74.9001 13.9869 75.2165 14.0529C75.5462 14.1188 75.8363 14.2309 76.0869 14.3891C76.3374 14.5474 76.5352 14.765 76.6803 15.0419C76.8385 15.3188 76.9308 15.6682 76.9572 16.0902H79.9637C79.9637 15.2726 79.8055 14.5803 79.489 14.0133C79.1857 13.4331 78.7704 12.9584 78.2429 12.5892C77.7154 12.2199 77.1088 11.9562 76.4231 11.798C75.7506 11.6265 75.0451 11.5408 74.3067 11.5408C73.6737 11.5408 73.0407 11.6265 72.4078 11.798C71.7748 11.9694 71.2078 12.2331 70.7067 12.5892C70.2056 12.9452 69.7968 13.3935 69.4803 13.9342C69.1771 14.4617 69.0254 15.088 69.0254 15.8133C69.0254 16.4594 69.1441 17.0133 69.3814 17.4748C69.632 17.9232 69.9551 18.299 70.3507 18.6023C70.7463 18.9056 71.1946 19.1561 71.6957 19.3539C72.1968 19.5385 72.7111 19.6968 73.2385 19.8286C73.7528 19.9737 74.2605 20.1056 74.7616 20.2242C75.2627 20.3429 75.711 20.4814 76.1066 20.6396C76.5022 20.7979 76.8187 20.9957 77.0561 21.233C77.3066 21.4704 77.4319 21.7803 77.4319 22.1627C77.4319 22.5187 77.3396 22.8154 77.155 23.0528C76.9704 23.277 76.7396 23.455 76.4627 23.5868C76.1858 23.7187 75.8891 23.811 75.5726 23.8638C75.2561 23.9033 74.9594 23.9231 74.6825 23.9231C74.2737 23.9231 73.8781 23.8769 73.4957 23.7846C73.1133 23.6791 72.777 23.5275 72.4869 23.3297C72.21 23.1187 71.9858 22.8484 71.8144 22.5187C71.643 22.1891 71.5572 21.7869 71.5572 21.3121ZM86.5499 15.7737V12.7078H83.7411V15.7737H82.0401V17.6528H83.7411V23.6857C83.7411 24.2 83.8268 24.6154 83.9983 24.9319C84.1697 25.2484 84.4005 25.4923 84.6906 25.6637C84.9939 25.8352 85.3367 25.9473 85.7191 26C86.1147 26.0659 86.5301 26.0989 86.9653 26.0989C87.2422 26.0989 87.5257 26.0923 87.8158 26.0791C88.1059 26.0659 88.3697 26.0396 88.607 26V23.8242C88.4752 23.8506 88.3367 23.8704 88.1916 23.8835C88.0466 23.8967 87.8949 23.9033 87.7367 23.9033C87.262 23.9033 86.9455 23.8242 86.7873 23.666C86.629 23.5077 86.5499 23.1912 86.5499 22.7165V17.6528H88.607V15.7737H86.5499ZM97.8268 19.7891H93.2577C93.2708 19.5913 93.3104 19.3671 93.3763 19.1166C93.4555 18.866 93.5807 18.6287 93.7522 18.4045C93.9368 18.1803 94.1741 17.9957 94.4642 17.8506C94.7675 17.6924 95.1434 17.6133 95.5917 17.6133C96.2774 17.6133 96.7851 17.7979 97.1148 18.1671C97.4576 18.5363 97.695 19.077 97.8268 19.7891ZM93.2577 21.5693H100.636C100.688 20.7781 100.622 20.0198 100.438 19.2946C100.253 18.5693 99.9499 17.9232 99.5279 17.3561C99.1191 16.7891 98.5917 16.3408 97.9455 16.0111C97.2994 15.6682 96.5411 15.4968 95.6708 15.4968C94.8928 15.4968 94.1807 15.6353 93.5346 15.9122C92.9016 16.1891 92.3544 16.5715 91.8928 17.0594C91.4313 17.5342 91.0753 18.1012 90.8247 18.7605C90.5742 19.4199 90.4489 20.1319 90.4489 20.8968C90.4489 21.688 90.5676 22.4132 90.8049 23.0726C91.0555 23.7319 91.4049 24.2989 91.8533 24.7736C92.3016 25.2484 92.8489 25.6176 93.495 25.8813C94.1412 26.1319 94.8664 26.2571 95.6708 26.2571C96.8312 26.2571 97.8202 25.9934 98.6378 25.4659C99.4554 24.9385 100.062 24.0616 100.458 22.8352H97.9851C97.8928 23.1517 97.6422 23.455 97.2334 23.7451C96.8247 24.022 96.3367 24.1605 95.7697 24.1605C94.9785 24.1605 94.3719 23.9561 93.95 23.5473C93.528 23.1385 93.2972 22.4792 93.2577 21.5693ZM110.185 19.7891H105.616C105.629 19.5913 105.668 19.3671 105.734 19.1166C105.814 18.866 105.939 18.6287 106.11 18.4045C106.295 18.1803 106.532 17.9957 106.822 17.8506C107.126 17.6924 107.501 17.6133 107.95 17.6133C108.635 17.6133 109.143 17.7979 109.473 18.1671C109.816 18.5363 110.053 19.077 110.185 19.7891ZM105.616 21.5693H112.994C113.046 20.7781 112.98 20.0198 112.796 19.2946C112.611 18.5693 112.308 17.9232 111.886 17.3561C111.477 16.7891 110.95 16.3408 110.304 16.0111C109.657 15.6682 108.899 15.4968 108.029 15.4968C107.251 15.4968 106.539 15.6353 105.893 15.9122C105.26 16.1891 104.712 16.5715 104.251 17.0594C103.789 17.5342 103.433 18.1012 103.183 18.7605C102.932 19.4199 102.807 20.1319 102.807 20.8968C102.807 21.688 102.926 22.4132 103.163 23.0726C103.414 23.7319 103.763 24.2989 104.211 24.7736C104.66 25.2484 105.207 25.6176 105.853 25.8813C106.499 26.1319 107.224 26.2571 108.029 26.2571C109.189 26.2571 110.178 25.9934 110.996 25.4659C111.813 24.9385 112.42 24.0616 112.816 22.8352H110.343C110.251 23.1517 110 23.455 109.591 23.7451C109.183 24.022 108.695 24.1605 108.128 24.1605C107.337 24.1605 106.73 23.9561 106.308 23.5473C105.886 23.1385 105.655 22.4792 105.616 21.5693ZM115.659 15.7737V26H118.468V20.6396C118.468 19.5979 118.64 18.8528 118.983 18.4045C119.325 17.9429 119.879 17.7122 120.644 17.7122C121.317 17.7122 121.785 17.9232 122.048 18.3451C122.312 18.7539 122.444 19.3803 122.444 20.2242V26H125.253V19.71C125.253 19.077 125.193 18.5034 125.075 17.9891C124.969 17.4616 124.778 17.0199 124.501 16.6638C124.224 16.2946 123.842 16.0111 123.354 15.8133C122.879 15.6023 122.266 15.4968 121.514 15.4968C120.921 15.4968 120.341 15.6353 119.774 15.9122C119.207 16.1759 118.745 16.6045 118.389 17.1979H118.33V15.7737H115.659ZM130.738 20.4616L133.567 13.2221L136.297 20.4616H130.738ZM132.875 11.8771L127.198 26H128.622L130.323 21.6088H136.751L138.472 26H139.916L134.378 11.8771H132.875ZM141.962 15.7935V26H143.208V20.5605C143.208 20.0198 143.301 19.5253 143.485 19.077C143.67 18.6155 143.927 18.2199 144.257 17.8902C144.6 17.5605 145.002 17.31 145.463 17.1386C145.925 16.9539 146.439 16.8748 147.006 16.9012V15.6551C146.083 15.6155 145.285 15.8199 144.613 16.2682C143.954 16.7166 143.466 17.3561 143.149 18.1869H143.11V15.7935H141.962ZM156.054 18.9979H157.3C157.155 17.8243 156.7 16.9474 155.935 16.3671C155.183 15.7869 154.26 15.4968 153.166 15.4968C152.388 15.4968 151.696 15.6419 151.089 15.932C150.496 16.2221 149.994 16.6111 149.586 17.099C149.177 17.5869 148.867 18.1605 148.656 18.8199C148.445 19.466 148.34 20.1583 148.34 20.8968C148.34 21.6352 148.445 22.3341 148.656 22.9934C148.867 23.6396 149.177 24.2066 149.586 24.6945C149.994 25.1824 150.496 25.5714 151.089 25.8615C151.696 26.1385 152.388 26.2769 153.166 26.2769C154.326 26.2769 155.276 25.9341 156.014 25.2484C156.753 24.5495 157.208 23.5802 157.379 22.3407H156.133C156.093 22.7627 155.988 23.1517 155.816 23.5077C155.645 23.8638 155.427 24.1736 155.164 24.4374C154.9 24.6879 154.597 24.8857 154.254 25.0308C153.911 25.1758 153.548 25.2484 153.166 25.2484C152.572 25.2484 152.052 25.1231 151.603 24.8725C151.155 24.622 150.779 24.2923 150.476 23.8835C150.186 23.4748 149.962 23.0132 149.803 22.4989C149.658 21.9715 149.586 21.4374 149.586 20.8968C149.586 20.3561 149.658 19.8286 149.803 19.3144C149.962 18.7869 150.186 18.3188 150.476 17.91C150.779 17.5012 151.155 17.1715 151.603 16.921C152.052 16.6704 152.572 16.5452 153.166 16.5452C153.997 16.5452 154.643 16.7627 155.104 17.1979C155.566 17.6331 155.882 18.2331 156.054 18.9979Z" fill="white"/>
</svg>
