<svg width="369" height="95" viewBox="0 0 369 95" fill="none" xmlns="http://www.w3.org/2000/svg">
<mask id="path-01-inside-01" fill="white">
<path fill-rule="evenodd" clip-rule="evenodd" d="M23.6 0.199951H0V71H15.6V16.7H15.8L33.7 71H45.6L64.2 16.7H64.4V71H80V0.199951H56.5L40.1 46.4H39.9L23.6 0.199951ZM122.8 64.8999H123V71H136.8V46.2999C136.8 42.2333 136.467 38.65 135.8 35.5499C135.133 32.4499 133.95 29.8333 132.25 27.7C130.55 25.5666 128.283 23.95 125.45 22.85C122.617 21.7499 119 21.2 114.6 21.2C110.6 21.2 106.733 21.8499 103 23.15C99.2666 24.45 96 26.3999 93.2 29L101.2 37.2C102.8 35.3999 104.617 33.9833 106.65 32.95C108.683 31.9166 110.933 31.4 113.4 31.4C116 31.4 118.25 32.1833 120.15 33.75C122.05 35.3166 123 37.4333 123 40.1C120.933 40.1 118.683 40.1333 116.25 40.2C113.817 40.2666 111.383 40.4666 108.95 40.7999C106.517 41.1333 104.167 41.6499 101.9 42.35C99.6333 43.05 97.6167 44.0333 95.85 45.2999C94.0833 46.5666 92.6833 48.1666 91.65 50.1C90.6167 52.0333 90.1 54.3999 90.1 57.2C90.1 59.6666 90.5667 61.8333 91.5 63.7C92.4333 65.5666 93.7 67.1333 95.3 68.3999C96.9 69.6666 98.75 70.6166 100.85 71.25C102.95 71.8833 105.133 72.2 107.4 72.2C110.467 72.2 113.383 71.6333 116.15 70.5C118.917 69.3666 121.133 67.5 122.8 64.8999ZM119.3 49.7C118.167 49.7 116.75 49.75 115.05 49.85C113.35 49.95 111.717 50.2333 110.15 50.7C108.583 51.1666 107.25 51.8666 106.15 52.7999C105.05 53.7333 104.5 55.0333 104.5 56.7C104.5 58.5 105.267 59.8333 106.8 60.7C108.333 61.5666 109.933 62 111.6 62C113.067 62 114.483 61.8 115.85 61.4C117.217 61 118.433 60.4333 119.5 59.7C120.567 58.9666 121.417 58.0333 122.05 56.9C122.683 55.7666 123 54.4333 123 52.9V49.7H119.3ZM160.6 22.4H146.2V71H161.2V46.7999C161.2 45.2 161.3 43.6666 161.5 42.2C161.7 40.7333 162.117 39.4166 162.75 38.25C163.383 37.0833 164.3 36.15 165.5 35.45C166.7 34.7499 168.267 34.4 170.2 34.4C172.133 34.4 173.617 34.7999 174.65 35.6C175.683 36.4 176.45 37.4333 176.95 38.7C177.45 39.9666 177.75 41.3499 177.85 42.85C177.95 44.35 178 45.7999 178 47.2V71H193V44.2C193 40.9333 192.767 37.9 192.3 35.1C191.833 32.2999 190.95 29.8666 189.65 27.8C188.35 25.7333 186.533 24.1166 184.2 22.95C181.867 21.7833 178.8 21.2 175 21.2C173.2 21.2 171.533 21.4333 170 21.9C168.467 22.3666 167.1 22.9666 165.9 23.7C164.7 24.4333 163.667 25.2666 162.8 26.2C161.933 27.1333 161.267 28.0666 160.8 29H160.6V22.4ZM234.1 64.8999H233.9C232.233 67.5 230.017 69.3666 227.25 70.5C224.483 71.6333 221.567 72.2 218.5 72.2C216.233 72.2 214.05 71.8833 211.95 71.25C209.85 70.6166 208 69.6666 206.4 68.3999C204.8 67.1333 203.533 65.5666 202.6 63.7C201.667 61.8333 201.2 59.6666 201.2 57.2C201.2 54.3999 201.717 52.0333 202.75 50.1C203.783 48.1666 205.183 46.5666 206.95 45.2999C208.717 44.0333 210.733 43.05 213 42.35C215.267 41.6499 217.617 41.1333 220.05 40.7999C222.483 40.4666 224.917 40.2666 227.35 40.2C229.783 40.1333 232.033 40.1 234.1 40.1C234.1 37.4333 233.15 35.3166 231.25 33.75C229.35 32.1833 227.1 31.4 224.5 31.4C222.033 31.4 219.783 31.9166 217.75 32.95C215.717 33.9833 213.9 35.3999 212.3 37.2L204.3 29C207.1 26.3999 210.367 24.45 214.1 23.15C217.833 21.8499 221.7 21.2 225.7 21.2C230.1 21.2 233.717 21.7499 236.55 22.85C239.383 23.95 241.65 25.5666 243.35 27.7C245.05 29.8333 246.233 32.4499 246.9 35.5499C247.567 38.65 247.9 42.2333 247.9 46.2999V71H234.1V64.8999ZM226.15 49.85C227.85 49.75 229.267 49.7 230.4 49.7H234.1V52.9C234.1 54.4333 233.783 55.7666 233.15 56.9C232.517 58.0333 231.667 58.9666 230.6 59.7C229.533 60.4333 228.317 61 226.95 61.4C225.583 61.8 224.167 62 222.7 62C221.033 62 219.433 61.5666 217.9 60.7C216.367 59.8333 215.6 58.5 215.6 56.7C215.6 55.0333 216.15 53.7333 217.25 52.7999C218.35 51.8666 219.683 51.1666 221.25 50.7C222.817 50.2333 224.45 49.95 226.15 49.85ZM308.3 66.8999C308.3 76.1 305.983 83.0833 301.35 87.85C296.717 92.6166 289.667 95 280.2 95C275.867 95 271.6 94.5166 267.4 93.5499C263.2 92.5833 259.333 90.7 255.8 87.8999L264.1 75.5C266.433 77.4333 268.883 78.9666 271.45 80.1C274.017 81.2333 276.833 81.7999 279.9 81.7999C284.5 81.7999 287.883 80.6833 290.05 78.45C292.217 76.2166 293.3 73.3666 293.3 69.8999V65.2H293.1C291.367 67.5333 289.217 69.1833 286.65 70.1499C284.083 71.1166 281.667 71.6 279.4 71.6C275.8 71.6 272.533 70.9833 269.6 69.75C266.667 68.5166 264.15 66.7833 262.05 64.5499C259.95 62.3166 258.333 59.6666 257.2 56.6C256.067 53.5333 255.5 50.1666 255.5 46.5C255.5 43.2999 256.017 40.1666 257.05 37.1C258.083 34.0333 259.55 31.3333 261.45 29C263.35 26.6666 265.667 24.7833 268.4 23.35C271.133 21.9166 274.233 21.2 277.7 21.2C279.833 21.2 281.783 21.4333 283.55 21.9C285.317 22.3666 286.9 22.9666 288.3 23.7C289.7 24.4333 290.9 25.2499 291.9 26.15C292.9 27.05 293.7 27.9333 294.3 28.8H294.5V22.4H308.3V66.8999ZM271.4 50.95C270.8 49.5166 270.5 48 270.5 46.4C270.5 44.7999 270.8 43.2833 271.4 41.85C272 40.4166 272.85 39.15 273.95 38.05C275.05 36.9499 276.317 36.0666 277.75 35.4C279.183 34.7333 280.767 34.4 282.5 34.4C284.167 34.4 285.733 34.7333 287.2 35.4C288.667 36.0666 289.95 36.9499 291.05 38.05C292.15 39.15 293 40.4166 293.6 41.85C294.2 43.2833 294.5 44.7999 294.5 46.4C294.5 48 294.2 49.5166 293.6 50.95C293 52.3833 292.15 53.6499 291.05 54.75C289.95 55.85 288.667 56.7333 287.2 57.4C285.733 58.0666 284.167 58.4 282.5 58.4C280.767 58.4 279.183 58.0666 277.75 57.4C276.317 56.7333 275.05 55.85 273.95 54.75C272.85 53.6499 272 52.3833 271.4 50.95ZM366.3 62.6C363.9 65.6666 360.867 68.0333 357.2 69.7C353.533 71.3666 349.733 72.2 345.8 72.2C342.067 72.2 338.55 71.6 335.25 70.3999C331.95 69.2 329.083 67.4833 326.65 65.25C324.217 63.0166 322.3 60.3333 320.9 57.2C319.5 54.0666 318.8 50.5666 318.8 46.7C318.8 42.8333 319.5 39.3333 320.9 36.2C322.3 33.0666 324.217 30.3833 326.65 28.15C329.083 25.9166 331.95 24.2 335.25 23C338.55 21.7999 342.067 21.2 345.8 21.2C349.267 21.2 352.417 21.7999 355.25 23C358.083 24.2 360.483 25.9166 362.45 28.15C364.417 30.3833 365.933 33.0666 367 36.2C368.067 39.3333 368.6 42.8333 368.6 46.7V51.4H333.8C334.4 54.2666 335.7 56.5499 337.7 58.25C339.7 59.95 342.167 60.7999 345.1 60.7999C347.567 60.7999 349.65 60.25 351.35 59.15C353.05 58.0499 354.533 56.6333 355.8 54.9L366.3 62.6ZM351.1 34.7C352.833 36.5 353.667 38.6666 353.6 41.2H333.8C333.867 40 334.15 38.85 334.65 37.75C335.15 36.6499 335.85 35.6833 336.75 34.8499C337.65 34.0166 338.733 33.3333 340 32.7999C341.267 32.2666 342.733 32 344.4 32C347.133 32 349.367 32.8999 351.1 34.7Z"/>
</mask>
<path d="M0 0.199951V-1.80005C-1.10457 -1.80005 -2 -0.904618 -2 0.199951L0 0.199951ZM23.6 0.199951L25.4861 -0.465476C25.2039 -1.26521 24.448 -1.80005 23.6 -1.80005V0.199951ZM0 71H-2C-2 72.1045 -1.10457 73 0 73L0 71ZM15.6 71V73C16.7046 73 17.6 72.1045 17.6 71H15.6ZM15.6 16.7V14.7C14.4954 14.7 13.6 15.5954 13.6 16.7H15.6ZM15.8 16.7L17.6995 16.0738C17.4292 15.2539 16.6633 14.7 15.8 14.7V16.7ZM33.7 71L31.8005 71.6261C32.0708 72.446 32.8367 73 33.7 73V71ZM45.6 71V73C46.4548 73 47.2151 72.4567 47.4921 71.6481L45.6 71ZM64.2 16.7V14.7C63.3452 14.7 62.5849 15.2432 62.3079 16.0518L64.2 16.7ZM64.4 16.7H66.4C66.4 15.5954 65.5046 14.7 64.4 14.7V16.7ZM64.4 71H62.4C62.4 72.1045 63.2954 73 64.4 73V71ZM80 71V73C81.1046 73 82 72.1045 82 71H80ZM80 0.199951H82C82 -0.904618 81.1046 -1.80005 80 -1.80005V0.199951ZM56.5 0.199951V-1.80005C55.6534 -1.80005 54.8984 -1.26696 54.6152 -0.469102L56.5 0.199951ZM40.1 46.4V48.4C40.9466 48.4 41.7015 47.8669 41.9848 47.069L40.1 46.4ZM39.9 46.4L38.0139 47.0654C38.2961 47.8651 39.052 48.4 39.9 48.4V46.4ZM123 64.8999H125C125 63.7954 124.105 62.8999 123 62.8999V64.8999ZM122.8 64.8999V62.8999C122.119 62.8999 121.484 63.2469 121.116 63.8206L122.8 64.8999ZM123 71H121C121 72.1045 121.895 73 123 73V71ZM136.8 71V73C137.905 73 138.8 72.1045 138.8 71H136.8ZM135.8 35.5499L137.755 35.1295L135.8 35.5499ZM125.45 22.85L126.174 20.9855L126.174 20.9855L125.45 22.85ZM103 23.15L103.658 25.0387L103 23.15ZM93.2 29L91.8391 27.5344C91.4441 27.9011 91.2139 28.4118 91.2006 28.9506C91.1873 29.4894 91.392 30.0108 91.7684 30.3966L93.2 29ZM101.2 37.2L99.7684 38.5966C100.156 38.9939 100.691 39.2123 101.246 39.1994C101.801 39.1865 102.326 38.9436 102.695 38.5287L101.2 37.2ZM106.65 32.95L105.744 31.167L105.744 31.167L106.65 32.95ZM120.15 33.75L118.878 35.293L120.15 33.75ZM123 40.1V42.1C124.105 42.1 125 41.2045 125 40.1H123ZM116.25 40.2L116.305 42.1992L116.25 40.2ZM108.95 40.7999L108.679 38.8185L108.95 40.7999ZM101.9 42.35L102.49 44.2609H102.49L101.9 42.35ZM95.85 45.2999L94.6846 43.6746L95.85 45.2999ZM91.65 50.1L93.4139 51.0427V51.0427L91.65 50.1ZM91.5 63.7L93.2889 62.8055V62.8055L91.5 63.7ZM95.3 68.3999L96.5414 66.8319H96.5414L95.3 68.3999ZM100.85 71.25L100.273 73.1648L100.273 73.1648L100.85 71.25ZM116.15 70.5L116.908 72.3507H116.908L116.15 70.5ZM115.05 49.85L115.167 51.8465H115.167L115.05 49.85ZM115.85 61.4L115.288 59.4805L115.85 61.4ZM122.05 56.9L123.796 57.8756V57.8756L122.05 56.9ZM123 49.7H125C125 48.5954 124.105 47.7 123 47.7V49.7ZM146.2 22.4V20.4C145.095 20.4 144.2 21.2954 144.2 22.4H146.2ZM160.6 22.4H162.6C162.6 21.2954 161.705 20.4 160.6 20.4V22.4ZM146.2 71H144.2C144.2 72.1045 145.095 73 146.2 73V71ZM161.2 71V73C162.305 73 163.2 72.1045 163.2 71H161.2ZM162.75 38.25L164.508 39.2041V39.2041L162.75 38.25ZM165.5 35.45L166.508 37.1775L166.508 37.1775L165.5 35.45ZM174.65 35.6L173.426 37.1814L174.65 35.6ZM177.85 42.85L175.854 42.983V42.983L177.85 42.85ZM178 71H176C176 72.1045 176.895 73 178 73V71ZM193 71V73C194.105 73 195 72.1045 195 71H193ZM192.3 35.1L190.327 35.4287V35.4288L192.3 35.1ZM165.9 23.7L164.857 21.9934L164.857 21.9934L165.9 23.7ZM162.8 26.2L164.266 27.5609L164.266 27.5609L162.8 26.2ZM160.8 29V31C161.558 31 162.25 30.5719 162.589 29.8944L160.8 29ZM160.6 29H158.6C158.6 30.1045 159.495 31 160.6 31V29ZM233.9 64.8999V62.8999C233.219 62.8999 232.584 63.2469 232.216 63.8206L233.9 64.8999ZM234.1 64.8999H236.1C236.1 63.7954 235.205 62.8999 234.1 62.8999V64.8999ZM227.25 70.5L228.008 72.3507L227.25 70.5ZM211.95 71.25L211.373 73.1648V73.1648L211.95 71.25ZM206.4 68.3999L207.641 66.8319L206.4 68.3999ZM202.6 63.7L200.811 64.5944V64.5944L202.6 63.7ZM202.75 50.1L204.514 51.0427H204.514L202.75 50.1ZM206.95 45.2999L205.785 43.6746L206.95 45.2999ZM213 42.35L213.59 44.2609L213 42.35ZM220.05 40.7999L219.779 38.8185L220.05 40.7999ZM227.35 40.2L227.295 38.2007L227.35 40.2ZM234.1 40.1V42.1C235.205 42.1 236.1 41.2045 236.1 40.1H234.1ZM231.25 33.75L232.522 32.2069L231.25 33.75ZM217.75 32.95L216.844 31.167V31.167L217.75 32.95ZM212.3 37.2L210.868 38.5966C211.256 38.9939 211.791 39.2123 212.346 39.1994C212.901 39.1865 213.426 38.9436 213.795 38.5287L212.3 37.2ZM204.3 29L202.939 27.5344C202.544 27.9011 202.314 28.4118 202.301 28.9506C202.287 29.4894 202.492 30.0108 202.868 30.3966L204.3 29ZM214.1 23.15L214.758 25.0387L214.1 23.15ZM236.55 22.85L235.826 24.7144V24.7144L236.55 22.85ZM243.35 27.7L244.914 26.4535V26.4535L243.35 27.7ZM246.9 35.5499L248.855 35.1295L246.9 35.5499ZM247.9 71V73C249.005 73 249.9 72.1045 249.9 71H247.9ZM234.1 71H232.1C232.1 72.1045 232.995 73 234.1 73V71ZM226.15 49.85L226.267 51.8465L226.15 49.85ZM234.1 49.7H236.1C236.1 48.5954 235.205 47.7 234.1 47.7V49.7ZM233.15 56.9L234.896 57.8756L234.896 57.8756L233.15 56.9ZM226.95 61.4L227.512 63.3194L226.95 61.4ZM221.25 50.7L220.679 48.7832L221.25 50.7ZM255.8 87.8999L254.138 86.7875C253.558 87.6537 253.741 88.82 254.558 89.4674L255.8 87.8999ZM264.1 75.5L265.376 73.9599C264.94 73.5989 264.372 73.4393 263.812 73.5208C263.252 73.6023 262.753 73.9172 262.438 74.3875L264.1 75.5ZM290.05 78.45L288.615 77.0573V77.0573L290.05 78.45ZM293.3 65.2H295.3C295.3 64.0954 294.405 63.2 293.3 63.2V65.2ZM293.1 65.2V63.2C292.467 63.2 291.872 63.4994 291.495 64.0073L293.1 65.2ZM286.65 70.1499L285.945 68.2783H285.945L286.65 70.1499ZM269.6 69.75L268.825 71.5936L269.6 69.75ZM262.05 64.5499L260.593 65.92V65.92L262.05 64.5499ZM257.2 56.6L259.076 55.9067V55.9066L257.2 56.6ZM257.05 37.1L255.155 36.4613V36.4613L257.05 37.1ZM261.45 29L263.001 30.2628V30.2628L261.45 29ZM268.4 23.35L267.471 21.5787L267.471 21.5787L268.4 23.35ZM283.55 21.9L283.039 23.8336V23.8336L283.55 21.9ZM288.3 23.7L287.372 25.4716V25.4716L288.3 23.7ZM291.9 26.15L290.562 27.6365V27.6365L291.9 26.15ZM294.3 28.8L292.656 29.9384C293.029 30.478 293.644 30.8 294.3 30.8V28.8ZM294.5 28.8V30.8C295.605 30.8 296.5 29.9045 296.5 28.8H294.5ZM294.5 22.4V20.4C293.395 20.4 292.5 21.2954 292.5 22.4H294.5ZM308.3 22.4H310.3C310.3 21.2954 309.405 20.4 308.3 20.4V22.4ZM271.4 41.85L273.245 42.6222V42.6222L271.4 41.85ZM273.95 38.05L275.364 39.4642L273.95 38.05ZM291.05 38.05L289.636 39.4642L291.05 38.05ZM293.6 41.85L291.755 42.6222V42.6222L293.6 41.85ZM291.05 54.75L292.464 56.1642L291.05 54.75ZM273.95 54.75L272.536 56.1642L273.95 54.75ZM366.3 62.6L367.875 63.8326C368.209 63.4063 368.355 62.863 368.281 62.3268C368.207 61.7906 367.919 61.3072 367.483 60.9871L366.3 62.6ZM335.25 70.3999L335.934 68.5204H335.933L335.25 70.3999ZM326.65 65.25L325.298 66.7234L326.65 65.25ZM320.9 57.2L322.726 56.3841V56.3841L320.9 57.2ZM320.9 36.2L322.726 37.0158V37.0158L320.9 36.2ZM326.65 28.15L328.002 29.6234V29.6234L326.65 28.15ZM335.25 23L335.933 24.8795L335.25 23ZM355.25 23L356.03 21.1583L356.03 21.1583L355.25 23ZM362.45 28.15L360.949 29.4717L362.45 28.15ZM367 36.2L368.893 35.5554V35.5554L367 36.2ZM368.6 51.4V53.4C369.705 53.4 370.6 52.5045 370.6 51.4H368.6ZM333.8 51.4V49.4C333.198 49.4 332.627 49.6714 332.248 50.1389C331.868 50.6064 331.719 51.2201 331.842 51.8097L333.8 51.4ZM337.7 58.25L336.405 59.7738V59.7738L337.7 58.25ZM355.8 54.9L356.983 53.2871C356.555 52.9731 356.019 52.8423 355.494 52.9235C354.969 53.0046 354.499 53.2912 354.185 53.7199L355.8 54.9ZM353.6 41.2V43.2C354.684 43.2 355.571 42.3363 355.599 41.2526L353.6 41.2ZM351.1 34.7L349.659 36.0872L349.659 36.0872L351.1 34.7ZM333.8 41.2L331.803 41.089C331.773 41.6378 331.969 42.175 332.347 42.5744C332.725 42.9737 333.25 43.2 333.8 43.2V41.2ZM336.75 34.8499L338.109 36.3175L338.109 36.3175L336.75 34.8499ZM340 32.7999L340.776 34.6432L340.776 34.6432L340 32.7999ZM0 2.19995H23.6V-1.80005H0V2.19995ZM2 71V0.199951H-2V71H2ZM15.6 69H0V73H15.6V69ZM13.6 16.7V71H17.6V16.7H13.6ZM15.8 14.7H15.6V18.7H15.8V14.7ZM35.5995 70.3738L17.6995 16.0738L13.9005 17.3261L31.8005 71.6261L35.5995 70.3738ZM45.6 69H33.7V73H45.6V69ZM62.3079 16.0518L43.7079 70.3518L47.4921 71.6481L66.0921 17.3481L62.3079 16.0518ZM64.4 14.7H64.2V18.7H64.4V14.7ZM66.4 71V16.7H62.4V71H66.4ZM80 69H64.4V73H80V69ZM78 0.199951V71H82V0.199951H78ZM56.5 2.19995H80V-1.80005H56.5V2.19995ZM41.9848 47.069L58.3848 0.869005L54.6152 -0.469102L38.2152 45.7309L41.9848 47.069ZM39.9 48.4H40.1V44.4H39.9V48.4ZM21.7139 0.865378L38.0139 47.0654L41.7861 45.7345L25.4861 -0.465476L21.7139 0.865378ZM123 62.8999H122.8V66.8999H123V62.8999ZM125 71V64.8999H121V71H125ZM136.8 69H123V73H136.8V69ZM134.8 46.2999V71H138.8V46.2999H134.8ZM133.845 35.9704C134.475 38.8999 134.8 42.3371 134.8 46.2999H138.8C138.8 42.1294 138.459 38.4 137.755 35.1295L133.845 35.9704ZM130.686 28.9464C132.165 30.8019 133.232 33.1233 133.845 35.9704L137.755 35.1295C137.034 31.7766 135.735 28.8646 133.814 26.4535L130.686 28.9464ZM124.726 24.7144C127.268 25.7013 129.231 27.1204 130.686 28.9464L133.814 26.4535C131.869 24.0128 129.298 22.1986 126.174 20.9855L124.726 24.7144ZM114.6 23.2C118.854 23.2 122.202 23.7345 124.726 24.7144L126.174 20.9855C123.031 19.7654 119.146 19.2 114.6 19.2V23.2ZM103.658 25.0387C107.177 23.8132 110.821 23.2 114.6 23.2V19.2C110.379 19.2 106.29 19.8867 102.342 21.2612L103.658 25.0387ZM94.5609 30.4655C97.1512 28.0602 100.176 26.251 103.658 25.0387L102.342 21.2612C98.3571 22.6489 94.8488 24.7396 91.8391 27.5344L94.5609 30.4655ZM102.632 35.8033L94.6316 27.6033L91.7684 30.3966L99.7684 38.5966L102.632 35.8033ZM105.744 31.167C103.475 32.3198 101.462 33.8949 99.7052 35.8712L102.695 38.5287C104.138 36.905 105.758 35.6467 107.556 34.7329L105.744 31.167ZM113.4 29.4C110.645 29.4 108.08 29.9796 105.744 31.167L107.556 34.7329C109.286 33.8537 111.222 33.4 113.4 33.4V29.4ZM121.422 32.2069C119.143 30.3275 116.436 29.4 113.4 29.4V33.4C115.564 33.4 117.357 34.0391 118.878 35.293L121.422 32.2069ZM125 40.1C125 36.8925 123.825 34.188 121.422 32.2069L118.878 35.293C120.275 36.4453 121 37.9741 121 40.1H125ZM116.305 42.1992C118.723 42.1329 120.954 42.1 123 42.1V38.1C120.912 38.1 118.644 38.1336 116.195 38.2007L116.305 42.1992ZM109.221 42.7814C111.584 42.4579 113.945 42.2639 116.305 42.1992L116.195 38.2007C113.689 38.2694 111.183 38.4754 108.679 38.8185L109.221 42.7814ZM102.49 44.2609C104.649 43.5942 106.892 43.1005 109.221 42.7814L108.679 38.8185C106.141 39.1661 103.684 39.7057 101.31 40.439L102.49 44.2609ZM97.0154 46.9253C98.5917 45.7952 100.411 44.9031 102.49 44.2609L101.31 40.439C98.856 41.1968 96.6417 42.2714 94.6846 43.6746L97.0154 46.9253ZM93.4139 51.0427C94.3039 49.3774 95.5001 48.0118 97.0154 46.9253L94.6846 43.6746C92.6666 45.1214 91.0627 46.9558 89.8861 49.1572L93.4139 51.0427ZM92.1 57.2C92.1 54.6399 92.5727 52.6166 93.4139 51.0427L89.8861 49.1572C88.6607 51.45 88.1 54.16 88.1 57.2H92.1ZM93.2889 62.8055C92.5175 61.2628 92.1 59.4123 92.1 57.2H88.1C88.1 59.921 88.6158 62.4038 89.7111 64.5944L93.2889 62.8055ZM96.5414 66.8319C95.1763 65.7512 94.0943 64.4164 93.2889 62.8055L89.7111 64.5944C90.7724 66.7169 92.2237 68.5154 94.0586 69.968L96.5414 66.8319ZM101.427 69.3351C99.5504 68.7691 97.9296 67.9308 96.5414 66.8319L94.0586 69.968C95.8705 71.4024 97.9495 72.4642 100.273 73.1648L101.427 69.3351ZM107.4 70.2C105.322 70.2 103.334 69.9101 101.427 69.3351L100.273 73.1648C102.566 73.8565 104.944 74.2 107.4 74.2V70.2ZM115.392 68.6492C112.872 69.6814 110.214 70.2 107.4 70.2V74.2C110.72 74.2 113.895 73.5852 116.908 72.3507L115.392 68.6492ZM121.116 63.8206C119.664 66.0866 117.765 67.6771 115.392 68.6492L116.908 72.3507C120.068 71.0561 122.603 68.9133 124.484 65.9793L121.116 63.8206ZM115.167 51.8465C116.846 51.7478 118.22 51.7 119.3 51.7V47.7C118.113 47.7 116.654 47.7521 114.933 47.8534L115.167 51.8465ZM110.721 52.6167C112.134 52.1958 113.615 51.9378 115.167 51.8465L114.933 47.8534C113.085 47.9621 111.299 48.2708 109.579 48.7832L110.721 52.6167ZM107.444 54.325C108.306 53.5933 109.385 53.0148 110.721 52.6167L109.579 48.7832C107.782 49.3184 106.194 50.1399 104.856 51.2749L107.444 54.325ZM106.5 56.7C106.5 55.5191 106.864 54.8172 107.444 54.325L104.856 51.2749C103.236 52.6494 102.5 54.5474 102.5 56.7H106.5ZM107.784 58.9588C106.895 58.4565 106.5 57.7986 106.5 56.7H102.5C102.5 59.2014 103.638 61.21 105.816 62.4411L107.784 58.9588ZM111.6 60C110.298 60 109.035 59.6658 107.784 58.9588L105.816 62.4411C107.632 63.4675 109.569 64 111.6 64V60ZM115.288 59.4805C114.109 59.8255 112.882 60 111.6 60V64C113.251 64 114.857 63.7744 116.412 63.3194L115.288 59.4805ZM118.367 58.0519C117.492 58.6536 116.472 59.1341 115.288 59.4805L116.412 63.3194C117.962 62.8658 119.375 62.213 120.633 61.348L118.367 58.0519ZM120.304 55.9243C119.82 56.7902 119.18 57.4932 118.367 58.0519L120.633 61.348C121.954 60.4401 123.013 59.2764 123.796 57.8756L120.304 55.9243ZM121 52.9C121 54.1537 120.743 55.139 120.304 55.9243L123.796 57.8756C124.624 56.3942 125 54.7128 125 52.9H121ZM121 49.7V52.9H125V49.7H121ZM119.3 51.7H123V47.7H119.3V51.7ZM146.2 24.4H160.6V20.4H146.2V24.4ZM148.2 71V22.4H144.2V71H148.2ZM161.2 69H146.2V73H161.2V69ZM159.2 46.7999V71H163.2V46.7999H159.2ZM159.518 41.9297C159.305 43.4928 159.2 45.1167 159.2 46.7999H163.2C163.2 45.2832 163.295 43.8404 163.482 42.4702L159.518 41.9297ZM160.992 37.2958C160.231 38.6981 159.747 40.2509 159.518 41.9297L163.482 42.4702C163.653 41.2157 164.002 40.1352 164.508 39.2041L160.992 37.2958ZM164.492 33.7224C162.992 34.5978 161.808 35.7923 160.992 37.2958L164.508 39.2041C164.958 38.3743 165.608 37.7021 166.508 37.1775L164.492 33.7224ZM170.2 32.4C168.045 32.4 166.095 32.7874 164.492 33.7224L166.508 37.1775C167.305 36.7125 168.489 36.4 170.2 36.4V32.4ZM175.874 34.0185C174.358 32.8444 172.373 32.4 170.2 32.4V36.4C171.894 36.4 172.876 36.7555 173.426 37.1814L175.874 34.0185ZM178.81 37.9656C178.184 36.3792 177.204 35.0481 175.874 34.0185L173.426 37.1814C174.162 37.7519 174.716 38.4873 175.09 39.4343L178.81 37.9656ZM179.846 42.7169C179.733 41.0319 179.394 39.4434 178.81 37.9656L175.09 39.4343C175.506 40.4899 175.767 41.6679 175.854 42.983L179.846 42.7169ZM180 47.2C180 45.7525 179.948 44.258 179.846 42.7169L175.854 42.983C175.952 44.4419 176 45.8474 176 47.2H180ZM180 71V47.2H176V71H180ZM193 69H178V73H193V69ZM191 44.2V71H195V44.2H191ZM190.327 35.4288C190.773 38.1053 191 41.0274 191 44.2H195C195 40.8392 194.76 37.6946 194.273 34.7711L190.327 35.4288ZM187.957 28.8649C189.095 30.6737 189.897 32.8482 190.327 35.4287L194.273 34.7712C193.77 31.7517 192.805 29.0596 191.343 26.7351L187.957 28.8649ZM183.306 24.7388C185.335 25.7534 186.865 27.1294 187.957 28.8649L191.343 26.7351C189.835 24.3372 187.732 22.4798 185.094 21.1611L183.306 24.7388ZM175 23.2C178.621 23.2 181.347 23.7597 183.306 24.7388L185.094 21.1611C182.386 19.8068 178.979 19.2 175 19.2V23.2ZM170.582 23.8133C171.905 23.4107 173.373 23.2 175 23.2V19.2C173.027 19.2 171.161 19.4559 169.418 19.9866L170.582 23.8133ZM166.943 25.4065C167.98 24.7725 169.189 24.2375 170.582 23.8133L169.418 19.9866C167.745 20.4958 166.22 21.1607 164.857 21.9934L166.943 25.4065ZM164.266 27.5609C164.996 26.7746 165.883 26.0543 166.943 25.4065L164.857 21.9934C163.517 22.8123 162.338 23.7586 161.334 24.8391L164.266 27.5609ZM162.589 29.8944C162.954 29.1637 163.501 28.3844 164.266 27.5609L161.334 24.839C160.366 25.8822 159.579 26.9695 159.011 28.1055L162.589 29.8944ZM160.6 31H160.8V27H160.6V31ZM158.6 22.4V29H162.6V22.4H158.6ZM233.9 66.8999H234.1V62.8999H233.9V66.8999ZM228.008 72.3507C231.168 71.0561 233.703 68.9133 235.584 65.9793L232.216 63.8206C230.764 66.0866 228.865 67.6771 226.492 68.6492L228.008 72.3507ZM218.5 74.2C221.82 74.2 224.995 73.5852 228.008 72.3507L226.492 68.6492C223.972 69.6814 221.314 70.2 218.5 70.2V74.2ZM211.373 73.1648C213.666 73.8565 216.044 74.2 218.5 74.2V70.2C216.422 70.2 214.434 69.9101 212.527 69.3351L211.373 73.1648ZM205.159 69.968C206.97 71.4025 209.05 72.4642 211.373 73.1648L212.527 69.3351C210.65 68.7691 209.03 67.9308 207.641 66.8319L205.159 69.968ZM200.811 64.5944C201.872 66.7169 203.324 68.5154 205.159 69.968L207.641 66.8319C206.276 65.7512 205.194 64.4164 204.389 62.8055L200.811 64.5944ZM199.2 57.2C199.2 59.921 199.716 62.4038 200.811 64.5944L204.389 62.8055C203.617 61.2628 203.2 59.4123 203.2 57.2H199.2ZM200.986 49.1572C199.761 51.45 199.2 54.16 199.2 57.2H203.2C203.2 54.6399 203.673 52.6166 204.514 51.0427L200.986 49.1572ZM205.785 43.6746C203.767 45.1215 202.163 46.9558 200.986 49.1572L204.514 51.0427C205.404 49.3774 206.6 48.0118 208.115 46.9253L205.785 43.6746ZM212.41 40.439C209.956 41.1968 207.742 42.2714 205.785 43.6746L208.115 46.9253C209.692 45.7952 211.511 44.9031 213.59 44.2609L212.41 40.439ZM219.779 38.8185C217.241 39.1661 214.784 39.7057 212.41 40.439L213.59 44.2609C215.749 43.5942 217.992 43.1005 220.321 42.7814L219.779 38.8185ZM227.295 38.2007C224.789 38.2694 222.283 38.4754 219.779 38.8185L220.321 42.7814C222.684 42.4579 225.045 42.2639 227.405 42.1992L227.295 38.2007ZM234.1 38.1C232.012 38.1 229.744 38.1336 227.295 38.2007L227.405 42.1992C229.823 42.1329 232.054 42.1 234.1 42.1V38.1ZM229.978 35.293C231.375 36.4453 232.1 37.9741 232.1 40.1H236.1C236.1 36.8925 234.925 34.188 232.522 32.2069L229.978 35.293ZM224.5 33.4C226.664 33.4 228.457 34.0391 229.978 35.293L232.522 32.2069C230.243 30.3275 227.536 29.4 224.5 29.4V33.4ZM218.656 34.7329C220.386 33.8537 222.322 33.4 224.5 33.4V29.4C221.745 29.4 219.18 29.9796 216.844 31.167L218.656 34.7329ZM213.795 38.5287C215.238 36.905 216.858 35.6467 218.656 34.7329L216.844 31.167C214.575 32.3198 212.562 33.8949 210.805 35.8712L213.795 38.5287ZM202.868 30.3966L210.868 38.5966L213.732 35.8033L205.732 27.6033L202.868 30.3966ZM213.442 21.2612C209.457 22.6489 205.949 24.7396 202.939 27.5344L205.661 30.4655C208.251 28.0602 211.276 26.251 214.758 25.0387L213.442 21.2612ZM225.7 19.2C221.479 19.2 217.39 19.8867 213.442 21.2612L214.758 25.0387C218.277 23.8132 221.921 23.2 225.7 23.2V19.2ZM237.274 20.9855C234.131 19.7654 230.246 19.2 225.7 19.2V23.2C229.954 23.2 233.302 23.7345 235.826 24.7144L237.274 20.9855ZM244.914 26.4535C242.969 24.0128 240.398 22.1986 237.274 20.9855L235.826 24.7144C238.368 25.7013 240.331 27.1204 241.786 28.9464L244.914 26.4535ZM248.855 35.1295C248.134 31.7766 246.835 28.8647 244.914 26.4535L241.786 28.9464C243.265 30.8019 244.332 33.1233 244.945 35.9704L248.855 35.1295ZM249.9 46.2999C249.9 42.1294 249.559 38.4 248.855 35.1295L244.945 35.9704C245.575 38.8999 245.9 42.3371 245.9 46.2999H249.9ZM249.9 71V46.2999H245.9V71H249.9ZM234.1 73H247.9V69H234.1V73ZM232.1 64.8999V71H236.1V64.8999H232.1ZM230.4 47.7C229.213 47.7 227.754 47.7521 226.033 47.8534L226.267 51.8465C227.946 51.7478 229.32 51.7 230.4 51.7V47.7ZM234.1 47.7H230.4V51.7H234.1V47.7ZM236.1 52.9V49.7H232.1V52.9H236.1ZM234.896 57.8756C235.724 56.3942 236.1 54.7128 236.1 52.9H232.1C232.1 54.1537 231.843 55.139 231.404 55.9243L234.896 57.8756ZM231.733 61.348C233.054 60.4401 234.113 59.2764 234.896 57.8756L231.404 55.9243C230.92 56.7902 230.28 57.4932 229.467 58.0519L231.733 61.348ZM227.512 63.3194C229.062 62.8658 230.475 62.213 231.733 61.348L229.467 58.0519C228.592 58.6536 227.572 59.1341 226.388 59.4805L227.512 63.3194ZM222.7 64C224.351 64 225.957 63.7744 227.512 63.3194L226.388 59.4805C225.209 59.8255 223.982 60 222.7 60V64ZM216.916 62.4411C218.732 63.4675 220.669 64 222.7 64V60C221.398 60 220.135 59.6658 218.884 58.9588L216.916 62.4411ZM213.6 56.7C213.6 59.2014 214.738 61.21 216.916 62.4411L218.884 58.9588C217.995 58.4565 217.6 57.7986 217.6 56.7H213.6ZM215.956 51.2749C214.336 52.6494 213.6 54.5474 213.6 56.7H217.6C217.6 55.5191 217.964 54.8172 218.544 54.325L215.956 51.2749ZM220.679 48.7832C218.882 49.3184 217.294 50.1399 215.956 51.2749L218.544 54.325C219.406 53.5933 220.485 53.0148 221.821 52.6167L220.679 48.7832ZM226.033 47.8534C224.185 47.9621 222.399 48.2708 220.679 48.7832L221.821 52.6167C223.234 52.1958 224.715 51.9378 226.267 51.8465L226.033 47.8534ZM302.784 89.244C307.901 83.9801 310.3 76.4177 310.3 66.8999H306.3C306.3 75.7823 304.066 82.1864 299.916 86.4559L302.784 89.244ZM280.2 97C289.975 97 297.638 94.5377 302.784 89.244L299.916 86.4559C295.795 90.6955 289.359 93 280.2 93V97ZM266.951 95.499C271.299 96.4997 275.716 97 280.2 97V93C276.017 93 271.901 92.5335 267.849 91.6009L266.951 95.499ZM254.558 89.4674C258.313 92.4433 262.448 94.4626 266.951 95.499L267.849 91.6009C263.952 90.704 260.354 88.9566 257.042 86.3325L254.558 89.4674ZM262.438 74.3875L254.138 86.7875L257.462 89.0124L265.762 76.6124L262.438 74.3875ZM272.258 78.2704C269.873 77.2172 267.579 75.785 265.376 73.9599L262.824 77.04C265.288 79.0816 267.894 80.716 270.642 81.9295L272.258 78.2704ZM279.9 79.7999C277.085 79.7999 274.547 79.2812 272.258 78.2704L270.642 81.9295C273.486 83.1853 276.581 83.7999 279.9 83.7999V79.7999ZM288.615 77.0573C286.973 78.7496 284.217 79.7999 279.9 79.7999V83.7999C284.783 83.7999 288.794 82.617 291.485 79.8426L288.615 77.0573ZM291.3 69.8999C291.3 72.9113 290.377 75.2411 288.615 77.0573L291.485 79.8426C294.057 77.1921 295.3 73.8219 295.3 69.8999H291.3ZM291.3 65.2V69.8999H295.3V65.2H291.3ZM293.1 67.2H293.3V63.2H293.1V67.2ZM287.355 72.0216C290.303 70.9115 292.758 69.0147 294.706 66.3926L291.495 64.0073C289.976 66.0519 288.131 67.4551 285.945 68.2783L287.355 72.0216ZM279.4 73.6C281.952 73.6 284.609 73.0558 287.355 72.0216L285.945 68.2783C283.558 69.1774 281.381 69.6 279.4 69.6V73.6ZM268.825 71.5936C272.034 72.9428 275.569 73.6 279.4 73.6V69.6C276.031 69.6 273.033 69.0237 270.375 67.9063L268.825 71.5936ZM260.593 65.92C262.892 68.365 265.644 70.2561 268.825 71.5936L270.375 67.9063C267.69 66.7772 265.408 65.2016 263.507 63.1799L260.593 65.92ZM255.324 57.2932C256.544 60.5944 258.297 63.4787 260.593 65.92L263.507 63.1799C261.603 61.1545 260.123 58.7389 259.076 55.9067L255.324 57.2932ZM253.5 46.5C253.5 50.3747 254.099 53.9793 255.324 57.2933L259.076 55.9066C258.034 53.0872 257.5 49.9586 257.5 46.5H253.5ZM255.155 36.4613C254.053 39.7314 253.5 43.0803 253.5 46.5H257.5C257.5 43.5196 257.98 40.6018 258.945 37.7386L255.155 36.4613ZM259.899 27.7371C257.837 30.2698 256.259 33.1848 255.155 36.4613L258.945 37.7386C259.908 34.8817 261.263 32.3968 263.001 30.2628L259.899 27.7371ZM267.471 21.5787C264.505 23.1344 261.974 25.1885 259.899 27.7371L263.001 30.2628C264.726 28.1447 266.829 26.4322 269.329 25.1212L267.471 21.5787ZM277.7 19.2C273.95 19.2 270.525 19.9774 267.471 21.5787L269.329 25.1212C271.742 23.8558 274.516 23.2 277.7 23.2V19.2ZM284.061 19.9663C282.102 19.449 279.978 19.2 277.7 19.2V23.2C279.689 23.2 281.464 23.4176 283.039 23.8336L284.061 19.9663ZM289.228 21.9283C287.677 21.1157 285.95 20.4654 284.061 19.9663L283.039 23.8336C284.683 24.2679 286.123 24.8175 287.372 25.4716L289.228 21.9283ZM293.238 24.6634C292.094 23.6341 290.751 22.726 289.228 21.9283L287.372 25.4716C288.649 26.1405 289.706 26.8658 290.562 27.6365L293.238 24.6634ZM295.944 27.6615C295.236 26.6379 294.323 25.6402 293.238 24.6634L290.562 27.6365C291.477 28.4598 292.164 29.2286 292.656 29.9384L295.944 27.6615ZM294.5 26.8H294.3V30.8H294.5V26.8ZM292.5 22.4V28.8H296.5V22.4H292.5ZM308.3 20.4H294.5V24.4H308.3V20.4ZM310.3 66.8999V22.4H306.3V66.8999H310.3ZM268.5 46.4C268.5 48.2571 268.85 50.037 269.555 51.7222L273.245 50.1777C272.75 48.9963 272.5 47.7429 272.5 46.4H268.5ZM269.555 41.0777C268.85 42.7629 268.5 44.5428 268.5 46.4H272.5C272.5 45.057 272.75 43.8036 273.245 42.6222L269.555 41.0777ZM272.536 36.6357C271.252 37.9195 270.256 39.4041 269.555 41.0777L273.245 42.6222C273.744 41.4291 274.448 40.3805 275.364 39.4642L272.536 36.6357ZM276.907 33.5865C275.265 34.3502 273.804 35.3676 272.536 36.6357L275.364 39.4642C276.296 38.5323 277.369 37.783 278.593 37.2134L276.907 33.5865ZM282.5 32.4C280.504 32.4 278.629 32.7855 276.907 33.5865L278.593 37.2134C279.738 36.6811 281.03 36.4 282.5 36.4V32.4ZM288.028 33.5792C286.292 32.7903 284.442 32.4 282.5 32.4V36.4C283.891 36.4 285.175 36.6763 286.372 37.2207L288.028 33.5792ZM292.464 36.6357C291.189 35.3601 289.705 34.3415 288.028 33.5792L286.372 37.2207C287.629 37.7917 288.711 38.5398 289.636 39.4642L292.464 36.6357ZM295.445 41.0777C294.744 39.4041 293.748 37.9195 292.464 36.6357L289.636 39.4642C290.552 40.3805 291.256 41.4291 291.755 42.6222L295.445 41.0777ZM296.5 46.4C296.5 44.5428 296.15 42.7629 295.445 41.0777L291.755 42.6222C292.25 43.8036 292.5 45.057 292.5 46.4H296.5ZM295.445 51.7222C296.15 50.037 296.5 48.2571 296.5 46.4H292.5C292.5 47.7429 292.25 48.9963 291.755 50.1777L295.445 51.7222ZM292.464 56.1642C293.748 54.8805 294.744 53.3958 295.445 51.7222L291.755 50.1777C291.256 51.3708 290.552 52.4194 289.636 53.3357L292.464 56.1642ZM288.028 59.2207C289.705 58.4584 291.189 57.4398 292.464 56.1642L289.636 53.3357C288.711 54.2601 287.629 55.0082 286.372 55.5792L288.028 59.2207ZM282.5 60.4C284.442 60.4 286.292 60.0096 288.028 59.2207L286.372 55.5792C285.175 56.1236 283.891 56.4 282.5 56.4V60.4ZM276.907 59.2134C278.629 60.0144 280.504 60.4 282.5 60.4V56.4C281.03 56.4 279.738 56.1188 278.593 55.5865L276.907 59.2134ZM272.536 56.1642C273.804 57.4323 275.265 58.4497 276.907 59.2134L278.593 55.5865C277.369 55.0169 276.296 54.2676 275.364 53.3357L272.536 56.1642ZM269.555 51.7222C270.256 53.3958 271.252 54.8805 272.536 56.1642L275.364 53.3357C274.448 52.4194 273.744 51.3708 273.245 50.1777L269.555 51.7222ZM358.028 71.5207C361.977 69.7256 365.27 67.1614 367.875 63.8326L364.725 61.3673C362.53 64.1719 359.757 66.3409 356.372 67.8792L358.028 71.5207ZM345.8 74.2C350.026 74.2 354.107 73.3026 358.028 71.5207L356.372 67.8792C352.959 69.4307 349.441 70.2 345.8 70.2V74.2ZM334.566 72.2795C338.099 73.5641 341.848 74.2 345.8 74.2V70.2C342.285 70.2 339.001 69.6358 335.934 68.5204L334.566 72.2795ZM325.298 66.7234C327.937 69.1459 331.035 70.9953 334.567 72.2795L335.933 68.5204C332.865 67.4046 330.23 65.8207 328.002 63.7765L325.298 66.7234ZM319.074 58.0158C320.581 61.3885 322.655 64.2983 325.298 66.7234L328.002 63.7765C325.778 61.7349 324.019 59.2781 322.726 56.3841L319.074 58.0158ZM316.8 46.7C316.8 50.8121 317.546 54.5951 319.074 58.0158L322.726 56.3841C321.454 53.5381 320.8 50.3211 320.8 46.7H316.8ZM319.074 35.3841C317.546 38.8048 316.8 42.5878 316.8 46.7H320.8C320.8 43.0788 321.454 39.8618 322.726 37.0158L319.074 35.3841ZM325.298 26.6765C322.655 29.1016 320.581 32.0114 319.074 35.3841L322.726 37.0158C324.019 34.1218 325.778 31.665 328.002 29.6234L325.298 26.6765ZM334.567 21.1204C331.035 22.4046 327.937 24.254 325.298 26.6765L328.002 29.6234C330.23 27.5792 332.865 25.9953 335.933 24.8795L334.567 21.1204ZM345.8 19.2C341.848 19.2 338.099 19.8358 334.567 21.1204L335.933 24.8795C339.001 23.7641 342.285 23.2 345.8 23.2V19.2ZM356.03 21.1583C352.92 19.8414 349.501 19.2 345.8 19.2V23.2C349.033 23.2 351.913 23.7585 354.47 24.8416L356.03 21.1583ZM363.951 26.8282C361.779 24.3619 359.13 22.4712 356.03 21.1583L354.47 24.8416C357.037 25.9287 359.187 27.4713 360.949 29.4717L363.951 26.8282ZM368.893 35.5554C367.751 32.2007 366.11 29.2803 363.951 26.8282L360.949 29.4717C362.723 31.4863 364.115 33.9325 365.107 36.8445L368.893 35.5554ZM370.6 46.7C370.6 42.6501 370.041 38.9279 368.893 35.5554L365.107 36.8445C366.092 39.7387 366.6 43.0164 366.6 46.7H370.6ZM370.6 51.4V46.7H366.6V51.4H370.6ZM333.8 53.4H368.6V49.4H333.8V53.4ZM338.995 56.7261C337.373 55.3469 336.278 53.4754 335.758 50.9902L331.842 51.8097C332.522 55.0578 334.027 57.753 336.405 59.7738L338.995 56.7261ZM345.1 58.7999C342.582 58.7999 340.591 58.0822 338.995 56.7261L336.405 59.7738C338.809 61.8177 341.752 62.7999 345.1 62.7999V58.7999ZM350.263 57.4708C348.952 58.3197 347.266 58.7999 345.1 58.7999V62.7999C347.867 62.7999 350.348 62.1802 352.436 60.8291L350.263 57.4708ZM354.185 53.7199C353.054 55.268 351.746 56.5114 350.263 57.4708L352.436 60.8291C354.354 59.5885 356.013 57.9986 357.415 56.08L354.185 53.7199ZM367.483 60.9871L356.983 53.2871L354.617 56.5128L365.117 64.2128L367.483 60.9871ZM355.599 41.2526C355.68 38.1923 354.651 35.5046 352.541 33.3127L349.659 36.0872C351.015 37.4953 351.653 39.1409 351.601 41.1473L355.599 41.2526ZM333.8 43.2H353.6V39.2H333.8V43.2ZM332.829 36.9223C332.227 38.247 331.884 39.6399 331.803 41.089L335.797 41.3109C335.85 40.36 336.073 39.4529 336.471 38.5776L332.829 36.9223ZM335.391 33.3824C334.299 34.3935 333.441 35.5768 332.829 36.9223L336.471 38.5776C336.859 37.7231 337.401 36.9731 338.109 36.3175L335.391 33.3824ZM339.224 30.9567C337.768 31.5696 336.481 32.373 335.391 33.3824L338.109 36.3175C338.819 35.6602 339.698 35.097 340.776 34.6432L339.224 30.9567ZM344.4 30C342.522 30 340.783 30.3004 339.224 30.9567L340.776 34.6432C341.751 34.2328 342.945 34 344.4 34V30ZM352.541 33.3127C350.393 31.0823 347.62 30 344.4 30V34C346.646 34 348.34 34.7176 349.659 36.0872L352.541 33.3127Z" fill="white" mask="url(#path-01-inside-01)"/>
</svg>
